<svg width="816px" height="308px" viewBox="0 0 816 308" version="1.1" xmlns="http://www.w3.org/2000/svg" xmlns:xlink="http://www.w3.org/1999/xlink">
    <g id="Page-1" stroke="none" stroke-width="1" fill="none" fill-rule="evenodd" opacity="0.5">
        <g id="Artboard-Copy-5" transform="translate(-292.000000, -577.000000)" fill-rule="nonzero">
            <g id="Group-4" transform="translate(292.000000, 325.000000)">
                <g id="Group-9" transform="translate(0.000000, 248.000000)">
                    <g id="Group-8" transform="translate(160.000000, 217.000000) scale(-1, 1) translate(-160.000000, -217.000000) translate(120.000000, 177.000000)">
                        <path d="M37.7964434,39.2665604 C37.7067722,39.2057192 37.6092318,39.1529515 37.5055343,39.1091834 C31.0974535,37.4239375 29.0287666,43.1222981 26.7176555,47.0763965 C26.5964434,44.9780358 26.7176555,42.9452489 26.0631101,41.0108227 C25.642908,39.7649211 25.9014939,39.1419702 27.4610899,38.5911506 C28.8752313,38.0993473 30.0388676,37.1485276 31.3156353,36.4009866 C32.8918961,35.251988 34.3687896,34.0162787 35.7358373,32.702626 C36.4377558,31.8029994 36.9332803,30.8077316 37.1984636,29.7649211 C37.3843222,28.4534457 36.6408878,27.797708 35.0408878,27.8829539 C33.1444697,28.0196155 31.3853996,28.7427276 30.1277565,29.902626 C27.5884459,32.0412922 25.8266624,34.7076916 25.0368474,37.607544 C24.4146252,36.7944293 23.9216959,36.0468883 23.3156353,35.3649211 C22.0173276,33.9339691 20.8142625,32.4476934 19.7115949,30.912462 C19.5257363,30.650167 19.2186656,30.4403309 19.7115949,30.1190194 C22.5075545,28.3288555 24.2287666,25.8108227 26.2812919,23.5222981 C26.6807259,23.053012 26.9558804,22.5216029 27.0893727,21.9616424 C27.4772515,20.5518063 27.0408878,19.4108227 25.8610899,18.8468883 C24.6812919,18.2829539 23.0732111,18.4731178 21.8206858,19.450167 C20.5076203,20.5047081 19.5480324,21.8137967 19.032807,23.2534457 C18.4204228,24.8918593 18.0886939,26.5908445 18.0469484,28.302626 C17.2954333,27.2009866 16.632807,26.0927899 16.0105848,24.9714784 C15.5014939,24.0272161 15.0893727,23.0567243 14.5560394,22.1255768 C14.2812919,21.6534457 14.6691707,21.6009866 14.992403,21.4370522 C17.0891962,20.3752174 18.7707331,18.8514969 19.8408878,17.0436096 C20.5230397,15.9975074 20.7181065,14.7870397 20.3903828,13.6337735 C20.2796821,13.0403578 19.8047465,12.5333351 19.1297601,12.2879817 C18.4547737,12.0426283 17.6723644,12.092614 17.053009,12.4206588 C16.0650559,12.8944491 15.2850356,13.607684 14.822706,14.460003 C14.0098834,15.9646083 13.4997007,17.5652635 13.3115949,19.2009866 L12.1156353,16.2436096 C12.0186656,15.8763965 11.8489686,15.3518063 11.582302,14.6304948 C11.5053661,14.1449496 11.3947528,13.6633108 11.2509888,13.1878719 C10.8949746,12.3173956 11.0341335,11.3635478 11.6307868,10.5845932 C13.3783149,8.22109307 13.9095164,5.39449025 13.1095747,2.71574074 C12.5600798,1.03049484 11.0408878,-0.103931394 9.57826157,0.00754401624 C8.11563531,0.119019426 7.08129188,1.24688828 6.79038279,2.99115057 C6.41969335,5.33877931 7.08373486,7.71716653 8.66513026,9.70590467 C10.0031686,11.6158173 10.970739,13.6815612 11.5338171,15.8304948 C11.5903828,16.0141014 11.8085646,16.7354129 11.8893727,16.8665604 C12.155642,17.4518621 12.3294173,18.0621901 12.4065444,18.6829539 C11.9216959,18.2763965 11.5984636,18.0272161 11.3237161,17.7845932 C9.90965191,16.556575 8.11085222,15.6635399 6.11967572,15.2009866 C4.07523127,14.7813145 2.25704945,15.2796752 1.76412016,16.3419702 C1.27119087,17.4042653 2.15199895,18.6960686 3.98634238,19.502626 C6.59587814,20.7204515 9.67987878,21.0839956 12.6085646,20.5190194 C13.3035141,20.3813145 13.4166454,20.5911506 13.6186656,20.9780358 C14.4913929,22.7572708 15.3695074,24.53432 16.253009,26.3091834 C16.382302,26.4665604 16.5843222,26.6239375 16.3418979,26.807544 C16.2120118,26.7480651 16.0901383,26.6777381 15.9782616,26.597708 C14.3451473,25.5192512 12.4942362,24.6784149 10.5075545,24.112462 C8.97427825,23.6531863 7.2893156,23.6531863 5.75603935,24.112462 C4.91633707,24.3235022 4.27106529,24.8721888 4.05051309,25.5627029 C3.82996089,26.2532169 4.06555353,26.9871708 4.67321107,27.502626 C5.30354192,28.1497713 6.14273351,28.6423492 7.09745349,28.9255768 C10.2844358,29.9932953 13.8496735,30.049472 17.0853323,29.0829539 C17.7156353,28.8993473 17.9742212,28.8993473 18.2732111,29.397708 C19.212851,30.8776353 20.2626026,32.3097904 21.4166454,33.6862325 C21.5944232,33.9091834 21.9176555,34.0993473 21.772201,34.4272161 C21.6752313,34.4272161 21.5863424,34.5059047 21.5297767,34.4862325 C21.1014939,34.3157407 20.7216959,34.1452489 20.2610899,33.955085 C17.0772515,32.5321342 13.7479585,31.902626 10.1762414,32.8272161 C8.14795854,33.3518063 7.63078683,34.7944293 8.93987774,36.1911506 C9.32652452,36.5774639 9.81908601,36.8850994 10.3782616,37.0895112 C14.4517246,38.7528458 19.1671221,39.0518959 23.5095747,37.9222981 C24.422706,37.6993473 24.7944232,37.8829539 24.9964434,38.5780358 C25.2711909,39.5091834 25.6186656,40.4337735 25.8045242,41.3714784 C26.2648755,43.6352325 26.4139376,45.9334765 26.2489686,48.2239375 C25.9418979,47.850167 25.7883626,47.6403309 25.602504,47.4436096 C22.7095747,44.4009866 19.0247262,42.4993473 14.192403,42.2829539 C12.7949881,42.158756 11.4588767,42.7817195 10.8873525,43.8239375 C10.4105848,44.8272161 10.8873525,45.8829539 12.1398777,46.7222981 C12.8026919,47.1336022 13.5418877,47.4567628 14.3297767,47.6796752 C17.3116044,48.6050527 20.4127688,49.2539802 23.5742212,49.6141014 C24.422706,49.7190194 25.4974535,49.4895112 26.1115949,49.8304948 C26.7257363,50.1714784 25.9580596,57.2403309 26.1115949,57.9288555 C26.5802818,57.7649211 26.9843222,51.7059047 26.9600798,51.502626 C26.7661404,50.1386916 26.8711909,48.9386916 28.7136151,48.407544 C30.5560394,47.8763965 32.3580596,46.7616424 34.1681606,45.9091834 C35.202504,45.1813145 36.592403,44.807544 37.4570495,43.9419702 C38.0778594,43.3189436 38.6016734,42.6362011 39.0166454,41.9091834 C39.2976322,40.9095658 38.8177262,39.8702209 37.7964434,39.2665604 L37.7964434,39.2665604 Z" id="Path" fill="#A5D6A7"></path>
                        <path d="M23.7762414,50.3419702 C22.1035141,42.6960686 20.5439181,35.050167 22.402504,27.260003 C24.1075545,20.1911506 29.6105848,15.9485276 37.6833121,15.5681998 C45.0934131,15.2206588 49.4812919,17.9354129 51.0732111,23.8829539 C52.8509888,30.5649211 51.6631101,37.1616424 50.0469484,43.7190194 C49.2873525,46.8009866 48.3257363,49.850167 47.6792717,52.9845932 C49.9095747,50.112462 51.6550293,47.0304948 54.2166454,44.3681998 C57.5055343,40.9518063 61.0610899,37.712462 66.782302,37.155085 C75.9540191,36.2698391 80.7944232,41.1616424 77.8772515,48.250167 C75.453009,54.2042653 70.9519989,59.2009866 66.2893727,64.0993473 C65.4812919,64.9518063 64.3257363,65.6337735 64.1560394,66.8206588 C63.7843222,66.9714784 63.0489686,67.0370522 63.3883626,67.4763965 C63.7277565,67.9157407 64.1964434,67.5419702 64.4792717,67.1813145 C67.4449282,65.8042653 70.1358373,64.0337735 73.6267464,63.450167 C77.1176555,62.8665604 78.8307868,63.9222981 79.242908,66.6370522 C79.9540191,71.4370522 73.2146252,77.555085 67.2833121,77.3780358 C52.8186656,76.9518063 38.3540191,76.4337735 23.8893727,76.0272161 C22.051017,75.972622 20.3224036,75.3033004 19.1136151,74.1780358 C16.0509888,71.6009866 13.0449282,68.9780358 9.97422117,66.407544 C9.09341309,65.660003 1.64290804,58.3288555 0.62472622,54.7354129 C-0.603556608,50.3944293 -0.183354588,47.7386916 3.35603935,45.6468883 C7.39644339,43.2731178 11.622706,43.4895112 15.9055343,46.0665604 C18.5156353,47.6337735 24.4954333,55.3911506 26.2085646,57.0304948 C25.3950966,54.8053582 24.5843222,52.57585 23.7762414,50.3419702 Z" id="Path" fill="#C8E6C9"></path>
                        <path d="M31.202504,79.5157407 C29.6590697,76.0665604 27.5014939,72.7944293 26.7095747,69.1288555 C26.4707115,68.2640266 26.2979912,67.3880375 26.192403,66.5059047 C26.0711909,64.6108227 25.8610899,62.6173801 28.6166454,61.6403309 C31.372201,60.6632817 32.4631101,62.5780358 34.6045242,64.3354129 C34.6045242,61.0239375 34.3782616,58.2960686 34.6934131,55.6141014 C34.8792717,54.0468883 35.1863424,51.8173801 37.9984636,51.9354129 C40.4711909,52.0468883 41.0934131,54.0206588 41.4974535,55.6862325 C41.788001,57.3669157 41.9687252,59.0588997 42.0388676,60.755085 C43.3237161,58.5649211 44.0913929,56.9452489 45.1742212,55.5091834 C46.2570495,54.0731178 47.5014939,52.1780358 50.2651303,52.8403309 C53.0287666,53.502626 53.0368474,55.4042653 52.972201,57.2534457 C52.8186656,61.6534457 50.5075545,65.5222981 48.422706,69.4567243 C47.032807,72.0796752 44.8590697,74.4141014 43.9621,77.2272161 L31.202504,79.5157407 Z" id="Path" fill="#E8F5E9"></path>
                    </g>
                    <path d="M816,243.276696 L816,312 L0,312 L0,240.899487 C32.2707962,239.388313 64.6895388,239.781918 96.8482557,242.07535 C293.243975,256.05465 346.320834,308.251319 573.581654,276.976275 C650.338958,266.415351 736.322335,248.256822 816,243.276696 Z" id="Combined-Shape" fill="#C8E6C9"></path>
                    <g id="Group-7" transform="translate(648.000000, 192.000000)">
                        <path d="M43.1750306,44.7791048 C48.2889223,44.26898 50.0963142,42.1977506 50.7854202,36.9059746 C51.2690033,33.2183258 51.3234064,29.4692161 52.3147519,25.8430282 C53.6566951,20.9261631 55.7723713,19.5986095 60.5900682,20.5328139 C66.5079168,21.6882772 67.565755,21.0060621 69.113221,15.0013407 C69.8809092,12.0512216 70.4430746,9.02734962 71.4223304,6.15712964 C73.556141,-0.0627046775 80.3988424,-1.48859555 85.0412405,3.20086451 C86.890946,5.04468891 86.8123637,7.33103117 86.2139296,9.61737343 C85.4401966,12.5859307 83.965268,15.2717683 82.7260862,18.0559431 C79.8729457,24.4785981 80.3081705,26.8202551 85.2769872,31.7309741 C88.6197557,35.0314198 88.8010993,36.9182667 86.2804222,41.0238491 C84.8191621,43.2573307 83.1181858,45.3186888 81.2088441,47.1699304 C79.6251094,48.798642 78.0171954,50.4212074 76.5724908,52.1728406 C73.2236776,56.2354004 72.8609903,60.2242072 75.3091299,64.9013751 C76.1009973,66.4194572 77.0379396,67.8576402 77.8237622,69.3757223 C79.9575728,73.4751585 79.1294367,77.9003371 75.822937,81.1024455 C74.8376363,82.0550881 65,85 51,85 C41.7978587,85 37.5047265,81.7036977 35.8064326,81.7109075 C35.6409926,81.6373467 35.4714466,81.5737277 35.2986703,81.520379 C31.6384875,76.2704435 29.4603383,70.1025841 29,63.684451 C29,58.0423483 30.2633609,52.7813027 33.7572491,48.2454946 C33.9789134,48.0361278 34.2244733,47.8545462 34.4886686,47.7046395 C37.0957551,46.0015614 40.0835341,44.9952885 43.1750306,44.7791048 Z" id="Path" fill="#E8F5E9"></path>
                        <path d="M71.00475,25.0880634 C72.7010497,23.9891083 76.7068312,21.2198394 78.4958193,18.4920574 L79,18.8381492 C76.7480666,22.2777964 71.2962676,25.6332478 70.5996082,26.0693766 C68.9862046,30.0396113 67.5636524,34.3207042 66.9664817,38.1636669 C66.1550255,43.4547672 63.5348212,52.4875479 60.436838,61.0925769 C63.4560435,58.5400263 73.5493917,49.6984924 74.0371608,45.2585483 L74.6446074,45.3265306 C74.0557596,50.6639529 61.1023826,61.3579987 60.0213301,62.2362741 C56.463139,71.9417602 52.366588,80.8590652 49.6724753,82.9083896 L49.3080073,82.4139728 C50.991264,81.1330345 53.4692659,76.7362754 56.2403749,70.2208804 C55.3495965,68.7725626 48.4540099,57.4201952 49.0346563,53.917023 L49.6421029,54.0220866 C49.1420858,57.0634744 55.1044926,67.1639454 56.5317642,69.5305315 C57.3598656,67.5538188 58.2122284,65.3936575 59.0757496,63.0760947 C61.3404632,56.9939662 63.364223,50.669243 64.7404546,45.4659923 C64.0670253,44.1207111 58.4966446,32.7127566 59.628526,25.8032462 L60.2359727,25.9021296 C59.2588387,31.8934325 63.653894,41.7442127 64.9813022,44.5410055 C65.6241388,42.0312853 66.1019087,39.8171837 66.3651095,38.0647835 C68.1206303,26.7673591 76.904309,11.7741688 76.9893516,11.6258438 L77.5117557,11.9410345 C77.4583705,12.0380247 74.001085,17.9410358 71.00475,25.0880634 L71.00475,25.0880634 Z" id="Path" fill="#A5D6A7"></path>
                        <path d="M54.2466854,53.3002286 C57.7421254,57.8421827 58.9697626,63.0970822 59,68.7391849 C58.5579556,75.1677047 56.3888017,81.3497233 52.7287694,86.6119894 C52.5559163,86.6653381 52.3862951,86.7289571 52.2207816,86.8025179 C49.2998516,86.8025179 24.4024008,86.9254396 15.3311897,86.9684621 C14.2365969,86.9684621 13.166194,87.1466985 12.1804557,86.1940559 C8.87853485,82.9919475 8.04398342,78.5667689 10.1787418,74.4673327 C10.9709609,72.9492506 11.9022719,71.5110676 12.694491,69.9929855 C15.1497655,65.3219637 14.786917,61.3270108 11.4366164,57.264451 C9.9852226,55.5128178 8.3765945,53.8902524 6.79215629,52.2615408 C4.88196651,50.4102992 3.18023472,48.3489411 1.71832554,46.1154595 C-0.803471151,42.0098771 -0.615999455,40.1230302 2.72220624,36.8225845 C7.68718245,31.9057194 8.12864806,29.5702085 5.2742403,23.1475535 C4.06474548,20.3633787 2.56497191,17.6775411 1.78484775,14.7151299 C1.18010035,12.4226416 1.11357813,10.1608837 2.95805773,8.29247493 C7.60856529,3.60301487 14.4482585,5.02890574 16.5830168,11.2487401 C17.5687551,14.11896 18.1311702,17.1428321 18.8931519,20.0929511 C20.4413053,26.0730882 21.4996132,26.7553033 27.4200904,25.6244243 C32.2580696,24.6902199 34.3625906,26.0423578 35.6990824,30.9346386 C36.6908681,34.5485344 36.7513429,38.3099362 37.2290933,41.997585 C37.9185054,47.2955071 39.7267001,49.3728826 44.8428632,49.8707152 C47.9351751,50.0897765 50.9235961,51.0958188 53.5330834,52.7962499 C53.7895398,52.9352784 54.0290469,53.1044294 54.2466854,53.3002286 L54.2466854,53.3002286 Z" id="Path" fill="#C8E6C9"></path>
                        <path d="M17.3561616,31.1099769 C16.4948597,30.5836473 11.2418526,27.2846921 9,23.9044157 L9.50421429,23.5583539 C11.2735958,26.2630012 15.230142,29.0084383 16.9490308,30.1257606 C13.9571,23.0030781 10.5150304,17.1293607 10.457969,17.0326176 L10.9804079,16.7174542 C11.071531,16.8657664 19.8557943,31.8576568 21.6053572,43.1541019 C21.8784523,44.9076329 22.3633577,47.1235013 23.0104584,49.635274 C24.3201361,46.8881061 28.758097,36.9735973 27.7713512,30.961604 L28.3788383,30.8627292 C29.5093786,37.8047069 23.9014555,49.2743591 23.2485594,50.5453181 C24.6305253,55.74989 26.6485173,62.0779995 28.8952023,68.1632447 C29.7601065,70.4855429 30.6138174,72.6496619 31.443103,74.6294366 C32.8336025,72.3334592 38.8625563,62.1425724 38.3598512,59.0853028 L38.9673383,58.986428 C39.5360149,62.5348819 32.5005618,74.0546251 31.7352927,75.3217449 C34.5044361,81.8329232 36.9796463,86.2239693 38.6575199,87.4994464 L38.3294768,88 C35.6314996,85.9448293 31.5255007,77.0068327 27.9595224,67.2867609 C26.7863364,66.3276434 13.94216,55.7042428 13.3617573,50.3905008 L13.9692444,50.3225243 C14.4501807,54.7466668 24.4795391,63.5415035 27.5384187,66.1283637 C24.4449751,57.5404791 21.8281613,48.5352546 21.0100198,43.2529767 C20.4103134,39.3942876 18.9782567,35.0938367 17.3561616,31.1099769 Z" id="Path" fill="#A5D6A7"></path>
                    </g>
                    <g id="section2-footer-tree-right-1" transform="translate(752.000000, 144.000000) rotate(4.000000) translate(-752.000000, -144.000000) translate(712.000000, 16.000000)">
                        <path d="M65.536,95.7680171 C63.936,87.4220896 71.104,82.411258 71.4026667,74.0817058 C71.728,65.2663539 61.8826667,58.8527079 61.6053333,50.0318977 C61.2053333,37.1227292 69.9466667,25.5181237 62.4213333,13.2748827 C54.8106667,0.87880597 37.1146667,-4.05014925 24.7893333,3.76085288 C17.92,8.11667377 13.2746667,16.0641365 12.176,24.5628998 C10.9013333,34.3880597 17.4133333,43.1597441 15.7333333,52.7447335 C14.4373333,60.1627292 7.968,65.5611087 7.33333333,73.2301919 C6.64533333,81.5269936 13.2266667,89.1851599 12.272,97.4546695 C11.6213333,103.115053 7.616,107.651002 4.832,112.585416 C-11.9413333,142.279232 17.8933333,177.169467 49.248,168.512409 C69.9413333,162.8029 84.9546667,138.174499 77.552,116.810235 C75.1626667,109.927164 67.952,104.310448 65.8186667,97.0562047 C65.7173333,96.6140725 65.6,96.193774 65.536,95.7680171 Z" id="Path" fill="#C8E6C9"></path>
                        <path d="M36.4697582,116.859252 C37.5387915,198.549639 41.904,255.394115 41.904,255.394115 L37.1413333,255.710704 L37.1413333,241.518806 C34.7363758,177.541215 34.1602884,129.181162 34.3694611,93.8297607 C31.8565591,90.9123305 24.0984777,81.4622337 23.328,75.1351812 L23.8613333,75.0696802 C24.5661048,80.8575764 31.5617608,89.6528751 34.3746066,92.9877691 C34.4220222,85.4683497 34.505005,78.5434887 34.6133333,72.1876333 C34.7667302,63.2131597 34.9707437,55.3718285 35.1965777,48.5906632 L35.0293333,48.7873774 C34.4373333,48.2797441 20.6293333,36.3039659 20.6293333,27.95258 L21.1626667,27.95258 C21.1626667,35.5558658 33.5678516,46.7660091 35.2092363,48.2123431 C36.0342635,23.670824 37.1413333,13.1602559 37.1413333,13.1602559 C36.650429,31.2332262 36.3805923,48.8635503 36.2808469,65.8383211 C40.1538043,63.1957545 53.277174,53.3684444 56.7146667,39.3006397 L57.248,39.4316418 C53.6595255,54.0648134 39.7799028,64.1481381 36.2770673,66.4956833 C36.179733,83.8045027 36.2589186,100.427484 36.4604165,116.138223 C38.8045677,113.943192 50.8305952,102.266357 54.048,90.7462687 L54.5813333,90.8936461 C52.704,97.629339 47.8666667,104.348657 44.1386667,108.797271 C41.7507127,111.647158 39.1893102,114.339841 36.4697582,116.859252 L36.4697582,116.859252 Z M33.9946667,146.891599 C31.1550006,144.118679 28.5085289,141.145667 26.0746667,137.994371 C20.8746667,131.209552 18.4266667,125.592836 18.8106667,121.307974 L19.344,121.3571 C18.464,131.275053 34.2026667,146.340299 34.3626667,146.465842 L33.9946667,146.891599 Z" id="Shape" fill="#A5D6A7"></path>
                    </g>
                    <g id="section-footer-tree" transform="translate(82.508587, 135.085235) rotate(-5.000000) translate(-82.508587, -135.085235) translate(22.508587, 5.085235)">
                        <path d="M68.8873926,188.128513 C68.8873926,188.128513 127.901579,174.415092 119.106195,159.22432 C110.310812,144.033549 90.7339903,155.525305 91.6986453,143.841831 C92.6633002,132.158357 121.671042,101.055055 107.087729,95.7884697 C92.5044159,90.5218844 73.3815498,108.362865 84.5375008,82.1652683 C87.3293257,75.6243273 104.874697,56.6894307 88.2485852,53.9715569 C71.6224731,51.2536831 74.4596936,55.5504048 78.4431512,29.6347452 C82.4266087,3.71908568 69.6023722,-6.38554049 59.1500519,4.0686877 C48.6977316,14.5229159 53.1464934,32.5330588 43.9425501,33.5818648 C34.7386069,34.6306709 8.14817653,26.11617 16.1945338,55.2571902 C24.2408911,84.3982103 49.1062914,97.773307 16.1037428,94.6156113 C-16.8988059,91.4579156 19.0317543,119.741847 26.7149474,125.797856 C34.3981404,131.853865 24.7742885,149.176082 15.5816942,150.224888 C6.38909983,151.273694 -12.4500442,169.644716 12.1770296,180.674096 C36.8041034,191.703476 50.7632282,192.515455 68.8873926,188.128513 Z" id="Path" fill="#C8E6C9"></path>
                        <path d="M52.4570428,156.320619 C52.4026873,188.030792 53.9645986,223.608098 58.7201481,259.366981 L54.0107133,260 C54.0107133,260 49.4667153,167.974876 50.5034527,138.290811 C50.5973378,135.600191 50.6946545,132.98266 50.7950824,130.436305 C48.0464462,128.949685 42.2034338,125.087712 34.4055944,116.092291 L35.2663778,115.369775 C42.4687004,123.748372 48.0330014,127.601725 50.8441274,129.204535 C51.7088316,107.692106 52.7958836,91.3304178 53.9066923,78.9343352 C49.5533902,76.7934264 32.6455284,67.6394992 26.8531469,52.2253157 L27.8941145,51.8327974 C33.3942421,66.4581985 49.2492605,75.3449948 54.0153425,77.7352087 C56.7457851,47.932814 59.5804196,41.8006431 59.5804196,41.8006431 C59.5804196,41.8006431 55.2180651,72.2931458 53.320309,117.326858 L75.6284224,71.4014642 L76.6472208,71.8937968 L53.2052364,120.153475 C53.0764079,123.433289 52.9610451,126.786514 52.8616831,130.207226 C52.8644983,130.208245 52.8663169,130.208883 52.8671329,130.209149 L52.8610875,130.22774 C52.6301273,138.184702 52.4857578,146.506702 52.459878,155.119208 C74.0516778,146.697763 87.8089469,118.994144 87.9425279,118.713826 L88.951049,119.210468 C88.8166536,119.503776 74.7464184,147.97298 52.4570428,156.320619 L52.4570428,156.320619 Z" id="Path" fill="#A5D6A7"></path>
                    </g>
                </g>
            </g>
        </g>
    </g>
</svg>