<?xml version="1.0" encoding="iso-8859-1"?>
<!-- Generator: Adobe Illustrator 19.0.0, SVG Export Plug-In . SVG Version: 6.00 Build 0)  -->
<svg version="1.1" id="Capa_1" xmlns="http://www.w3.org/2000/svg" xmlns:xlink="http://www.w3.org/1999/xlink" x="0px" y="0px"
	 viewBox="0 0 512 512" style="enable-background:new 0 0 512 512;" xml:space="preserve">
<path style="fill:#D59C6E;" d="M512,256c0-45.114-104.389-157.618-256-157.618S0,210.886,0,256s104.389,157.618,256,157.618
	S512,301.114,512,256z"/>
<g>
	<path style="fill:#F2DFA6;" d="M59.484,169.487v173.026c15.165,12.615,32.937,24.745,52.965,35.307V134.18
		C92.421,144.742,74.649,156.872,59.484,169.487z"/>
	<path style="fill:#F2DFA6;" d="M452.516,169.487v173.026c-15.165,12.615-32.937,24.745-52.965,35.307V134.18
		C419.579,144.742,437.351,156.872,452.516,169.487z"/>
	<path style="fill:#F2DFA6;" d="M342.968,289.497H169.032c-8.68,0-15.717-7.037-15.717-15.717c0-8.68,7.037-15.717,15.717-15.717
		h173.937c8.68,0,15.717,7.037,15.717,15.717C358.685,282.46,351.649,289.497,342.968,289.497z"/>
</g>
<path style="opacity:0.1;enable-background:new    ;" d="M358.135,277.846c-1.794,6.706-7.895,11.651-15.167,11.651h-5.809V256.7
	c0-6.006-3.372-11.222-8.323-13.867c1.178,2.204,1.85,4.72,1.85,7.394v39.27H278.19V256.7c0-6.006-3.372-11.222-8.323-13.867
	c1.178,2.204,1.85,4.72,1.85,7.394v39.27h-52.496V256.7c0-6.006-3.372-11.222-8.323-13.867c1.178,2.204,1.85,4.72,1.85,7.394v39.27
	h-43.717c-7.272,0-13.373-4.945-15.167-11.651c-0.348,1.299-0.55,2.657-0.55,4.065c0,8.68,7.037,15.717,15.717,15.717h43.702
	c-0.16,8.542-7.122,15.421-15.702,15.421c-2.674,0-5.189-0.672-7.394-1.85c2.646,4.952,7.861,8.323,13.867,8.323
	c8.68,0,15.717-7.037,15.717-15.717v-6.177h52.481c-0.16,8.542-7.122,15.421-15.702,15.421c-2.674,0-5.19-0.672-7.394-1.85
	c2.646,4.952,7.861,8.323,13.867,8.323c8.68,0,15.717-7.037,15.717-15.717v-6.177h52.481c-0.16,8.542-7.122,15.421-15.702,15.421
	c-2.674,0-5.19-0.672-7.394-1.85c2.646,4.952,7.861,8.323,13.867,8.323c8.68,0,15.717-7.037,15.717-15.717v-6.177h5.809
	c8.68,0,15.717-7.037,15.717-15.717C358.685,280.503,358.483,279.145,358.135,277.846z"/>
<g>
	<path style="fill:#F2DFA6;" d="M256,313.049c-8.68,0-15.717-7.037-15.717-15.717v-47.105c0-8.68,7.037-15.717,15.717-15.717
		s15.717,7.037,15.717,15.717v47.105C271.717,306.013,264.68,313.049,256,313.049z"/>
	<path style="fill:#F2DFA6;" d="M197.031,313.049c-8.68,0-15.717-7.037-15.717-15.717v-47.105c0-8.68,7.037-15.717,15.717-15.717
		s15.717,7.037,15.717,15.717v47.105C212.748,306.013,205.711,313.049,197.031,313.049z"/>
	<path style="fill:#F2DFA6;" d="M314.969,313.049c-8.68,0-15.717-7.037-15.717-15.717v-47.105c0-8.68,7.037-15.717,15.717-15.717
		c8.68,0,15.717,7.037,15.717,15.717v47.105C330.686,306.013,323.649,313.049,314.969,313.049z"/>
</g>
<g>
	<path style="fill:#394049;" d="M165.03,178.964c-4.142,0-7.5-3.357-7.5-7.5v-10.03c0-4.143,3.358-7.5,7.5-7.5s7.5,3.357,7.5,7.5
		v10.03C172.53,175.606,169.172,178.964,165.03,178.964z"/>
	<path style="fill:#394049;" d="M346.97,178.964c-4.143,0-7.5-3.357-7.5-7.5v-10.03c0-4.143,3.357-7.5,7.5-7.5s7.5,3.357,7.5,7.5
		v10.03C354.47,175.606,351.112,178.964,346.97,178.964z"/>
	<path style="fill:#394049;" d="M256,201.123c-11.021,0-21.011-6.52-25.449-16.608c-1.668-3.792,0.054-8.218,3.845-9.886
		c3.791-1.665,8.217,0.054,9.885,3.845c2.044,4.647,6.644,7.649,11.719,7.649c5.074,0,9.674-3.002,11.718-7.647
		c1.669-3.791,6.094-5.51,9.886-3.845c3.792,1.669,5.513,6.095,3.845,9.886C277.009,194.605,267.019,201.123,256,201.123z"/>
</g>
<path style="opacity:0.1;enable-background:new    ;" d="M437.38,157.717c26.567,26.502,41.384,53.057,41.384,70.051
	c0,45.114-104.389,157.618-256,157.618c-73.882,0-136.542-26.719-181.38-59.335C85.348,369.906,161.497,413.618,256,413.618
	c151.611,0,256-112.504,256-157.618C512,232.871,484.553,192.031,437.38,157.717z"/>
<g style="opacity:0.1;">
	<circle cx="190.82" cy="365.81" r="7.446"/>
	<circle cx="376.31" cy="316.14" r="7.446"/>
	<circle cx="376.31" cy="227.06" r="7.446"/>
	<circle cx="274.58" cy="126.73" r="7.446"/>
	<circle cx="33.938" cy="278.22" r="7.446"/>
	<circle cx="142.18" cy="234.51" r="7.446"/>
	<circle cx="322.42" cy="380.26" r="7.446"/>
	<circle cx="276.69" cy="359.33" r="7.446"/>
	<circle cx="477.74" cy="241.96" r="7.446"/>
	<circle cx="145.87" cy="325.52" r="7.446"/>
</g>
<g>
</g>
<g>
</g>
<g>
</g>
<g>
</g>
<g>
</g>
<g>
</g>
<g>
</g>
<g>
</g>
<g>
</g>
<g>
</g>
<g>
</g>
<g>
</g>
<g>
</g>
<g>
</g>
<g>
</g>
</svg>
