<?xml version="1.0" encoding="iso-8859-1"?>
<!-- Generator: Adobe Illustrator 19.0.0, SVG Export Plug-In . SVG Version: 6.00 Build 0)  -->
<svg version="1.1" id="Capa_1" xmlns="http://www.w3.org/2000/svg" xmlns:xlink="http://www.w3.org/1999/xlink" x="0px" y="0px"
	 viewBox="0 0 512 512" style="enable-background:new 0 0 512 512;" xml:space="preserve">
<path style="fill:#74CD80;" d="M269.752,175.816c-9.143,0.451-16.661-7.067-16.21-16.21c1.321-26.754,8.568-80.409,43.873-115.714
	C332.719,8.588,386.375,1.34,413.128,0.019c9.143-0.451,16.662,7.067,16.21,16.21c-1.321,26.754-8.568,80.409-43.873,115.714
	C350.161,167.248,296.506,174.495,269.752,175.816z"/>
<path style="opacity:0.15;enable-background:new    ;" d="M320.901,115.956c-1.919,0-3.839-0.732-5.304-2.197
	c-2.929-2.929-2.929-7.678,0-10.606l41.077-41.077c2.93-2.929,7.678-2.929,10.607,0c2.929,2.929,2.929,7.678,0,10.606
	l-41.077,41.077C324.74,115.224,322.82,115.956,320.901,115.956z"/>
<path style="opacity:0.1;enable-background:new    ;" d="M330.148,84.216c-23.799,0-46.021,6.743-64.865,18.421
	c-0.728,0.451-1.468,0.874-2.219,1.268c-6.639,21.555-8.851,42.104-9.522,55.701c-0.452,9.143,7.067,16.661,16.21,16.21
	c26.754-1.321,80.41-8.568,115.714-43.873c7.173-7.173,13.171-15.111,18.214-23.42C383.146,93.253,357.703,84.216,330.148,84.216z"
	/>
<path style="fill:#806761;" d="M258.988,178.398c-8.836,0-16-7.164-16-16c0-44.242-13.715-76.862-41.929-99.724
	c-6.866-5.563-7.921-15.639-2.358-22.504c5.563-6.866,15.639-7.92,22.504-2.358c35.687,28.919,53.782,70.836,53.782,124.586
	C274.988,171.235,267.825,178.398,258.988,178.398z"/>
<path style="opacity:0.1;enable-background:new    ;" d="M270.067,117.1c-10.667,4.526-23.005,3.691-33.044-2.53
	c-0.298-0.185-0.604-0.357-0.904-0.539c4.596,14.281,6.869,30.361,6.869,48.367c0,8.836,7.164,16,16,16c8.837,0,16-7.164,16-16
	C274.988,146.212,273.335,131.108,270.067,117.1z"/>
<path id="SVGCleanerId_0" style="fill:#DC5371;" d="M339.842,118.85c-23.799,0-46.021,6.743-64.865,18.421
	c-11.622,7.202-26.331,7.202-37.953,0c-18.844-11.677-41.066-18.421-64.866-18.421c-68.124,0-123.349,55.226-123.349,123.349
	c0,76.684,75.506,218.238,106.809,249.542l0.014-0.004C167.739,504.226,184.682,512,203.45,512c12.207,0,23.642-3.287,33.476-9.023
	c11.736-6.845,26.411-6.845,38.148,0c9.834,5.736,21.269,9.023,33.476,9.023c18.768,0,35.711-7.774,47.818-20.263l0.013,0.004
	c31.303-31.303,106.81-172.858,106.81-249.542C463.191,174.075,407.966,118.85,339.842,118.85z"/>
<g>
	<path id="SVGCleanerId_0_1_" style="fill:#DC5371;" d="M339.842,118.85c-23.799,0-46.021,6.743-64.865,18.421
		c-11.622,7.202-26.331,7.202-37.953,0c-18.844-11.677-41.066-18.421-64.866-18.421c-68.124,0-123.349,55.226-123.349,123.349
		c0,76.684,75.506,218.238,106.809,249.542l0.014-0.004C167.739,504.226,184.682,512,203.45,512c12.207,0,23.642-3.287,33.476-9.023
		c11.736-6.845,26.411-6.845,38.148,0c9.834,5.736,21.269,9.023,33.476,9.023c18.768,0,35.711-7.774,47.818-20.263l0.013,0.004
		c31.303-31.303,106.81-172.858,106.81-249.542C463.191,174.075,407.966,118.85,339.842,118.85z"/>
</g>
<path style="opacity:0.1;enable-background:new    ;" d="M371.829,123.047c31.324,22.851,51.684,59.833,51.684,101.575
	c0,78.119-76.919,222.321-108.808,254.21l-0.013-0.004c-12.139,12.523-29.056,20.375-47.816,20.619
	c2.833,0.845,5.591,2.008,8.199,3.529c9.834,5.736,21.269,9.023,33.476,9.023c18.768,0,35.711-7.774,47.818-20.263l0.013,0.004
	c31.303-31.303,106.81-172.857,106.81-249.542C463.191,185.139,424.444,137.137,371.829,123.047z"/>
<g>
	<path style="fill:#394049;" d="M160.487,232.128c-4.142,0-7.5-3.358-7.5-7.5v-10.532c0-4.142,3.358-7.5,7.5-7.5s7.5,3.358,7.5,7.5
		v10.532C167.987,228.77,164.629,232.128,160.487,232.128z"/>
	<path style="fill:#394049;" d="M351.513,232.128c-4.143,0-7.5-3.358-7.5-7.5v-10.532c0-4.142,3.357-7.5,7.5-7.5s7.5,3.358,7.5,7.5
		v10.532C359.013,228.77,355.655,232.128,351.513,232.128z"/>
	<path style="fill:#394049;" d="M256,255.393c-11.422,0-21.776-6.757-26.377-17.213c-1.668-3.792,0.053-8.217,3.844-9.885
		c3.791-1.669,8.217,0.053,9.885,3.844c2.207,5.014,7.171,8.254,12.648,8.254c5.477,0,10.44-3.239,12.645-8.253
		c1.669-3.79,6.096-5.514,9.886-3.844c3.791,1.668,5.513,6.094,3.845,9.885C277.775,248.637,267.422,255.393,256,255.393z"/>
</g>
<g>
</g>
<g>
</g>
<g>
</g>
<g>
</g>
<g>
</g>
<g>
</g>
<g>
</g>
<g>
</g>
<g>
</g>
<g>
</g>
<g>
</g>
<g>
</g>
<g>
</g>
<g>
</g>
<g>
</g>
</svg>
