<?xml version="1.0" encoding="iso-8859-1"?>
<!-- Generator: Adobe Illustrator 19.0.0, SVG Export Plug-In . SVG Version: 6.00 Build 0)  -->
<svg version="1.1" id="Capa_1" xmlns="http://www.w3.org/2000/svg" xmlns:xlink="http://www.w3.org/1999/xlink" x="0px" y="0px"
	 viewBox="0 0 512 512" style="enable-background:new 0 0 512 512;" xml:space="preserve">
<path style="fill:#4FBB74;" d="M342.515,61.297H314.29V33.246c0-2.768-2.253-5.021-5.021-5.021H202.731
	c-2.768,0-5.021,2.252-5.021,5.021v28.051h-28.225V33.246C169.485,14.914,184.399,0,202.731,0H309.27
	c18.331,0,33.246,14.914,33.246,33.246v28.051H342.515z"/>
<rect x="169.49" y="46.872" style="opacity:0.1;enable-background:new    ;" width="28.23" height="14.425"/>
<rect x="314.29" y="46.872" style="opacity:0.1;enable-background:new    ;" width="28.23" height="14.425"/>
<path style="fill:#507CDD;" d="M100.911,474.255H54.684c-6.558,0-11.875-5.316-11.875-11.875v-94.669h58.102
	C100.911,367.711,100.911,474.255,100.911,474.255z"/>
<rect x="42.809" y="367.71" style="opacity:0.1;enable-background:new    ;" width="42.34" height="17.958"/>
<path style="fill:#507CDD;" d="M100.911,324.565H41.493c-8.043,0-14.563,6.52-14.563,14.563v14.02
	c0,8.043,6.52,14.563,14.563,14.563h59.418C100.911,367.711,100.911,324.565,100.911,324.565z"/>
<rect x="67.27" y="324.56" style="opacity:0.1;enable-background:new    ;" width="17.881" height="149.69"/>
<path style="fill:#507CDD;" d="M411.089,474.255h46.227c6.558,0,11.875-5.316,11.875-11.875v-94.669h-58.102V474.255z"/>
<rect x="426.85" y="367.71" style="opacity:0.1;enable-background:new    ;" width="42.34" height="17.958"/>
<path style="fill:#507CDD;" d="M411.089,324.565h59.418c8.043,0,14.563,6.52,14.563,14.563v14.02c0,8.043-6.52,14.563-14.563,14.563
	h-59.418V324.565z"/>
<rect x="426.85" y="324.56" style="opacity:0.1;enable-background:new    ;" width="17.881" height="149.69"/>
<path style="fill:#507CDD;" d="M380.889,61.297H131.111c-25.384,0-45.962,20.578-45.962,45.962v367.886
	C85.149,495.5,101.65,512,122.004,512h267.992c20.355,0,36.855-16.501,36.855-36.855V107.259
	C426.851,81.875,406.273,61.297,380.889,61.297z"/>
<path style="fill:#4FBB74;" d="M389.996,264.037H122.004c-20.355,0-36.855,16.501-36.855,36.855v174.253
	C85.149,495.5,101.65,512,122.004,512h267.992c20.355,0,36.855-16.501,36.855-36.855V300.892
	C426.851,280.537,410.351,264.037,389.996,264.037z"/>
<path style="fill:#507CDD;" d="M352.839,322.204H159.161c-8.244,0-14.927,6.683-14.927,14.927v105.094
	c0,8.244,6.683,14.927,14.927,14.927h193.678c8.244,0,14.927-6.683,14.927-14.927V337.131
	C367.766,328.887,361.083,322.204,352.839,322.204z"/>
<path style="opacity:0.1;enable-background:new    ;" d="M352.839,322.204H159.161c-8.244,0-14.927,6.683-14.927,14.927v43.083
	c0,8.244,6.683,14.927,14.927,14.927h193.678c8.244,0,14.927-6.683,14.927-14.927v-43.083
	C367.766,328.887,361.083,322.204,352.839,322.204z"/>
<g>
	<path style="fill:#FFFFFF;" d="M277.267,371.606h-42.533c-4.142,0-7.5-3.358-7.5-7.5s3.358-7.5,7.5-7.5h42.533
		c4.142,0,7.5,3.358,7.5,7.5C284.767,368.249,281.409,371.606,277.267,371.606z"/>
	<path style="fill:#FFFFFF;" d="M349.599,113.661H162.401c-13.371,0-24.21,10.839-24.21,24.21v57.508
		c0,13.371,10.839,24.21,24.21,24.21h187.198c13.371,0,24.21-10.839,24.21-24.21v-57.508
		C373.809,124.5,362.969,113.661,349.599,113.661z"/>
</g>
<g>
	<path style="fill:#394049;" d="M191.534,169.828c-4.142,0-7.5-3.358-7.5-7.5v-7.108c0-4.142,3.358-7.5,7.5-7.5s7.5,3.358,7.5,7.5
		v7.108C199.034,166.47,195.676,169.828,191.534,169.828z"/>
	<path style="fill:#394049;" d="M320.466,169.828c-4.142,0-7.5-3.358-7.5-7.5v-7.108c0-4.142,3.358-7.5,7.5-7.5s7.5,3.358,7.5,7.5
		v7.108C327.966,166.47,324.608,169.828,320.466,169.828z"/>
	<path style="fill:#394049;" d="M256,185.531c-8.676,0-16.54-5.132-20.035-13.075c-1.668-3.791,0.054-8.217,3.845-9.885
		c3.79-1.667,8.217,0.053,9.885,3.845c1.1,2.499,3.574,4.115,6.304,4.115c2.729,0,5.204-1.615,6.304-4.115
		c1.668-3.792,6.093-5.514,9.886-3.844c3.791,1.668,5.512,6.095,3.844,9.886C272.539,180.399,264.675,185.531,256,185.531z"/>
</g>
<path style="fill:#4FBB74;" d="M85.149,240.715H68.054c-7.603,0-13.767-6.164-13.767-13.767v-83.946
	c0-7.604,6.164-13.767,13.767-13.767h17.095V240.715z"/>
<rect x="73.09" y="129.23" style="opacity:0.1;enable-background:new    ;" width="12.05" height="111.48"/>
<rect x="54.29" y="154.83" style="fill:#394049;" width="30.862" height="15"/>
<path style="fill:#4FBB74;" d="M426.851,240.715h17.095c7.603,0,13.767-6.164,13.767-13.767v-83.946
	c0-7.604-6.164-13.767-13.767-13.767h-17.095V240.715z"/>
<rect x="426.85" y="129.23" style="opacity:0.1;enable-background:new    ;" width="12.05" height="111.48"/>
<rect x="426.85" y="154.83" style="fill:#394049;" width="30.862" height="15"/>
<path style="opacity:0.1;enable-background:new    ;" d="M380.889,61.297h-30.862c25.384,0,45.962,20.578,45.962,45.962v367.886
	c0,20.355-16.501,36.855-36.855,36.855h30.862c20.355,0,36.855-16.501,36.855-36.855V107.259
	C426.851,81.875,406.273,61.297,380.889,61.297z"/>
<g>
</g>
<g>
</g>
<g>
</g>
<g>
</g>
<g>
</g>
<g>
</g>
<g>
</g>
<g>
</g>
<g>
</g>
<g>
</g>
<g>
</g>
<g>
</g>
<g>
</g>
<g>
</g>
<g>
</g>
</svg>
