<?xml version="1.0" encoding="iso-8859-1"?>
<!-- Generator: Adobe Illustrator 19.0.0, SVG Export Plug-In . SVG Version: 6.00 Build 0)  -->
<svg version="1.1" id="Capa_1" xmlns="http://www.w3.org/2000/svg" xmlns:xlink="http://www.w3.org/1999/xlink" x="0px" y="0px"
	 viewBox="0 0 512 512" style="enable-background:new 0 0 512 512;" xml:space="preserve">
<circle style="fill:#D59C6E;" cx="256" cy="256" r="256"/>
<path style="opacity:0.1;enable-background:new    ;" d="M170.001,14.828c72.085-5.681,146.116,19.032,201.253,74.169
	c99.974,99.974,99.974,262.065,0,362.039c-27.768,27.768-60.331,47.81-95.021,60.153c58.618-4.62,115.949-29.333,160.785-74.169
	c99.974-99.974,99.974-262.064,0-362.039C364.813,2.774,260.207-17.268,170.001,14.828z"/>
<path style="fill:#394049;" d="M431.998,218.568c25.903,3.867,51.84,1.625,76.222-6.459c-0.86-4.969-1.874-9.916-3.029-14.837
	c-22.652,7.81-46.827,10.065-70.978,6.459c-29.416-4.391-56.321-17.164-78.27-37.068l86.297-86.297
	c-1.711-1.813-3.446-3.612-5.22-5.386s-3.573-3.509-5.387-5.22l-86.297,86.297c-20.063-22.121-32.87-49.254-37.164-78.93
	c-3.412-23.574-1.058-47.873,6.595-70.309c-4.911-1.153-9.848-2.166-14.807-3.026c-7.927,24.164-10.293,50.207-6.634,75.484
	c4.762,32.903,19.029,62.965,41.391,87.401L256,245.393l-49.749-49.749l0,0L80.46,69.853c-1.869,1.655-3.705,3.353-5.479,5.127
	c-1.774,1.774-3.472,3.61-5.127,5.479L201.2,211.805l0,0L245.393,256l-78.717,78.717c-24.436-22.362-54.498-36.629-87.401-41.391
	c-25.277-3.659-51.32-1.292-75.484,6.634c0.86,4.959,1.872,9.896,3.026,14.807c22.436-7.653,46.735-10.007,70.309-6.595
	c29.676,4.294,56.809,17.101,78.93,37.164l-86.297,86.297c1.711,1.813,3.446,3.612,5.22,5.387c1.774,1.774,3.574,3.509,5.386,5.22
	l86.297-86.297c19.904,21.948,32.677,48.854,37.068,78.269c3.606,24.152,1.351,48.327-6.459,70.979
	c4.921,1.155,9.868,2.169,14.837,3.029c8.084-24.383,10.325-50.32,6.459-76.222c-4.869-32.617-19.099-62.428-41.285-86.674
	L256,266.607L431.633,442.24c1.813-1.711,3.612-3.446,5.387-5.22c1.774-1.774,3.509-3.574,5.22-5.387L266.607,256l78.717-78.717
	C369.57,199.469,399.381,213.698,431.998,218.568z"/>
<g style="opacity:0.1;">
	<circle cx="377.97" cy="314.3" r="7.507"/>
	<circle cx="422.31" cy="312.14" r="7.507"/>
	<circle cx="264.97" cy="458.86" r="7.507"/>
	<circle cx="62" cy="350.69" r="7.507"/>
	<circle cx="101.89" cy="358.36" r="7.507"/>
	<circle cx="70.41" cy="136.97" r="7.507"/>
	<circle cx="77.92" cy="195.8" r="7.507"/>
	<circle cx="274.59" cy="175.04" r="7.507"/>
	<circle cx="166.13" cy="294.12" r="7.507"/>
	<circle cx="180.92" cy="247.48" r="7.507"/>
	<circle cx="142.59" cy="210.81" r="7.507"/>
	<circle cx="154.54" cy="80.25" r="7.507"/>
	<circle cx="188.43" cy="123.81" r="7.507"/>
	<circle cx="221.29" cy="163.06" r="7.507"/>
	<circle cx="341.72" cy="42.664" r="7.507"/>
	<circle cx="355.33" cy="83.69" r="7.507"/>
	<circle cx="449.81" cy="150.76" r="7.507"/>
	<circle cx="271.01" cy="337.57" r="7.507"/>
	<circle cx="266.8" cy="388.42" r="7.507"/>
	<circle cx="150.63" cy="439.32" r="7.507"/>
	<circle cx="344.61" cy="421.79" r="7.507"/>
	<circle cx="379.35" cy="239.86" r="7.507"/>
	<circle cx="432.63" cy="358.34" r="7.507"/>
</g>
<g>
</g>
<g>
</g>
<g>
</g>
<g>
</g>
<g>
</g>
<g>
</g>
<g>
</g>
<g>
</g>
<g>
</g>
<g>
</g>
<g>
</g>
<g>
</g>
<g>
</g>
<g>
</g>
<g>
</g>
</svg>
