<?xml version="1.0" encoding="iso-8859-1"?>
<!-- Generator: Adobe Illustrator 19.0.0, SVG Export Plug-In . SVG Version: 6.00 Build 0)  -->
<svg version="1.1" id="Capa_1" xmlns="http://www.w3.org/2000/svg" xmlns:xlink="http://www.w3.org/1999/xlink" x="0px" y="0px"
	 viewBox="0 0 512.001 512.001" style="enable-background:new 0 0 512.001 512.001;" xml:space="preserve">
<path style="fill:#F2DFA6;" d="M13.737,395.06V111.785c0-10.494,8.507-19,19-19h446.525c10.494,0,19,8.507,19,19V395.06
	c0,10.494-8.507,19-19,19H32.738C22.244,414.061,13.737,405.554,13.737,395.06z"/>
<path style="fill:#4FBB74;" d="M456.312,124.989H55.688c-5.382,0-9.746,4.363-9.746,9.746V372.11c0,5.382,4.363,9.746,9.746,9.746
	h400.624c5.382,0,9.746-4.363,9.746-9.746V134.735C466.057,129.353,461.694,124.989,456.312,124.989z"/>
<g>
	<path style="fill:#FFFFFF;" d="M120.145,304.046c-20.825,0-37.767-16.942-37.767-37.767s16.942-37.767,37.767-37.767
		s37.767,16.942,37.767,37.767S140.97,304.046,120.145,304.046z M120.145,243.513c-12.554,0-22.767,10.213-22.767,22.767
		c0,12.554,10.213,22.767,22.767,22.767s22.767-10.213,22.767-22.767C142.912,253.726,132.699,243.513,120.145,243.513z"/>
	<path style="fill:#FFFFFF;" d="M150.412,305.613c-4.142,0-7.5-3.357-7.5-7.5v-62.101c0-4.143,3.358-7.5,7.5-7.5s7.5,3.357,7.5,7.5
		v62.101C157.912,302.256,154.554,305.613,150.412,305.613z"/>
	<path style="fill:#FFFFFF;" d="M266.879,347.206c-20.825,0-37.767-16.942-37.767-37.768c0-20.824,16.942-37.767,37.767-37.767
		c20.824,0,37.767,16.942,37.767,37.767C304.646,330.264,287.703,347.206,266.879,347.206z M266.879,286.672
		c-12.554,0-22.767,10.213-22.767,22.767s10.213,22.768,22.767,22.768c12.554,0,22.767-10.214,22.767-22.768
		C289.645,296.885,279.433,286.672,266.879,286.672z"/>
	<path style="fill:#FFFFFF;" d="M236.612,348.772c-4.142,0-7.5-3.357-7.5-7.5V249.31c0-4.143,3.358-7.5,7.5-7.5s7.5,3.357,7.5,7.5
		v91.963C244.112,345.415,240.754,348.772,236.612,348.772z"/>
	<path style="fill:#FFFFFF;" d="M380.874,317.326c-9.671,0-19.342-3.682-26.705-11.044c-7.133-7.134-11.062-16.618-11.062-26.706
		s3.929-19.572,11.063-26.705c14.725-14.726,38.684-14.725,53.41,0c2.929,2.93,2.929,7.678,0,10.607
		c-2.93,2.928-7.678,2.928-10.607,0c-8.874-8.877-23.32-8.877-32.196,0c-4.301,4.3-6.669,10.017-6.669,16.098
		s2.368,11.799,6.669,16.099c8.876,8.878,23.322,8.876,32.196,0c2.93-2.928,7.678-2.928,10.607,0c2.929,2.93,2.929,7.678,0,10.607
		C400.217,313.645,390.546,317.326,380.874,317.326z"/>
</g>
<g>
	<path style="fill:#394049;" d="M168.144,187.97c-4.142,0-7.5-3.357-7.5-7.5v-9.686c0-4.143,3.358-7.5,7.5-7.5s7.5,3.357,7.5,7.5
		v9.686C175.644,184.612,172.287,187.97,168.144,187.97z"/>
	<path style="fill:#394049;" d="M343.855,187.97c-4.143,0-7.5-3.357-7.5-7.5v-9.686c0-4.143,3.357-7.5,7.5-7.5
		c4.142,0,7.5,3.357,7.5,7.5v9.686C351.355,184.612,347.998,187.97,343.855,187.97z"/>
	<path style="fill:#394049;" d="M256,209.37c-10.745,0-20.484-6.355-24.813-16.192c-1.668-3.791,0.053-8.217,3.844-9.886
		c3.791-1.665,8.217,0.054,9.885,3.845c1.934,4.395,6.284,7.233,11.083,7.233s9.148-2.839,11.083-7.233
		c1.668-3.79,6.093-5.512,9.886-3.843c3.791,1.668,5.512,6.094,3.843,9.886C276.483,203.015,266.744,209.37,256,209.37z"/>
</g>
<path style="opacity:0.1;enable-background:new    ;" d="M479.262,92.785h-22.39c10.494,0,19,8.507,19,19v247.92H13.737v35.355
	c0,10.494,8.507,19,19,19h446.525c10.494,0,19-8.507,19-19V111.785C498.263,101.291,489.756,92.785,479.262,92.785z"/>
<path style="fill:#D59C6E;" d="M502.554,419.215H9.446c-5.217,0-9.446-4.229-9.446-9.446V391.3c0-5.217,4.229-9.446,9.446-9.446
	h493.109c5.217,0,9.446,4.229,9.446,9.446v18.469C512,414.987,507.771,419.215,502.554,419.215z"/>
<path style="opacity:0.1;enable-background:new    ;" d="M502.554,381.855h-33.516c5.217,0,9.446,4.229,9.446,9.446v18.469
	c0,5.217-4.229,9.446-9.446,9.446h33.516c5.217,0,9.446-4.229,9.446-9.446v-18.469C512,386.084,507.771,381.855,502.554,381.855z"/>
<path style="fill:#394049;" d="M189.171,337.555H85.657c-3.624,0-6.562,2.938-6.562,6.562v15.588h116.638v-15.588
	C195.733,340.493,192.795,337.555,189.171,337.555z"/>
<path style="fill:#EC8087;" d="M195.733,359.705H79.095v15.588c0,3.624,2.938,6.562,6.562,6.562h103.514
	c3.624,0,6.562-2.938,6.562-6.562L195.733,359.705L195.733,359.705z"/>
<path style="opacity:0.1;enable-background:new    ;" d="M189.171,337.555h-19.862c3.624,0,6.562,2.938,6.562,6.562v31.176
	c0,3.624-2.938,6.562-6.562,6.562h19.862c3.624,0,6.562-2.938,6.562-6.562v-31.176C195.733,340.493,192.795,337.555,189.171,337.555
	z"/>
<g>
</g>
<g>
</g>
<g>
</g>
<g>
</g>
<g>
</g>
<g>
</g>
<g>
</g>
<g>
</g>
<g>
</g>
<g>
</g>
<g>
</g>
<g>
</g>
<g>
</g>
<g>
</g>
<g>
</g>
</svg>
