<?xml version="1.0" encoding="iso-8859-1"?>
<!-- Generator: Adobe Illustrator 19.0.0, SVG Export Plug-In . SVG Version: 6.00 Build 0)  -->
<svg version="1.1" id="Capa_1" xmlns="http://www.w3.org/2000/svg" xmlns:xlink="http://www.w3.org/1999/xlink" x="0px" y="0px"
	 viewBox="0 0 512 512" style="enable-background:new 0 0 512 512;" xml:space="preserve">
<path style="fill:#5F666F;" d="M422.03,512H89.97c-18.307,0-33.148-14.841-33.148-33.148V33.148C56.822,14.841,71.663,0,89.97,0
	h332.06c18.307,0,33.148,14.841,33.148,33.148v445.704C455.177,497.159,440.337,512,422.03,512z"/>
<path style="fill:#394049;" d="M422.03,0H89.97C71.663,0,56.822,14.841,56.822,33.148v145.86h398.355V33.148
	C455.177,14.841,440.337,0,422.03,0z"/>
<g>
	<path style="fill:#FFFFFF;" d="M181.132,296.952h-74.868v-68.707c0-8.68,7.037-15.717,15.717-15.717h59.151L181.132,296.952
		L181.132,296.952z"/>
	<rect x="181.13" y="212.53" style="fill:#FFFFFF;" width="74.868" height="84.42"/>
	<rect x="256" y="212.53" style="fill:#FFFFFF;" width="74.868" height="84.42"/>
	<rect x="106.26" y="296.95" style="fill:#FFFFFF;" width="74.868" height="84.42"/>
	<rect x="181.13" y="296.95" style="fill:#FFFFFF;" width="74.868" height="84.42"/>
	<rect x="256" y="296.95" style="fill:#FFFFFF;" width="74.868" height="84.42"/>
	<path style="fill:#FFFFFF;" d="M181.132,465.801h-59.151c-8.68,0-15.717-7.037-15.717-15.717v-68.707h74.868L181.132,465.801
		L181.132,465.801z"/>
	<rect x="181.13" y="381.38" style="fill:#FFFFFF;" width="74.868" height="84.42"/>
	<rect x="256" y="381.38" style="fill:#FFFFFF;" width="74.868" height="84.42"/>
</g>
<rect x="181.13" y="212.53" style="opacity:0.1;enable-background:new    ;" width="74.868" height="84.42"/>
<rect x="106.26" y="296.95" style="opacity:0.1;enable-background:new    ;" width="74.868" height="84.42"/>
<rect x="256" y="296.95" style="opacity:0.1;enable-background:new    ;" width="74.868" height="84.42"/>
<rect x="181.13" y="381.38" style="opacity:0.1;enable-background:new    ;" width="74.868" height="84.42"/>
<path style="fill:#F4AC3B;" d="M330.868,296.952h74.868v153.131c0,8.68-7.037,15.717-15.717,15.717h-59.151V296.952z"/>
<g>
	<path style="fill:#FFFFFF;" d="M380.641,400.833h-24.678c-4.142,0-7.5-3.358-7.5-7.5s3.358-7.5,7.5-7.5h24.678
		c4.142,0,7.5,3.358,7.5,7.5S384.783,400.833,380.641,400.833z"/>
	<path style="fill:#FFFFFF;" d="M380.641,376.92h-24.678c-4.142,0-7.5-3.358-7.5-7.5s3.358-7.5,7.5-7.5h24.678
		c4.142,0,7.5,3.358,7.5,7.5S384.783,376.92,380.641,376.92z"/>
</g>
<path style="fill:#F4AC3B;" d="M330.868,296.952h74.868v-68.707c0-8.68-7.037-15.717-15.717-15.717h-59.151V296.952z"/>
<path style="opacity:0.1;enable-background:new    ;" d="M330.868,296.952h74.868v-68.707c0-8.68-7.037-15.717-15.717-15.717
	h-59.151V296.952z"/>
<path style="fill:#FFFFFF;" d="M394.11,145.488H117.89c-6.421,0-11.626-5.205-11.626-11.626V59.346
	c0-6.421,5.205-11.626,11.626-11.626h276.22c6.421,0,11.626,5.205,11.626,11.626v74.516
	C405.736,140.283,400.531,145.488,394.11,145.488z"/>
<g>
	<path style="fill:#394049;" d="M178.155,97.706c-4.142,0-7.5-3.358-7.5-7.5v-8.583c0-4.142,3.358-7.5,7.5-7.5s7.5,3.358,7.5,7.5
		v8.583C185.655,94.348,182.297,97.706,178.155,97.706z"/>
	<path style="fill:#394049;" d="M333.845,97.706c-4.142,0-7.5-3.358-7.5-7.5v-8.583c0-4.142,3.358-7.5,7.5-7.5s7.5,3.358,7.5,7.5
		v8.583C341.345,94.348,337.987,97.706,333.845,97.706z"/>
	<path style="fill:#394049;" d="M256,116.668c-9.859,0-18.796-5.832-22.768-14.858c-1.668-3.792,0.053-8.217,3.844-9.885
		c3.791-1.67,8.217,0.053,9.885,3.844c1.577,3.584,5.124,5.899,9.038,5.899c3.913,0,7.461-2.315,9.038-5.898
		c1.669-3.792,6.096-5.511,9.886-3.844c3.792,1.669,5.512,6.095,3.844,9.886C274.795,110.837,265.858,116.668,256,116.668z"/>
</g>
<path style="opacity:0.1;enable-background:new    ;" d="M422.03,0h-29.665c18.307,0,33.148,14.841,33.148,33.148v445.704
	c0,18.307-14.841,33.148-33.148,33.148h29.665c18.307,0,33.148-14.841,33.148-33.148V33.148C455.177,14.841,440.337,0,422.03,0z"/>
<path style="opacity:0.1;enable-background:new    ;" d="M390.019,212.528h-20.25c8.68,0,15.717,7.037,15.717,15.717v221.838
	c0,8.68-7.037,15.717-15.717,15.717h20.25c8.68,0,15.717-7.037,15.717-15.717V228.246
	C405.736,219.565,398.699,212.528,390.019,212.528z"/>
<g>
</g>
<g>
</g>
<g>
</g>
<g>
</g>
<g>
</g>
<g>
</g>
<g>
</g>
<g>
</g>
<g>
</g>
<g>
</g>
<g>
</g>
<g>
</g>
<g>
</g>
<g>
</g>
<g>
</g>
</svg>
