<?xml version="1.0" encoding="iso-8859-1"?>
<!-- Generator: Adobe Illustrator 19.0.0, SVG Export Plug-In . SVG Version: 6.00 Build 0)  -->
<svg version="1.1" id="Capa_1" xmlns="http://www.w3.org/2000/svg" xmlns:xlink="http://www.w3.org/1999/xlink" x="0px" y="0px"
	 viewBox="0 0 512 512" style="enable-background:new 0 0 512 512;" xml:space="preserve">
<circle style="fill:#394049;" cx="256" cy="256" r="256"/>
<circle style="fill:#FFFFFF;" cx="256" cy="256" r="218.94"/>
<path style="fill:#F2DFA6;" d="M274.903,339.097c-97.425-28.072-171.701-15.872-220.767,1.799
	C87.295,419.647,165.189,474.937,256,474.937c90.593,0,168.332-55.024,201.626-133.475
	C421.419,358.126,365.516,365.206,274.903,339.097z"/>
<g>
	<circle style="fill:#4FBB74;" cx="256" cy="78.875" r="17.937"/>
	<circle style="fill:#4FBB74;" cx="433.12" cy="256" r="17.937"/>
	<circle style="fill:#4FBB74;" cx="256" cy="433.12" r="17.937"/>
	<circle style="fill:#4FBB74;" cx="78.875" cy="256" r="17.937"/>
</g>
<path style="opacity:0.15;enable-background:new    ;" d="M354.141,283.313H256c-9.292,0-16.824-7.533-16.824-16.824
	s7.533-16.824,16.824-16.824h98.141c9.292,0,16.824,7.533,16.824,16.824S363.433,283.313,354.141,283.313z"/>
<path style="fill:#76C9D2;" d="M354.141,272.824H256c-9.292,0-16.824-7.533-16.824-16.824c0-9.292,7.533-16.824,16.824-16.824
	h98.141c9.292,0,16.824,7.533,16.824,16.824C370.966,265.292,363.433,272.824,354.141,272.824z"/>
<path style="opacity:0.15;enable-background:new    ;" d="M157.543,385.298c-4.306,0-8.611-1.643-11.896-4.928
	c-6.57-6.57-6.57-17.223,0-23.793l105.465-105.465c6.57-6.57,17.223-6.57,23.793,0s6.57,17.223,0,23.793L169.44,380.37
	C166.155,383.655,161.849,385.298,157.543,385.298z"/>
<path style="fill:#507CDD;" d="M150.535,378.29c-4.306,0-8.611-1.643-11.896-4.928c-6.57-6.57-6.57-17.223,0-23.793l105.465-105.465
	c6.57-6.57,17.223-6.57,23.793,0s6.57,17.223,0,23.793L162.431,373.362C159.146,376.647,154.84,378.29,150.535,378.29z"/>
<path style="opacity:0.15;enable-background:new    ;" d="M357.612,20.978c56.412,46.959,92.327,117.701,92.327,196.837
	c0,141.385-114.615,256-256,256c-36.107,0-70.46-7.49-101.612-20.978C136.7,489.775,193.752,512,256,512
	c141.385,0,256-114.615,256-256C512,150.722,448.443,60.302,357.612,20.978z"/>
<g>
</g>
<g>
</g>
<g>
</g>
<g>
</g>
<g>
</g>
<g>
</g>
<g>
</g>
<g>
</g>
<g>
</g>
<g>
</g>
<g>
</g>
<g>
</g>
<g>
</g>
<g>
</g>
<g>
</g>
</svg>
