<?xml version="1.0" encoding="iso-8859-1"?>
<!-- Generator: Adobe Illustrator 19.0.0, SVG Export Plug-In . SVG Version: 6.00 Build 0)  -->
<svg version="1.1" id="Capa_1" xmlns="http://www.w3.org/2000/svg" xmlns:xlink="http://www.w3.org/1999/xlink" x="0px" y="0px"
	 viewBox="0 0 512 512" style="enable-background:new 0 0 512 512;" xml:space="preserve">
<path style="fill:#D59C6E;" d="M393.59,185.406H118.41l26.723,314.329c0.59,6.935,6.391,12.264,13.351,12.264h195.031
	c6.96,0,12.762-5.329,13.351-12.264L393.59,185.406z"/>
<path style="opacity:0.1;enable-background:new    ;" d="M118.41,185.406l1.892,22.25h246.42l-13.369,157.245H133.67l5.65,66.461
	h208.382l-5.813,68.373C341.3,506.671,335.499,512,328.538,512h24.977c6.96,0,12.762-5.329,13.351-12.264l26.724-314.329
	L118.41,185.406L118.41,185.406z"/>
<path style="fill:#F2DFA6;" d="M411.137,124.86H100.863c-7.576,0-13.717,6.141-13.717,13.717v33.113
	c0,7.576,6.141,13.717,13.717,13.717h310.274c7.576,0,13.717-6.141,13.717-13.717v-33.113
	C424.853,131.001,418.712,124.86,411.137,124.86z"/>
<path style="opacity:0.1;enable-background:new    ;" d="M411.137,124.86h-30.85c7.576,0,13.717,6.141,13.717,13.717v33.113
	c0,7.576-6.141,13.717-13.717,13.717h30.85c7.576,0,13.717-6.141,13.717-13.717v-33.113
	C424.853,131.001,418.712,124.86,411.137,124.86z"/>
<g>
	<path style="fill:#F2DFA6;" d="M388.964,124.86H123.036V92.226c0-9.165,7.43-16.596,16.596-16.596h232.736
		c9.165,0,16.596,7.43,16.596,16.596V124.86z"/>
	<path style="fill:#F2DFA6;" d="M394.99,295.452H116.52c-6.141,0-10.929,5.321-10.282,11.428l9.085,85.823
		c0.557,5.26,4.993,9.251,10.283,9.251h260.829c5.313,0,9.762-4.027,10.289-9.314l8.556-85.823
		C405.886,300.731,401.106,295.452,394.99,295.452z"/>
</g>
<g>
	<path style="fill:#394049;" d="M162.548,246.683c-4.142,0-7.5-3.358-7.5-7.5v-10.304c0-4.142,3.358-7.5,7.5-7.5s7.5,3.358,7.5,7.5
		v10.304C170.048,243.325,166.69,246.683,162.548,246.683z"/>
	<path style="fill:#394049;" d="M349.452,246.683c-4.143,0-7.5-3.358-7.5-7.5v-10.304c0-4.142,3.357-7.5,7.5-7.5s7.5,3.358,7.5,7.5
		v10.304C356.952,243.325,353.595,246.683,349.452,246.683z"/>
	<path style="fill:#394049;" d="M256,269.447c-11.24,0-21.428-6.649-25.956-16.939c-1.668-3.792,0.053-8.217,3.844-9.885
		c3.792-1.669,8.217,0.053,9.885,3.844c2.133,4.848,6.932,7.98,12.226,7.98c5.294,0,10.092-3.132,12.226-7.979
		c1.668-3.791,6.091-5.513,9.886-3.844c3.791,1.668,5.512,6.095,3.843,9.886C277.427,262.799,267.239,269.447,256,269.447z"/>
</g>
<path style="opacity:0.1;enable-background:new    ;" d="M394.99,295.452H324.1c-8.704,0-15.759,7.056-15.759,15.759v74.984
	c0,8.704,7.056,15.76,15.759,15.76h62.334c5.313,0,9.762-4.027,10.289-9.314l8.555-85.823
	C405.885,300.731,401.106,295.452,394.99,295.452z"/>
<path style="opacity:0.1;enable-background:new    ;" d="M372.368,75.631h-21.436c9.165,0,16.596,7.43,16.596,16.596v13.062H123.036
	v19.572h265.927V92.226C388.964,83.061,381.533,75.631,372.368,75.631z"/>
<path style="fill:#5F666F;" d="M342.658,75.631H308.34l15.687-69.143C324.889,2.693,328.261,0,332.152,0h20.976
	c3.427,0,5.967,3.181,5.209,6.523L342.658,75.631z"/>
<path style="opacity:0.1;enable-background:new    ;" d="M353.128,0h-10.797c3.427,0,5.967,3.181,5.209,6.523l-11.402,50.255
	h-23.521l-4.277,18.853h34.318l15.679-69.108C359.096,3.181,356.555,0,353.128,0z"/>
<g>
</g>
<g>
</g>
<g>
</g>
<g>
</g>
<g>
</g>
<g>
</g>
<g>
</g>
<g>
</g>
<g>
</g>
<g>
</g>
<g>
</g>
<g>
</g>
<g>
</g>
<g>
</g>
<g>
</g>
</svg>
