<?xml version="1.0" encoding="iso-8859-1"?>
<!-- Generator: Adobe Illustrator 19.0.0, SVG Export Plug-In . SVG Version: 6.00 Build 0)  -->
<svg version="1.1" id="Capa_1" xmlns="http://www.w3.org/2000/svg" xmlns:xlink="http://www.w3.org/1999/xlink" x="0px" y="0px"
	 viewBox="0 0 512 512" style="enable-background:new 0 0 512 512;" xml:space="preserve">
<path style="fill:#FFFFFF;" d="M256,0C114.615,0,0,114.615,0,256s114.615,256,256,256s256-114.615,256-256S397.385,0,256,0z
	 M256,293.992c-20.982,0-37.992-17.009-37.992-37.992c0-20.982,17.01-37.992,37.992-37.992s37.992,17.009,37.992,37.992
	C293.992,276.982,276.982,293.992,256,293.992z"/>
<path style="opacity:0.1;enable-background:new    ;" d="M256,0C114.615,0,0,114.615,0,256s114.615,256,256,256s256-114.615,256-256
	S397.385,0,256,0z M256,293.992c-20.982,0-37.992-17.009-37.992-37.992c0-20.982,17.01-37.992,37.992-37.992
	s37.992,17.009,37.992,37.992C293.992,276.982,276.982,293.992,256,293.992z"/>
<path style="opacity:0.5;fill:#FFFFFF;enable-background:new    ;" d="M226.43,279.843L56.722,416.684
	c24.779,30.692,56.495,55.544,92.775,72.165l90.701-198.301C234.814,288.081,230.107,284.398,226.43,279.843z"/>
<path style="opacity:0.1;enable-background:new    ;" d="M366.552,25.042c58.561,46.915,96.073,119.015,96.073,199.888
	c0,141.385-114.615,256-256,256c-39.594,0-77.086-8.993-110.552-25.042C139.891,490.991,195.488,512,256,512
	c141.385,0,256-114.615,256-256C512,154.209,452.588,66.299,366.552,25.042z"/>
<path style="fill:#5F666F;" d="M256,152.488c-57.168,0-103.512,46.344-103.512,103.512S198.832,359.512,256,359.512
	S359.512,313.168,359.512,256S313.168,152.488,256,152.488z M256,293.992c-20.982,0-37.992-17.009-37.992-37.992
	c0-20.982,17.01-37.992,37.992-37.992s37.992,17.009,37.992,37.992C293.992,276.982,276.982,293.992,256,293.992z"/>
<g>
	<path style="fill:#76C9D2;" d="M95.116,225.509c-0.569,0-1.146-0.065-1.724-0.201c-4.032-0.948-6.532-4.986-5.584-9.018
		c3.301-14.034,8.374-27.632,15.079-40.417c1.923-3.669,6.456-5.083,10.125-3.159c3.668,1.924,5.083,6.457,3.159,10.125
		c-6.119,11.669-10.749,24.079-13.761,36.886C101.598,223.179,98.518,225.509,95.116,225.509z"/>
	<path style="fill:#76C9D2;" d="M376.537,441.657c-2.404,0-4.765-1.153-6.215-3.293c-2.324-3.429-1.429-8.092,1.999-10.416
		c25.785-17.479,47.675-40.939,63.303-67.844c2.081-3.582,6.67-4.799,10.253-2.718c3.581,2.081,4.799,6.671,2.718,10.253
		c-16.753,28.842-40.218,53.99-67.857,72.726C379.449,441.238,377.985,441.657,376.537,441.657z"/>
</g>
<g>
	<path style="fill:#507CDD;" d="M256,478.576c-81.195,0-155.97-44.236-195.143-115.445C42.91,330.508,33.424,293.463,33.424,256
		c0-4.142,3.358-7.5,7.5-7.5s7.5,3.358,7.5,7.5c0,34.942,8.844,69.487,25.576,99.901c36.536,66.417,106.275,107.675,182,107.675
		c4.142,0,7.5,3.358,7.5,7.5S260.142,478.576,256,478.576z"/>
	<path style="fill:#507CDD;" d="M471.076,263.5c-4.142,0-7.5-3.358-7.5-7.5c0-28.026-5.487-55.21-16.31-80.795
		c-1.613-3.815,0.171-8.216,3.986-9.83c3.816-1.614,8.215,0.171,9.83,3.986c11.608,27.445,17.494,56.594,17.494,86.639
		C478.576,260.142,475.218,263.5,471.076,263.5z"/>
</g>
<g>
</g>
<g>
</g>
<g>
</g>
<g>
</g>
<g>
</g>
<g>
</g>
<g>
</g>
<g>
</g>
<g>
</g>
<g>
</g>
<g>
</g>
<g>
</g>
<g>
</g>
<g>
</g>
<g>
</g>
</svg>
