<?xml version="1.0" encoding="iso-8859-1"?>
<!-- Generator: Adobe Illustrator 19.0.0, SVG Export Plug-In . SVG Version: 6.00 Build 0)  -->
<svg version="1.1" id="Capa_1" xmlns="http://www.w3.org/2000/svg" xmlns:xlink="http://www.w3.org/1999/xlink" x="0px" y="0px"
	 viewBox="0 0 512 512" style="enable-background:new 0 0 512 512;" xml:space="preserve">
<rect x="241.45" y="47.13" style="fill:#5F666F;" width="29.1" height="56.62"/>
<polygon style="opacity:0.1;enable-background:new    ;" points="241.449,47.131 241.449,61.886 259.014,61.886 259.014,103.746 
	270.551,103.746 270.551,47.131 "/>
<path style="fill:#394049;" d="M364.095,512c-4.143,0-7.5-3.357-7.5-7.5V442c0-4.143,3.357-7.5,7.5-7.5s7.5,3.357,7.5,7.5v62.5
	C371.595,508.643,368.237,512,364.095,512z"/>
<path style="fill:#5F666F;" d="M362.215,484.553L362.215,484.553c-7.1,1.252-13.899-3.398-15.306-10.469l-59.97-302.549
	l54.418-9.595l43.453,291.087C387.101,467.931,377.065,481.935,362.215,484.553z"/>
<path style="fill:#76C9D2;" d="M384.81,453.027l-9.772-65.464h-45.279l17.15,86.521c1.408,7.07,8.207,11.721,15.306,10.469
	C377.065,481.935,387.101,467.931,384.81,453.027z"/>
<path style="fill:#394049;" d="M147.905,512c-4.143,0-7.5-3.357-7.5-7.5V442c0-4.143,3.357-7.5,7.5-7.5s7.5,3.357,7.5,7.5v62.5
	C155.405,508.643,152.048,512,147.905,512z"/>
<path style="fill:#5F666F;" d="M149.786,484.553L149.786,484.553c7.1,1.252,13.899-3.398,15.306-10.469l59.97-302.549l-54.418-9.595
	L127.19,453.027C124.899,467.931,134.936,481.935,149.786,484.553z"/>
<path style="fill:#76C9D2;" d="M136.963,387.563l-9.772,65.464c-2.291,14.904,7.745,28.908,22.595,31.526
	c7.1,1.252,13.899-3.398,15.306-10.469l17.15-86.521H136.963z"/>
<path style="opacity:0.1;enable-background:new    ;" d="M218.669,170.409l-48.026-8.468l-9.685,64.877
	c6.434,14.454,16.07,27.166,28.004,37.241l-41.631,210.026c-0.663,3.33-2.53,6.111-5.053,8.003c2.318,1.148,4.832,1.994,7.506,2.465
	c7.1,1.252,13.899-3.398,15.306-10.469l59.97-302.548L218.669,170.409z"/>
<path style="opacity:0.1;enable-background:new    ;" d="M384.81,453.027L341.357,161.94l-7.329,1.292l-47.09,8.303l20.5,103.425
	c12.759-7.277,23.82-17.18,32.461-28.971l30.906,207.037c2.009,13.066-5.458,25.439-17.336,30.056c2.57,1.43,5.628,2.019,8.745,1.47
	C377.065,481.935,387.101,467.931,384.81,453.027z"/>
<circle style="fill:#DC5371;" cx="256" cy="174.84" r="87.09"/>
<path style="opacity:0.1;enable-background:new    ;" d="M304.488,102.489c13.519,15.345,21.736,35.474,21.736,57.533
	c0,48.099-38.992,87.091-87.091,87.091c-17.95,0-34.628-5.435-48.487-14.742c15.959,18.115,39.314,29.558,65.354,29.558
	c48.099,0,87.091-38.992,87.091-87.091C343.091,144.689,327.767,118.122,304.488,102.489z"/>
<path style="fill:#394049;" d="M286.569,0h-61.137c-3.294,0-5.964,2.67-5.964,5.964v35.202c0,3.294,2.67,5.964,5.964,5.964h61.137
	c3.294,0,5.964-2.67,5.964-5.964V5.964C292.533,2.67,289.862,0,286.569,0z"/>
<path style="opacity:0.15;enable-background:new    ;" d="M286.568,0h-19.106c3.294,0,5.964,2.67,5.964,5.964v35.202
	c0,3.294-2.67,5.964-5.964,5.964h19.106c3.294,0,5.965-2.67,5.965-5.964V5.964C292.533,2.67,289.863,0,286.568,0z"/>
<g>
	<path style="fill:#394049;" d="M198.623,174.23c-4.143,0-7.5-3.357-7.5-7.5v-6.327c0-4.143,3.357-7.5,7.5-7.5s7.5,3.357,7.5,7.5
		v6.327C206.123,170.872,202.766,174.23,198.623,174.23z"/>
	<path style="fill:#394049;" d="M313.377,174.23c-4.143,0-7.5-3.357-7.5-7.5v-6.327c0-4.143,3.357-7.5,7.5-7.5
		c4.142,0,7.5,3.357,7.5,7.5v6.327C320.877,170.872,317.52,174.23,313.377,174.23z"/>
	<path style="fill:#394049;" d="M256,188.205c-8.049,0-15.344-4.761-18.586-12.129c-1.669-3.791,0.052-8.217,3.844-9.885
		c3.791-1.67,8.218,0.051,9.885,3.844c0.848,1.926,2.755,3.17,4.857,3.17c2.103,0,4.009-1.244,4.856-3.17
		c1.668-3.792,6.095-5.509,9.886-3.843c3.791,1.669,5.512,6.095,3.843,9.886C271.343,183.445,264.048,188.205,256,188.205z"/>
</g>
<g>
</g>
<g>
</g>
<g>
</g>
<g>
</g>
<g>
</g>
<g>
</g>
<g>
</g>
<g>
</g>
<g>
</g>
<g>
</g>
<g>
</g>
<g>
</g>
<g>
</g>
<g>
</g>
<g>
</g>
</svg>
