<?xml version="1.0" encoding="iso-8859-1"?>
<!-- Generator: Adobe Illustrator 19.0.0, SVG Export Plug-In . SVG Version: 6.00 Build 0)  -->
<svg version="1.1" id="Capa_1" xmlns="http://www.w3.org/2000/svg" xmlns:xlink="http://www.w3.org/1999/xlink" x="0px" y="0px"
	 viewBox="0 0 512 512" style="enable-background:new 0 0 512 512;" xml:space="preserve">
<path style="fill:#F4AC3B;" d="M355.207,452.386l97.179-97.179l58.66,127.84c1.825,3.978,0.983,8.671-2.112,11.766l-14.121,14.121
	c-3.095,3.095-7.788,3.937-11.766,2.112L355.207,452.386z"/>
<path style="opacity:0.15;enable-background:new    ;" d="M511.046,483.047l-58.66-127.841l-97.179,97.179l23.811,10.925
	l70.593-70.593l40.53,88.328c1.825,3.978,0.983,8.671-2.112,11.766l-14.065,14.065l9.085,4.169
	c3.978,1.825,8.671,0.983,11.766-2.112l14.121-14.121C512.029,491.719,512.871,487.025,511.046,483.047z"/>
<path style="fill:#F4AC3B;" d="M351.13,456.463L456.463,351.13c7.453-7.454,7.453-19.538,0-26.992L137.916,5.59
	c-7.454-7.453-19.538-7.453-26.992,0L5.59,110.924c-7.453,7.453-7.453,19.538,0,26.992l318.548,318.548
	C331.592,463.917,343.676,463.917,351.13,456.463z"/>
<rect x="137.462" y="15.505" transform="matrix(0.7071 -0.7071 0.7071 0.7071 -95.6979 231.0314)" style="opacity:0.5;fill:#FFFFFF;enable-background:new    ;" width="187.138" height="431.056"/>
<rect x="73.128" y="-1.69" transform="matrix(-0.7071 -0.7071 0.7071 -0.7071 91.8769 221.8139)" style="fill:#394049;" width="37.5" height="187.138"/>
<ellipse transform="matrix(0.7071 -0.7071 0.7071 0.7071 -95.6975 231.0305)" style="fill:#F4AC3B;" cx="231.03" cy="231.032" rx="69.649" ry="140.299"/>
<rect x="351.42" y="276.595" transform="matrix(-0.7071 -0.7071 0.7071 -0.7071 370.1737 893.6594)" style="fill:#394049;" width="37.5" height="187.138"/>
<path style="opacity:0.1;enable-background:new    ;" d="M456.463,324.138L137.916,5.59c-7.454-7.453-19.538-7.453-26.992,0
	l-2.83,2.83l306.102,306.102c7.454,7.454,7.454,19.538,0,26.992L311.692,444.018l12.446,12.446c7.454,7.454,19.538,7.454,26.992,0
	L456.463,351.13C463.917,343.676,463.917,331.592,456.463,324.138z"/>
<g>
</g>
<g>
</g>
<g>
</g>
<g>
</g>
<g>
</g>
<g>
</g>
<g>
</g>
<g>
</g>
<g>
</g>
<g>
</g>
<g>
</g>
<g>
</g>
<g>
</g>
<g>
</g>
<g>
</g>
</svg>
