<?xml version="1.0" encoding="iso-8859-1"?>
<!-- Generator: Adobe Illustrator 19.0.0, SVG Export Plug-In . SVG Version: 6.00 Build 0)  -->
<svg version="1.1" id="Capa_1" xmlns="http://www.w3.org/2000/svg" xmlns:xlink="http://www.w3.org/1999/xlink" x="0px" y="0px"
	 viewBox="0 0 512.001 512.001" style="enable-background:new 0 0 512.001 512.001;" xml:space="preserve">
<path style="fill:#D59C6E;" d="M0,400.322V88.039c0-15.494,12.56-28.054,28.055-28.054h455.891c15.494,0,28.055,12.56,28.055,28.054
	v312.283c0,15.494-12.56,28.055-28.055,28.055H28.055C12.56,428.377,0,415.816,0,400.322z"/>
<path style="opacity:0.1;enable-background:new    ;" d="M490.834,60.84c0.556,2.204,0.855,4.511,0.855,6.889v312.283
	c0,15.494-12.56,28.054-28.055,28.054H7.744c-2.377,0-4.684-0.298-6.889-0.855c3.071,12.163,14.083,21.166,27.2,21.166h455.891
	c15.494,0,28.055-12.56,28.055-28.055V88.04C512,74.923,502.997,63.911,490.834,60.84z"/>
<path style="fill:#FFFFFF;" d="M461.532,93.306H50.468c-9.47,0-17.147,7.677-17.147,17.147v267.455
	c0,9.47,7.677,17.147,17.147,17.147h411.064c9.47,0,17.147-7.677,17.147-17.147V110.453
	C478.679,100.983,471.002,93.306,461.532,93.306z"/>
<path style="fill:#4FBB74;" d="M409.54,375.556H102.46c-11.881,0-21.546-9.666-21.546-21.547c0-3.61-2.937-6.547-6.547-6.547
	c-11.881,0-21.547-9.665-21.547-21.546V162.445c0-11.881,9.666-21.546,21.547-21.546c3.61,0,6.547-2.937,6.547-6.547
	c0-11.881,9.665-21.547,21.546-21.547h307.08c11.881,0,21.546,9.666,21.546,21.547c0,3.61,2.937,6.547,6.547,6.547
	c11.881,0,21.547,9.665,21.547,21.546v163.471c0,11.881-9.666,21.546-21.547,21.546c-3.61,0-6.547,2.936-6.547,6.547
	C431.086,365.89,421.421,375.556,409.54,375.556z M102.46,127.806c-3.609,0-6.546,2.937-6.546,6.547
	c0,11.881-9.666,21.547-21.547,21.547c-3.61,0-6.547,2.936-6.547,6.546v163.471c0,3.609,2.937,6.546,6.547,6.546
	c11.881,0,21.547,9.666,21.547,21.547c0,3.61,2.937,6.547,6.546,6.547h307.08c3.609,0,6.546-2.937,6.546-6.547
	c0-11.881,9.666-21.547,21.547-21.547c3.61,0,6.547-2.936,6.547-6.546V162.445c0-3.609-2.936-6.546-6.547-6.546
	c-11.881,0-21.547-9.666-21.547-21.547c0-3.61-2.936-6.547-6.546-6.547L102.46,127.806L102.46,127.806z"/>
<g>
	<path style="fill:#394049;" d="M344.439,227.57H167.561c-4.8,0-8.691,3.891-8.691,8.692v12.697c0,4.8,3.891,8.691,8.691,8.691
		h176.878c4.8,0,8.692-3.891,8.692-8.691v-12.697C353.131,231.461,349.239,227.57,344.439,227.57z"/>
	<path style="fill:#394049;" d="M303.543,290.862h-95.086c-4.143,0-7.5-3.357-7.5-7.5s3.357-7.5,7.5-7.5h95.086
		c4.142,0,7.5,3.357,7.5,7.5S307.685,290.862,303.543,290.862z"/>
</g>
<path style="opacity:0.1;enable-background:new    ;" d="M469.037,93.306h-16.39v266.075c0,5.325-4.317,9.643-9.643,9.643H33.321
	v16.39c0,5.325,4.317,9.643,9.643,9.643h426.073c5.326,0,9.643-4.317,9.643-9.643V102.949
	C478.679,97.623,474.362,93.306,469.037,93.306z"/>
<path style="fill:#76C9D2;" d="M411.671,372.634h-63.469v74.794c0,3.496,3.759,5.703,6.812,4l20.619-11.506
	c2.675-1.493,5.932-1.493,8.607,0l20.619,11.506c3.053,1.704,6.812-0.503,6.812-4V372.634z"/>
<path style="opacity:0.1;enable-background:new    ;" d="M348.202,372.634v25.659c8.555,7.27,19.629,11.664,31.734,11.664
	c12.106,0,23.18-4.395,31.735-11.664v-25.659H348.202z"/>
<circle style="fill:#507CDD;" cx="379.94" cy="344.14" r="49.05"/>
<circle style="fill:#F6D83E;" cx="379.94" cy="344.14" r="25.515"/>
<g>
	<path style="fill:#394049;" d="M167.143,175.436c-4.143,0-7.5-3.357-7.5-7.5v-9.798c0-4.143,3.357-7.5,7.5-7.5s7.5,3.357,7.5,7.5
		v9.798C174.643,172.079,171.285,175.436,167.143,175.436z"/>
	<path style="fill:#394049;" d="M344.857,175.436c-4.143,0-7.5-3.357-7.5-7.5v-9.798c0-4.143,3.357-7.5,7.5-7.5s7.5,3.357,7.5,7.5
		v9.798C352.357,172.079,349,175.436,344.857,175.436z"/>
	<path style="fill:#394049;" d="M256,197.081c-10.833,0-20.653-6.408-25.018-16.326c-1.668-3.791,0.054-8.217,3.845-9.886
		c3.792-1.666,8.217,0.054,9.886,3.845c1.969,4.476,6.399,7.367,11.287,7.367s9.317-2.892,11.286-7.366
		c1.669-3.791,6.095-5.51,9.886-3.845c3.791,1.669,5.513,6.095,3.845,9.886C276.652,190.673,266.833,197.081,256,197.081z"/>
</g>
<g>
</g>
<g>
</g>
<g>
</g>
<g>
</g>
<g>
</g>
<g>
</g>
<g>
</g>
<g>
</g>
<g>
</g>
<g>
</g>
<g>
</g>
<g>
</g>
<g>
</g>
<g>
</g>
<g>
</g>
</svg>
