<?xml version="1.0" encoding="iso-8859-1"?>
<!-- Generator: Adobe Illustrator 19.0.0, SVG Export Plug-In . SVG Version: 6.00 Build 0)  -->
<svg version="1.1" id="Capa_1" xmlns="http://www.w3.org/2000/svg" xmlns:xlink="http://www.w3.org/1999/xlink" x="0px" y="0px"
	 viewBox="0 0 512 512" style="enable-background:new 0 0 512 512;" xml:space="preserve">
<path style="fill:#507CDD;" d="M162.003,322.496L7.875,168.368c-10.5-10.5-10.5-27.525,0-38.025L116.116,22.102
	c10.5-10.5,27.525-10.5,38.025,0L308.269,176.23L162.003,322.496z"/>
<path style="opacity:0.15;enable-background:new    ;" d="M46.982,207.474L7.875,168.368c-10.5-10.5-10.5-27.525,0-38.025
	L116.116,22.102c10.5-10.5,27.525-10.5,38.025,0l39.107,39.107c10.5,10.5,10.5,27.525,0,38.025L85.007,207.474
	C74.507,217.975,57.482,217.975,46.982,207.474z"/>
<path style="fill:#EC8087;" d="M504.125,372.085L308.269,176.23L162.003,322.496l167.778,167.778h94.181l80.163-80.163
	C514.625,399.61,514.625,382.586,504.125,372.085z"/>
<g>
	<path style="fill:#FFFFFF;" d="M179.284,247.812c-1.919,0-3.839-0.732-5.303-2.197l-35.504-35.504
		c-2.929-2.929-2.929-7.678,0-10.606c2.929-2.929,7.678-2.929,10.606,0l35.504,35.504c2.929,2.929,2.929,7.678,0,10.606
		C183.123,247.079,181.203,247.812,179.284,247.812z"/>
	<path style="fill:#FFFFFF;" d="M191.187,212.309l-19.405-19.405c-4.446-4.446-4.446-11.654,0-16.099l21.875-21.875
		c4.446-4.446,11.654-4.446,16.099,0l19.405,19.405c4.446,4.446,4.446,11.654,0,16.099l-21.876,21.876
		C202.841,216.755,195.633,216.755,191.187,212.309z"/>
</g>
<g>
	<path style="fill:#5F666F;" d="M423.962,497.773H256c-4.142,0-7.5-3.358-7.5-7.5s3.358-7.5,7.5-7.5h167.962
		c4.142,0,7.5,3.358,7.5,7.5C431.462,494.416,428.104,497.773,423.962,497.773z"/>
	<path style="fill:#5F666F;" d="M216.182,497.773h-37.815c-4.142,0-7.5-3.358-7.5-7.5s3.358-7.5,7.5-7.5h37.815
		c4.142,0,7.5,3.358,7.5,7.5C223.682,494.416,220.324,497.773,216.182,497.773z"/>
</g>
<g style="opacity:0.1;">
	<circle cx="366.83" cy="276.97" r="7.41"/>
	<circle cx="233.75" cy="340.6" r="7.41"/>
	<circle cx="170.96" cy="276.97" r="7.41"/>
	<circle cx="216.18" cy="122.91" r="7.41"/>
	<circle cx="366.83" cy="435.89" r="7.41"/>
</g>
<path style="opacity:0.1;enable-background:new    ;" d="M504.125,372.085L308.27,176.23L193.248,61.209
	c10.5,10.5,10.5,27.525,0,38.025l-2.098,2.099l79.898,79.898l195.855,195.855c10.5,10.501,10.5,27.525,0,38.025l-75.163,75.163
	h32.222l80.163-80.163C514.625,399.61,514.625,382.586,504.125,372.085z"/>
<g>
</g>
<g>
</g>
<g>
</g>
<g>
</g>
<g>
</g>
<g>
</g>
<g>
</g>
<g>
</g>
<g>
</g>
<g>
</g>
<g>
</g>
<g>
</g>
<g>
</g>
<g>
</g>
<g>
</g>
</svg>
