<?xml version="1.0" encoding="iso-8859-1"?>
<!-- Generator: Adobe Illustrator 19.0.0, SVG Export Plug-In . SVG Version: 6.00 Build 0)  -->
<svg version="1.1" id="Capa_1" xmlns="http://www.w3.org/2000/svg" xmlns:xlink="http://www.w3.org/1999/xlink" x="0px" y="0px"
	 viewBox="0 0 512 512" style="enable-background:new 0 0 512 512;" xml:space="preserve">
<path style="fill:#394049;" d="M124.661,331.532H92.859v-196.34c0-44.686,36.354-81.04,81.04-81.04h65.698v31.802h-65.698
	c-27.15,0-49.238,22.088-49.238,49.237V331.532z"/>
<rect x="92.86" y="285.95" style="opacity:0.15;enable-background:new    ;" width="31.802" height="19.315"/>
<rect x="212.78" y="54.15" style="opacity:0.15;enable-background:new    ;" width="21.497" height="31.802"/>
<path style="fill:#394049;" d="M427.452,83.829l-120.719,6.896c-10.448,0.597-19.247-7.715-19.247-18.179l0,0
	c0-10.465,8.8-18.776,19.247-18.179l120.719,6.896c5.981,0.342,10.657,5.292,10.657,11.283l0,0
	C438.109,78.537,433.434,83.487,427.452,83.829z"/>
<path style="opacity:0.15;enable-background:new    ;" d="M306.733,54.367c-10.448-0.597-19.247,7.715-19.247,18.179
	c0,10.465,8.8,18.776,19.247,18.179l59.246-3.385V57.751L306.733,54.367z"/>
<path style="fill:#394049;" d="M409.652,26.264L266.796,73.425c-8.588,2.835-17.794-2.135-20.134-10.871l-3.27-12.204
	c-2.341-8.736,3.146-17.643,12.001-19.482L402.691,0.284c6.992-1.452,13.902,2.805,15.75,9.702l0,0
	C420.289,16.884,416.433,24.025,409.652,26.264z"/>
<path style="fill:#DC5371;" d="M341.698,105.086H239.429c-33.052,0-59.847,26.794-59.847,59.847v324.823
	c0,12.285,9.959,22.244,22.244,22.244H379.3c12.285,0,22.244-9.959,22.244-22.244V164.933
	C401.545,131.88,374.751,105.086,341.698,105.086z"/>
<path style="opacity:0.1;enable-background:new    ;" d="M179.582,457.173v32.583c0,12.285,9.959,22.244,22.244,22.244H379.3
	c12.285,0,22.244-9.959,22.244-22.244v-32.583H179.582z"/>
<g>
	<path style="fill:#5F666F;" d="M332.143,35.022h-83.159c-8.7,0-15.752,7.052-15.752,15.752v54.312h114.663V50.774
		C347.895,42.074,340.843,35.022,332.143,35.022z"/>
	<path style="fill:#5F666F;" d="M122.363,300.412H95.156c-6.413,0-11.833,4.754-12.669,11.112l-8.485,64.508
		c-1.007,7.653,4.95,14.445,12.67,14.445h44.176c7.719,0,13.676-6.792,12.67-14.445l-8.485-64.508
		C134.196,305.166,128.776,300.412,122.363,300.412z"/>
</g>
<path style="opacity:0.1;enable-background:new    ;" d="M143.517,376.032l-8.485-64.508c-0.836-6.359-6.256-11.112-12.67-11.112
	h-15.629c6.413,0,11.833,4.754,12.67,11.112l8.485,64.508c1.007,7.653-4.95,14.445-12.67,14.445h15.629
	C138.567,390.477,144.524,383.685,143.517,376.032z"/>
<path style="fill:#FFFFFF;" d="M353.327,200.67H227.8c-10.385,0-18.804,8.419-18.804,18.804v166.083
	c0,10.385,8.419,18.804,18.804,18.804h125.526c10.385,0,18.804-8.419,18.804-18.804V219.474
	C372.131,209.089,363.712,200.67,353.327,200.67z"/>
<g>
	<path style="fill:#394049;" d="M242.31,283.086c-4.142,0-7.5-3.357-7.5-7.5v-5.32c0-4.143,3.358-7.5,7.5-7.5s7.5,3.357,7.5,7.5
		v5.32C249.81,279.728,246.453,283.086,242.31,283.086z"/>
	<path style="fill:#394049;" d="M338.816,283.086c-4.142,0-7.5-3.357-7.5-7.5v-5.32c0-4.143,3.358-7.5,7.5-7.5s7.5,3.357,7.5,7.5
		v5.32C346.316,279.728,342.958,283.086,338.816,283.086z"/>
	<path style="fill:#394049;" d="M290.563,294.84c-7.241,0-13.805-4.283-16.722-10.913c-1.668-3.791,0.053-8.217,3.844-9.885
		s8.217,0.052,9.886,3.844c0.522,1.187,1.697,1.954,2.993,1.954c1.296,0,2.471-0.767,2.993-1.953
		c1.668-3.792,6.094-5.514,9.886-3.844c3.791,1.668,5.512,6.094,3.844,9.885C304.369,290.557,297.805,294.84,290.563,294.84z"/>
</g>
<rect x="209" y="330.09" style="fill:#507CDD;" width="163.13" height="22.792"/>
<g>
	<path style="fill:#394049;" d="M265.421,385.814h-26.514c-4.142,0-7.5-3.358-7.5-7.5c0-4.143,3.358-7.5,7.5-7.5h26.514
		c4.142,0,7.5,3.357,7.5,7.5S269.563,385.814,265.421,385.814z"/>
	<path style="fill:#394049;" d="M342.22,385.814h-26.514c-4.142,0-7.5-3.358-7.5-7.5c0-4.143,3.358-7.5,7.5-7.5h26.514
		c4.142,0,7.5,3.357,7.5,7.5S346.362,385.814,342.22,385.814z"/>
</g>
<rect x="233.23" y="78.05" style="opacity:0.1;enable-background:new    ;" width="114.66" height="27.04"/>
<path style="opacity:0.1;enable-background:new    ;" d="M341.698,105.086h-43.204c33.052,0,59.847,26.794,59.847,59.847v324.823
	c0,12.285-9.959,22.244-22.244,22.244H379.3c12.285,0,22.244-9.959,22.244-22.244V164.933
	C401.545,131.88,374.751,105.086,341.698,105.086z"/>
<g>
</g>
<g>
</g>
<g>
</g>
<g>
</g>
<g>
</g>
<g>
</g>
<g>
</g>
<g>
</g>
<g>
</g>
<g>
</g>
<g>
</g>
<g>
</g>
<g>
</g>
<g>
</g>
<g>
</g>
</svg>
