<?xml version="1.0" encoding="iso-8859-1"?>
<!-- Generator: Adobe Illustrator 19.0.0, SVG Export Plug-In . SVG Version: 6.00 Build 0)  -->
<svg version="1.1" id="Capa_1" xmlns="http://www.w3.org/2000/svg" xmlns:xlink="http://www.w3.org/1999/xlink" x="0px" y="0px"
	 viewBox="0 0 512 512" style="enable-background:new 0 0 512 512;" xml:space="preserve">
<path style="fill:#D59C6E;" d="M28.252,505.01H7.78c-4.297,0-7.78-3.483-7.78-7.78V14.77c0-4.297,3.483-7.78,7.78-7.78h20.472
	c4.297,0,7.78,3.483,7.78,7.78v482.46C36.031,501.526,32.548,505.01,28.252,505.01z"/>
<path style="fill:#507CDD;" d="M0,430.579v66.651c0,4.297,3.483,7.78,7.78,7.78h20.472c4.297,0,7.78-3.483,7.78-7.78v-66.651H0z"/>
<path style="opacity:0.1;enable-background:new    ;" d="M28.252,6.99H12.237c4.297,0,7.78,3.483,7.78,7.78v482.46
	c0,4.297-3.483,7.78-7.78,7.78h16.014c4.297,0,7.78-3.483,7.78-7.78V14.77C36.031,10.473,32.548,6.99,28.252,6.99z"/>
<path style="fill:#76C9D2;" d="M498.506,168.504L36.031,283.609V18.871l462.475,115.105
	C516.498,138.454,516.498,164.026,498.506,168.504z"/>
<path style="fill:#507CDD;" d="M498.506,133.977L334.309,93.11v116.26l164.197-40.867
	C516.498,164.026,516.498,138.454,498.506,133.977z"/>
<path style="fill:#FFFFFF;" d="M62.971,256.643c-1.657,0-3.287-0.549-4.619-1.591c-1.818-1.421-2.881-3.601-2.881-5.909V53.338
	c0-2.308,1.063-4.488,2.881-5.909s4.189-1.926,6.43-1.369l393.357,97.902c3.342,0.831,5.689,3.833,5.689,7.278
	c0,3.444-2.346,6.446-5.689,7.278L64.782,256.42C64.184,256.569,63.575,256.643,62.971,256.643z M70.471,62.933v176.614
	l354.804-88.307L70.471,62.933z"/>
<polygon style="opacity:0.1;enable-background:new    ;" points="36.031,18.871 36.031,283.609 62.971,276.904 62.971,25.576 "/>
<g>
</g>
<g>
</g>
<g>
</g>
<g>
</g>
<g>
</g>
<g>
</g>
<g>
</g>
<g>
</g>
<g>
</g>
<g>
</g>
<g>
</g>
<g>
</g>
<g>
</g>
<g>
</g>
<g>
</g>
</svg>
