<?xml version="1.0" encoding="iso-8859-1"?>
<!-- Generator: Adobe Illustrator 19.0.0, SVG Export Plug-In . SVG Version: 6.00 Build 0)  -->
<svg version="1.1" id="Capa_1" xmlns="http://www.w3.org/2000/svg" xmlns:xlink="http://www.w3.org/1999/xlink" x="0px" y="0px"
	 viewBox="0 0 512 512" style="enable-background:new 0 0 512 512;" xml:space="preserve">
<g>
	<path style="fill:#76C9D2;" d="M455.828,443.01L334.599,227.309c-4.615-8.212-7.039-17.473-7.039-26.893V63.1H184.44v137.316
		c0,9.42-2.424,18.681-7.039,26.893L56.172,443.01C38.825,473.876,61.131,512,96.537,512h318.925
		C450.869,512,473.175,473.876,455.828,443.01z"/>
	<path style="fill:#76C9D2;" d="M337.263,63.1H174.737c-7.17,0-12.983-5.813-12.983-12.983V12.983
		c0-7.17,5.813-12.983,12.983-12.983h162.527c7.17,0,12.983,5.813,12.983,12.983v37.135C350.246,57.287,344.433,63.1,337.263,63.1z"
		/>
</g>
<path style="opacity:0.1;enable-background:new    ;" d="M337.263,0h-24.3c7.17,0,12.983,5.813,12.983,12.983v37.135
	c0,7.17-5.813,12.983-12.983,12.983h24.3c7.17,0,12.983-5.813,12.983-12.983V12.983C350.246,5.813,344.433,0,337.263,0z"/>
<path style="fill:#507CDD;" d="M455.828,443.01L340.193,237.262c-7.344,1.647-14.546,4.16-21.448,7.552l-38.584,18.961
	c-30.069,14.776-65.649,12.907-94.004-4.94l0,0c-6.624-4.169-13.65-7.469-20.915-9.889L56.172,443.01
	C38.825,473.876,61.131,512,96.537,512h318.925C450.869,512,473.175,473.876,455.828,443.01z"/>
<path style="fill:#394049;" d="M327.56,112.368v-15h-33.277c-4.142,0-7.5,3.358-7.5,7.5s3.358,7.5,7.5,7.5H327.56z M327.56,164.799
	v-15h-26.452c-4.142,0-7.5,3.358-7.5,7.5s3.358,7.5,7.5,7.5H327.56z M379.438,307.091H321.58c-4.142,0-7.5,3.358-7.5,7.5
	s3.358,7.5,7.5,7.5h66.288L379.438,307.091z M358.402,269.661l-8.43-15h-35.215c-4.142,0-7.5,3.358-7.5,7.5s3.358,7.5,7.5,7.5
	H358.402z M330.204,217.23c-1.558-4.841-2.445-9.888-2.613-15h-19.659c-4.142,0-7.5,3.358-7.5,7.5s3.358,7.5,7.5,7.5H330.204z"/>
<path style="opacity:0.1;enable-background:new    ;" d="M455.828,443.01L334.599,227.309c-4.615-8.212-7.039-17.473-7.039-26.893
	V63.1H184.44v41.586h103.114v95.73c0,9.42,2.424,18.681,7.04,26.893L415.823,443.01c17.347,30.866-4.958,68.99-40.365,68.99h40.005
	C450.869,512,473.175,473.876,455.828,443.01z"/>
<g>
	<path style="fill:#394049;" d="M163.691,387.105c-4.142,0-7.5-3.358-7.5-7.5v-10.178c0-4.142,3.358-7.5,7.5-7.5s7.5,3.358,7.5,7.5
		v10.178C171.191,383.747,167.833,387.105,163.691,387.105z"/>
	<path style="fill:#394049;" d="M348.309,387.105c-4.142,0-7.5-3.358-7.5-7.5v-10.178c0-4.142,3.358-7.5,7.5-7.5s7.5,3.358,7.5,7.5
		v10.178C355.809,383.747,352.451,387.105,348.309,387.105z"/>
	<path style="fill:#394049;" d="M256,409.59c-11.139,0-21.235-6.589-25.722-16.786c-1.668-3.792,0.053-8.217,3.844-9.885
		c3.791-1.67,8.217,0.054,9.885,3.844c2.092,4.755,6.8,7.827,11.993,7.827c5.192,0,9.899-3.072,11.992-7.826
		c1.669-3.792,6.096-5.514,9.886-3.844c3.792,1.669,5.512,6.095,3.844,9.886C277.234,403.001,267.138,409.59,256,409.59z"/>
</g>
<g style="opacity:0.1;">
	<circle cx="188.64" cy="314.59" r="7.512"/>
	<circle cx="114.11" cy="443.05" r="7.512"/>
	<circle cx="282.37" cy="472.94" r="7.512"/>
	<circle cx="399.88" cy="415.86" r="7.512"/>
</g>
<g style="opacity:0.3;">
	<circle style="fill:#FFFFFF;" cx="289.88" cy="292.26" r="7.512"/>
	<circle style="fill:#FFFFFF;" cx="379.05" cy="461.57" r="7.512"/>
	<circle style="fill:#FFFFFF;" cx="188.64" cy="446.55" r="7.512"/>
</g>
<g>
</g>
<g>
</g>
<g>
</g>
<g>
</g>
<g>
</g>
<g>
</g>
<g>
</g>
<g>
</g>
<g>
</g>
<g>
</g>
<g>
</g>
<g>
</g>
<g>
</g>
<g>
</g>
<g>
</g>
</svg>
