<?xml version="1.0" encoding="iso-8859-1"?>
<!-- Generator: Adobe Illustrator 19.0.0, SVG Export Plug-In . SVG Version: 6.00 Build 0)  -->
<svg version="1.1" id="Capa_1" xmlns="http://www.w3.org/2000/svg" xmlns:xlink="http://www.w3.org/1999/xlink" x="0px" y="0px"
	 viewBox="0 0 512 512" style="enable-background:new 0 0 512 512;" xml:space="preserve">
<path style="fill:#FFFFFF;" d="M362.244,157.148H149.756c-15.666,0-28.366,12.7-28.366,28.365v298.121
	c0,15.666,12.7,28.366,28.366,28.366h212.488c15.666,0,28.366-12.7,28.366-28.366v-298.12
	C390.61,169.848,377.91,157.148,362.244,157.148z"/>
<path style="opacity:0.1;enable-background:new    ;" d="M362.244,157.148H149.756c-15.666,0-28.366,12.7-28.366,28.365v298.121
	c0,15.666,12.7,28.366,28.366,28.366h212.488c15.666,0,28.366-12.7,28.366-28.366v-298.12
	C390.61,169.848,377.91,157.148,362.244,157.148z"/>
<path style="opacity:0.1;enable-background:new    ;" d="M362.244,157.148h-38.496c12.486,0,22.608,10.122,22.608,22.608v309.636
	c0,12.486-10.122,22.608-22.608,22.608h38.496c15.666,0,28.366-12.7,28.366-28.366v-298.12
	C390.61,169.848,377.91,157.148,362.244,157.148z"/>
<g>
	<path style="fill:#DC5371;" d="M353.051,157.148H158.949v-36.345c0-8.929,7.239-16.168,16.168-16.168h161.765
		c8.93,0,16.168,7.239,16.168,16.168L353.051,157.148L353.051,157.148z"/>
	<path style="fill:#DC5371;" d="M274.875,0h-37.751c-6.571,0-12.288,4.5-13.831,10.888l-22.648,93.748h110.71l-22.648-93.748
		C287.163,4.5,281.447,0,274.875,0z"/>
</g>
<path style="opacity:0.1;enable-background:new    ;" d="M288.706,10.888C287.163,4.5,281.447,0,274.875,0h-18.641
	c6.571,0,12.288,4.5,13.831,10.888l17.328,71.725h-81.428l-5.32,22.022h110.71L288.706,10.888z"/>
<path style="fill:#FFFFFF;" d="M324.764,307.304H187.236c-10.696,0-19.367,8.671-19.367,19.366v100.145
	c0,10.696,8.671,19.366,19.367,19.366h137.527c10.696,0,19.367-8.671,19.367-19.366V326.67
	C344.13,315.974,335.46,307.304,324.764,307.304z"/>
<g style="opacity:0.1;">
	<rect x="248.5" y="104.64" width="15" height="52.51"/>
	<rect x="199.97" y="104.64" width="15" height="52.51"/>
	<rect x="297.03" y="104.64" width="15" height="52.51"/>
</g>
<g>
	<path style="fill:#394049;" d="M167.592,237.96c-4.142,0-7.5-3.358-7.5-7.5v-9.748c0-4.142,3.358-7.5,7.5-7.5s7.5,3.358,7.5,7.5
		v9.748C175.092,234.602,171.734,237.96,167.592,237.96z"/>
	<path style="fill:#394049;" d="M344.408,237.96c-4.143,0-7.5-3.358-7.5-7.5v-9.748c0-4.142,3.357-7.5,7.5-7.5s7.5,3.358,7.5,7.5
		v9.748C351.908,234.602,348.551,237.96,344.408,237.96z"/>
	<path style="fill:#394049;" d="M256,259.495c-10.794,0-20.578-6.385-24.925-16.266c-1.668-3.792,0.053-8.217,3.844-9.885
		c3.79-1.669,8.217,0.053,9.885,3.844c1.953,4.439,6.348,7.307,11.196,7.307c4.848,0,9.242-2.868,11.194-7.306
		c1.669-3.791,6.096-5.513,9.886-3.844c3.791,1.668,5.513,6.094,3.845,9.885C276.577,253.111,266.793,259.495,256,259.495z"/>
</g>
<path style="fill:#DC5371;" d="M167.87,381.603v45.211c0,10.696,8.671,19.367,19.367,19.367h137.527
	c10.696,0,19.366-8.671,19.366-19.367v-19.663C264.674,407.091,247.277,381.663,167.87,381.603z"/>
<g>
	<path style="fill:#394049;" d="M320.534,356.415h-40.472c-4.143,0-7.5-3.358-7.5-7.5s3.357-7.5,7.5-7.5h40.472
		c4.143,0,7.5,3.358,7.5,7.5S324.677,356.415,320.534,356.415z"/>
	<path style="fill:#394049;" d="M320.534,380.394h-23.643c-4.143,0-7.5-3.358-7.5-7.5s3.357-7.5,7.5-7.5h23.643
		c4.143,0,7.5,3.358,7.5,7.5S324.677,380.394,320.534,380.394z"/>
</g>
<rect x="158.95" y="138.39" style="opacity:0.1;enable-background:new    ;" width="194.1" height="18.755"/>
<g>
</g>
<g>
</g>
<g>
</g>
<g>
</g>
<g>
</g>
<g>
</g>
<g>
</g>
<g>
</g>
<g>
</g>
<g>
</g>
<g>
</g>
<g>
</g>
<g>
</g>
<g>
</g>
<g>
</g>
</svg>
