<?xml version="1.0" encoding="iso-8859-1"?>
<!-- Generator: Adobe Illustrator 19.0.0, SVG Export Plug-In . SVG Version: 6.00 Build 0)  -->
<svg version="1.1" id="Capa_1" xmlns="http://www.w3.org/2000/svg" xmlns:xlink="http://www.w3.org/1999/xlink" x="0px" y="0px"
	 viewBox="0 0 512 512" style="enable-background:new 0 0 512 512;" xml:space="preserve">
<path style="fill:#F6D83E;" d="M303.972,438.566L3.298,137.892c-4.397-4.397-4.397-11.527,0-15.924l94.87-94.87
	c4.397-4.397,11.527-4.397,15.924,0l300.674,300.674c4.397,4.397,4.397,11.527,0,15.924l-94.87,94.87
	C315.499,442.964,308.37,442.964,303.972,438.566z"/>
<path style="fill:#F4AC3B;" d="M114.092,27.097c-4.397-4.397-11.527-4.397-15.924,0l-94.87,94.87
	c-4.397,4.397-4.397,11.527,0,15.924l74.432,74.432l110.795-110.795L114.092,27.097z"/>
<path style="fill:#394049;" d="M325.057,433.406l28.234,28.234c4.408,4.408,11.554,4.408,15.962,0l68.588-68.588
	c4.408-4.408,4.408-11.554,0-15.962l-28.234-28.234L325.057,433.406z"/>
<path style="fill:#F6D83E;" d="M408.379,484.773l-31.13-31.13l52.594-52.594l81.113,81.113c2.229,2.228,0.65,6.039-2.501,6.039
	h-91.801C413.551,488.201,410.574,486.968,408.379,484.773z"/>
<path style="opacity:0.1;enable-background:new    ;" d="M117.48,95.315L71.515,141.28c-1.964,1.964-1.964,5.147,0,7.111
	l13.423,13.423c1.964,1.964,5.147,1.964,7.111,0l45.965-45.965c1.964-1.964,1.964-5.147,0-7.111l-13.422-13.423
	C122.628,93.351,119.444,93.351,117.48,95.315z"/>
<path style="fill:#394049;" d="M60.17,123.547c-1.92,0-3.839-0.732-5.304-2.197c-2.929-2.929-2.929-7.678,0-10.606l32.078-32.078
	c2.931-2.93,7.679-2.929,10.607,0c2.929,2.929,2.929,7.678,0,10.606L65.474,121.35C64.009,122.815,62.089,123.547,60.17,123.547z"/>
<path style="opacity:0.1;enable-background:new    ;" d="M273.512,365.779L158.48,250.746c-3.73-3.73-9.777-3.73-13.506,0
	l-14.41,14.41l128.539,128.539l14.41-14.411C277.242,375.555,277.242,369.508,273.512,365.779z"/>
<path style="opacity:0.1;enable-background:new    ;" d="M437.841,377.09l-28.234-28.234l-4.799,4.799l0,0l-79.751,79.751
	l14.439,14.439l71.402-71.402l13.795,13.795c4.408,4.408,4.408,11.554,0,15.962l13.148-13.148
	C442.248,388.644,442.248,381.498,437.841,377.09z"/>
<path style="opacity:0.1;enable-background:new    ;" d="M510.957,482.162l-81.113-81.113l-52.594,52.594l15.242,15.242
	l43.464-43.464l62.78,62.78h9.72C511.607,488.201,513.185,484.39,510.957,482.162z"/>
<path style="opacity:0.1;enable-background:new    ;" d="M414.767,327.772L114.093,27.097c-4.398-4.397-11.527-4.397-15.924,0
	L87.06,38.206l289.566,289.566c4.397,4.397,4.397,11.527,0,15.924l-83.762,83.762l11.108,11.108c4.397,4.397,11.527,4.397,15.924,0
	l94.87-94.87C419.164,339.299,419.164,332.169,414.767,327.772z"/>
<g>
</g>
<g>
</g>
<g>
</g>
<g>
</g>
<g>
</g>
<g>
</g>
<g>
</g>
<g>
</g>
<g>
</g>
<g>
</g>
<g>
</g>
<g>
</g>
<g>
</g>
<g>
</g>
<g>
</g>
</svg>
