<?xml version="1.0" encoding="iso-8859-1"?>
<!-- Generator: Adobe Illustrator 19.0.0, SVG Export Plug-In . SVG Version: 6.00 Build 0)  -->
<svg version="1.1" id="Capa_1" xmlns="http://www.w3.org/2000/svg" xmlns:xlink="http://www.w3.org/1999/xlink" x="0px" y="0px"
	 viewBox="0 0 512.002 512.002" style="enable-background:new 0 0 512.002 512.002;" xml:space="preserve">
<circle style="fill:#5F666F;" cx="256.001" cy="488.74" r="23.262"/>
<circle style="fill:#394049;" cx="256.001" cy="424" r="64.734"/>
<path style="opacity:0.15;enable-background:new    ;" d="M256.001,359.27c-1.006,0-2.005,0.03-3,0.076
	c-0.302,0.014-0.601,0.034-0.902,0.052c-0.718,0.043-1.433,0.097-2.144,0.163c-0.311,0.029-0.622,0.056-0.932,0.089
	c-0.885,0.095-1.765,0.205-2.639,0.335c-0.093,0.014-0.187,0.023-0.28,0.038c0,0-0.001,0-0.002,0l0,0
	c-31.053,4.765-54.835,31.595-54.835,63.981c0,6.167,0.881,12.125,2.491,17.775h104.703c-6.846,24.024-27.217,42.348-52.359,46.206
	c3.227,0.495,6.533,0.753,9.899,0.753c35.751,0,64.734-28.982,64.734-64.734l0,0C320.735,388.252,291.752,359.27,256.001,359.27z"/>
<path style="fill:#76C9D2;" d="M254.959,0.004c-78.036,0.55-142.023,63.803-143.426,141.828
	c-0.727,40.449,15.171,77.186,41.315,103.837c16.54,16.86,25.476,39.75,25.476,63.368v32.459h155.355v-32.902
	c0-23.415,8.909-46.085,25.33-62.776c25.656-26.078,41.484-61.852,41.484-101.325C400.493,64.344,335.238-0.563,254.959,0.004z"/>
<path style="fill:#F6D83E;" d="M279.948,348.995c-4.143,0-7.5-3.357-7.5-7.5V256.93h-32.895v84.565c0,4.143-3.358,7.5-7.5,7.5
	s-7.5-3.357-7.5-7.5V256.93H211.66c-15.38,0-27.893-12.513-27.893-27.894s12.513-27.893,27.893-27.893s27.893,12.513,27.893,27.893
	v12.894h32.895v-12.894c0-15.381,12.513-27.893,27.894-27.893c15.38,0,27.893,12.513,27.893,27.893
	c0,15.381-12.513,27.894-27.893,27.894h-12.894v84.565C287.448,345.638,284.091,348.995,279.948,348.995z M287.448,241.93h12.894
	c7.109,0,12.893-5.784,12.893-12.894c0-7.109-5.783-12.893-12.893-12.893c-7.109,0-12.894,5.784-12.894,12.893V241.93z
	 M211.66,216.143c-7.109,0-12.893,5.784-12.893,12.893c0,7.109,5.784,12.894,12.893,12.894h12.893v-12.894
	C224.553,221.927,218.77,216.143,211.66,216.143z"/>
<path style="fill:#5F666F;" d="M344.197,424.004H167.805c-8.231,0-14.904-6.673-14.904-14.903v-52.702
	c0-8.231,6.673-14.904,14.904-14.904h176.392c8.231,0,14.904,6.672,14.904,14.904V409.1
	C359.101,417.331,352.428,424.004,344.197,424.004z"/>
<g style="opacity:0.1;">
	<rect x="152.901" y="361.13" width="206.2" height="15"/>
	<rect x="152.901" y="389.37" width="206.2" height="15"/>
</g>
<path style="opacity:0.1;enable-background:new    ;" d="M344.197,341.495h-35.531c8.231,0,14.903,6.672,14.903,14.903V409.1
	c0,8.231-6.672,14.904-14.903,14.904h35.531c8.231,0,14.904-6.672,14.904-14.904v-52.701
	C359.101,348.168,352.428,341.495,344.197,341.495z"/>
<path style="opacity:0.1;enable-background:new    ;" d="M254.959,0.004c-4.318,0.031-8.59,0.264-12.814,0.67
	c73.222,7.05,130.473,68.747,130.473,143.818c0,39.473-15.829,75.247-41.484,101.325c-16.421,16.692-25.33,39.361-25.33,62.776
	v6.932H178.045v25.971h155.633v-32.902c0-23.415,8.909-46.084,25.33-62.776c25.656-26.078,41.484-61.852,41.484-101.325
	C400.493,64.344,335.238-0.563,254.959,0.004z"/>
<g>
	<path style="fill:#394049;" d="M170.667,132.292c-4.142,0-7.5-3.357-7.5-7.5v-9.409c0-4.143,3.358-7.5,7.5-7.5s7.5,3.357,7.5,7.5
		v9.409C178.167,128.935,174.809,132.292,170.667,132.292z"/>
	<path style="fill:#394049;" d="M341.335,132.292c-4.143,0-7.5-3.357-7.5-7.5v-9.409c0-4.143,3.357-7.5,7.5-7.5s7.5,3.357,7.5,7.5
		v9.409C348.835,128.935,345.478,132.292,341.335,132.292z"/>
	<path style="fill:#394049;" d="M256.001,153.078c-10.522,0-20.06-6.225-24.297-15.857c-1.668-3.792,0.053-8.218,3.845-9.886
		c3.789-1.666,8.217,0.054,9.885,3.845c1.843,4.19,5.991,6.898,10.567,6.898c4.575,0,8.723-2.707,10.567-6.897
		c1.668-3.791,6.092-5.511,9.886-3.843c3.791,1.669,5.512,6.095,3.843,9.886C276.058,146.854,266.521,153.078,256.001,153.078z"/>
</g>
<g>
</g>
<g>
</g>
<g>
</g>
<g>
</g>
<g>
</g>
<g>
</g>
<g>
</g>
<g>
</g>
<g>
</g>
<g>
</g>
<g>
</g>
<g>
</g>
<g>
</g>
<g>
</g>
<g>
</g>
</svg>
