<?xml version="1.0" encoding="iso-8859-1"?>
<!-- Generator: Adobe Illustrator 19.0.0, SVG Export Plug-In . SVG Version: 6.00 Build 0)  -->
<svg version="1.1" id="Capa_1" xmlns="http://www.w3.org/2000/svg" xmlns:xlink="http://www.w3.org/1999/xlink" x="0px" y="0px"
	 viewBox="0 0 512 512" style="enable-background:new 0 0 512 512;" xml:space="preserve">
<path style="fill:#76C9D2;" d="M502.458,366.412H9.542c-5.27,0-9.542,4.272-9.542,9.542v32.933c0,12.896,10.454,23.35,23.35,23.35
	h465.3c12.896,0,23.35-10.454,23.35-23.35v-32.933C512,370.684,507.728,366.412,502.458,366.412z"/>
<path style="fill:#5F666F;" d="M502.458,366.412H9.542c-5.27,0-9.542,4.272-9.542,9.542v32.933c0,12.896,10.454,23.35,23.35,23.35
	h465.3c12.896,0,23.35-10.454,23.35-23.35v-32.933C512,370.684,507.728,366.412,502.458,366.412z"/>
<path style="opacity:0.1;enable-background:new    ;" d="M502.458,366.412h-34.9c5.27,0,9.542,4.272,9.542,9.542v32.933
	c0,0.016,0,0.032,0,0.048c-0.005,2.576-2.172,4.628-4.748,4.628H23.35C10.454,413.564,0,403.11,0,390.214v18.674
	c0,12.896,10.454,23.35,23.35,23.35h465.3c12.896,0,23.35-10.454,23.35-23.35v-32.933C512,370.684,507.728,366.412,502.458,366.412z
	"/>
<path style="fill:#394049;" d="M468.305,79.762H43.695c-7.969,0-14.429,6.46-14.429,14.429v272.221h453.469V94.192
	C482.735,86.223,476.274,79.762,468.305,79.762z"/>
<circle style="fill:#76C9D2;" cx="256" cy="95.27" r="6.525"/>
<path style="fill:#FFFFFF;" d="M60.263,331.095V115.08c0-2.386,1.934-4.32,4.32-4.32h382.836c2.386,0,4.32,1.934,4.32,4.32v216.015
	c0,2.386-1.934,4.32-4.32,4.32H64.582C62.196,335.414,60.263,333.48,60.263,331.095z"/>
<path style="fill:#F2DFA6;" d="M398.341,335.414H113.659V159.847c0-9.767,7.918-17.684,17.684-17.684h249.314
	c9.767,0,17.684,7.918,17.684,17.684L398.341,335.414L398.341,335.414z"/>
<path style="fill:#76C9D2;" d="M324.843,366.412H187.157v11.205c0,9.539,7.733,17.272,17.272,17.272H307.57
	c9.539,0,17.272-7.733,17.272-17.272L324.843,366.412L324.843,366.412z"/>
<g>
	<path style="fill:#394049;" d="M159.439,213.19c-4.143,0-7.5-3.358-7.5-7.5v-10.647c0-4.142,3.357-7.5,7.5-7.5s7.5,3.358,7.5,7.5
		v10.647C166.939,209.832,163.582,213.19,159.439,213.19z"/>
	<path style="fill:#394049;" d="M352.56,213.19c-4.142,0-7.5-3.358-7.5-7.5v-10.647c0-4.142,3.358-7.5,7.5-7.5
		c4.143,0,7.5,3.358,7.5,7.5v10.647C360.06,209.832,356.703,213.19,352.56,213.19z"/>
	<path style="fill:#394049;" d="M256,236.71c-11.516,0-21.953-6.812-26.591-17.354c-1.668-3.792,0.054-8.217,3.846-9.885
		c3.787-1.669,8.216,0.054,9.885,3.845c2.243,5.099,7.291,8.394,12.86,8.394c5.569,0,10.617-3.294,12.861-8.393
		c1.667-3.791,6.091-5.513,9.886-3.844c3.791,1.669,5.512,6.095,3.843,9.886C277.951,229.9,267.515,236.71,256,236.71z"/>
	<path style="fill:#394049;" d="M324.843,303.721H187.158c-4.143,0-7.5-3.358-7.5-7.5s3.357-7.5,7.5-7.5h137.685
		c4.143,0,7.5,3.358,7.5,7.5S328.985,303.721,324.843,303.721z"/>
</g>
<path style="opacity:0.1;enable-background:new    ;" d="M468.305,79.762h-30.997c7.969,0,14.429,6.46,14.429,14.429V324.27H29.265
	v42.142h453.469V94.192C482.735,86.223,476.275,79.762,468.305,79.762z"/>
<g>
</g>
<g>
</g>
<g>
</g>
<g>
</g>
<g>
</g>
<g>
</g>
<g>
</g>
<g>
</g>
<g>
</g>
<g>
</g>
<g>
</g>
<g>
</g>
<g>
</g>
<g>
</g>
<g>
</g>
</svg>
