<?xml version="1.0" encoding="iso-8859-1"?>
<!-- Generator: Adobe Illustrator 19.0.0, SVG Export Plug-In . SVG Version: 6.00 Build 0)  -->
<svg version="1.1" id="Capa_1" xmlns="http://www.w3.org/2000/svg" xmlns:xlink="http://www.w3.org/1999/xlink" x="0px" y="0px"
	 viewBox="0 0 512.001 512.001" style="enable-background:new 0 0 512.001 512.001;" xml:space="preserve">
<path style="fill:#D59C6E;" d="M498.087,438.455H13.913C6.229,438.455,0,432.227,0,424.542V87.458
	c0-7.684,6.229-13.913,13.913-13.913h484.175c7.684,0,13.913,6.229,13.913,13.913v337.085
	C512,432.227,505.771,438.455,498.087,438.455z"/>
<path style="opacity:0.1;enable-background:new    ;" d="M498.087,73.545h-15.569V395.06c0,7.684-6.229,13.913-13.913,13.913H0
	v15.569c0,7.684,6.229,13.913,13.913,13.913h484.174c7.684,0,13.913-6.229,13.913-13.913V87.458
	C512,79.774,505.771,73.545,498.087,73.545z"/>
<path style="fill:#507CDD;" d="M28.671,399.685v-287.37c0-5.578,4.522-10.1,10.1-10.1h434.458c5.578,0,10.1,4.522,10.1,10.1v287.369
	c0,5.578-4.522,10.1-10.1,10.1H38.771C33.193,409.784,28.671,405.263,28.671,399.685z"/>
<g>
	<path style="fill:#4FBB74;" d="M160.208,236.685L160.208,236.685c0-9.436-9.498-17.086-21.214-17.086H28.671v162.094h81.633
		c11.716,0,21.214-7.65,21.214-17.086l0,0c0-23.467,23.62-42.491,52.756-42.491h12.275c23.432,0,42.427-15.299,42.427-34.172l0,0
		c0-18.873-18.995-34.172-42.427-34.172h-15.128C169.705,253.771,160.208,246.12,160.208,236.685z"/>
	<path style="fill:#4FBB74;" d="M363.725,201.577L363.725,201.577c0,14.225,11.532,25.758,25.758,25.758l0,0
		c10.73,0,19.429,8.699,19.429,19.429l0,0c0,10.731,8.699,19.429,19.429,19.429h54.987v-93.19h-91.029
		C376.518,173.004,363.725,185.797,363.725,201.577z"/>
	<path style="fill:#4FBB74;" d="M376.057,359.322H293.03c-14.458,0-26.179-11.721-26.179-26.179l0,0
		c0-14.458,11.721-26.179,26.179-26.179h83.026c14.458,0,26.179,11.721,26.179,26.179l0,0
		C402.236,347.6,390.515,359.322,376.057,359.322z"/>
</g>
<g>
	<path style="fill:#394049;" d="M159.399,151.434c-4.143,0-7.5-3.357-7.5-7.5v-10.651c0-4.143,3.357-7.5,7.5-7.5s7.5,3.357,7.5,7.5
		v10.651C166.899,148.076,163.542,151.434,159.399,151.434z"/>
	<path style="fill:#394049;" d="M352.601,151.434c-4.143,0-7.5-3.357-7.5-7.5v-10.651c0-4.143,3.357-7.5,7.5-7.5s7.5,3.357,7.5,7.5
		v10.651C360.101,148.076,356.743,151.434,352.601,151.434z"/>
	<path style="fill:#394049;" d="M256,174.964c-11.519,0-21.96-6.814-26.6-17.358c-1.668-3.791,0.054-8.217,3.845-9.886
		c3.791-1.665,8.217,0.054,9.886,3.845c2.245,5.102,7.296,8.399,12.869,8.399c5.572,0,10.624-3.296,12.869-8.398
		c1.667-3.791,6.094-5.514,9.885-3.844c3.792,1.668,5.513,6.094,3.844,9.885C277.958,168.15,267.519,174.964,256,174.964z"/>
</g>
<path style="opacity:0.1;enable-background:new    ;" d="M473.229,102.216h-16.802v278.401c0,5.578-4.522,10.1-10.1,10.1H28.671
	v8.969c0,5.578,4.522,10.1,10.1,10.1h434.458c5.578,0,10.1-4.522,10.1-10.1v-287.37
	C483.329,106.738,478.807,102.216,473.229,102.216z"/>
<path style="opacity:0.1;enable-background:new    ;" d="M409.208,214.499c-4.143,0-7.5-3.357-7.5-7.5s3.357-7.5,7.5-7.5
	c8.198,0,10.678-1.342,13.817-3.041c3.926-2.125,8.812-4.768,20.398-4.768c9.79,0,14.256,2.444,17.844,4.408
	c2.573,1.408,4.273,2.339,9.234,2.339c4.142,0,7.5,3.357,7.5,7.5s-3.358,7.5-7.5,7.5c-8.797,0-13.033-2.318-16.436-4.181
	c-2.723-1.49-4.689-2.566-10.643-2.566c-7.789,0-10.203,1.307-13.259,2.96C426.173,211.81,421.205,214.499,409.208,214.499z"/>
<g style="opacity:0.1;">
	<path d="M144.699,273.692c-8.44,0-15.757-3.552-22.833-6.986c-7.286-3.537-14.821-7.195-24.013-7.195
		c-7.733,0-12.271,2.517-18.016,5.702c-6.813,3.777-15.291,8.48-29.689,8.48c-4.142,0-7.5-3.357-7.5-7.5s3.358-7.5,7.5-7.5
		c10.518,0,16.031-3.058,22.415-6.598c6.41-3.555,13.676-7.584,25.29-7.584c12.64,0,22.162,4.623,30.564,8.701
		c6.059,2.94,11.29,5.481,16.282,5.481c4.143,0,7.5,3.357,7.5,7.5C152.199,270.335,148.842,273.692,144.699,273.692z"/>
	<path d="M95.74,317.048c-4.142,0-7.5-3.358-7.5-7.5c0-4.143,3.358-7.5,7.5-7.5c6.354,0,10.228-1.501,14.714-3.238
		c7.812-3.024,16.666-6.453,35.664-1.227c3.994,1.099,6.341,5.227,5.242,9.221c-1.1,3.993-5.224,6.335-9.221,5.242
		c-14.224-3.914-19.538-1.855-26.269,0.752C110.728,314.79,104.896,317.048,95.74,317.048z"/>
</g>
<g>
	<path style="fill:#FFFFFF;" d="M437.61,409.784h-15c0-33.48,27.238-60.719,60.718-60.719v15
		C458.119,364.065,437.61,384.576,437.61,409.784z"/>
	<path style="fill:#FFFFFF;" d="M455.294,389.25c-1.92,0-3.839-0.732-5.304-2.197l-24.476-24.477
		c-2.929-2.929-2.929-7.678,0.001-10.607c2.929-2.929,7.678-2.928,10.607,0.001l24.476,24.477c2.929,2.929,2.929,7.678-0.001,10.606
		C459.133,388.518,457.213,389.25,455.294,389.25z"/>
</g>
<path style="opacity:0.1;enable-background:new    ;" d="M355.256,279.816c-7.7,0-14.624-4.279-18.068-11.167
	c-1.298-2.596-3.685-2.876-4.652-2.876s-3.354,0.28-4.652,2.876c-3.443,6.888-10.367,11.167-18.068,11.167
	s-14.625-4.279-18.068-11.167c-1.298-2.596-3.686-2.876-4.652-2.876c-0.967,0-3.355,0.28-4.652,2.876
	c-1.852,3.704-6.356,5.209-10.063,3.353c-3.704-1.853-5.206-6.357-3.354-10.063c3.443-6.888,10.367-11.167,18.068-11.167
	s14.625,4.279,18.068,11.167c1.298,2.596,3.686,2.876,4.652,2.876c0.967,0,3.354-0.28,4.652-2.876
	c3.443-6.888,10.367-11.167,18.068-11.167s14.625,4.279,18.068,11.167c1.298,2.596,3.687,2.876,4.652,2.876
	c0.967,0,3.355-0.28,4.653-2.876c1.852-3.705,6.356-5.205,10.063-3.353c3.705,1.853,5.206,6.358,3.353,10.063
	C369.881,275.537,362.957,279.816,355.256,279.816z"/>
<path style="opacity:0.1;enable-background:new    ;" d="M84.38,199.323c-7.701,0-14.625-4.279-18.068-11.167
	c-1.298-2.596-3.686-2.876-4.652-2.876c-0.967,0-3.354,0.28-4.652,2.876c-1.852,3.705-6.356,5.208-10.063,3.354
	c-3.704-1.853-5.206-6.357-3.354-10.063c3.443-6.888,10.367-11.167,18.068-11.167s14.625,4.279,18.068,11.167
	c1.298,2.596,3.686,2.876,4.652,2.876c0.967,0,3.354-0.28,4.652-2.876c3.443-6.888,10.367-11.167,18.068-11.167
	s14.625,4.279,18.068,11.167c1.853,3.705,0.351,8.21-3.354,10.063c-3.705,1.852-8.211,0.352-10.063-3.354
	c-1.298-2.596-3.686-2.876-4.652-2.876c-0.967,0-3.354,0.28-4.652,2.876C99.005,195.043,92.081,199.323,84.38,199.323z"/>
<g>
</g>
<g>
</g>
<g>
</g>
<g>
</g>
<g>
</g>
<g>
</g>
<g>
</g>
<g>
</g>
<g>
</g>
<g>
</g>
<g>
</g>
<g>
</g>
<g>
</g>
<g>
</g>
<g>
</g>
</svg>
