<?xml version="1.0" encoding="iso-8859-1"?>
<!-- Generator: Adobe Illustrator 19.0.0, SVG Export Plug-In . SVG Version: 6.00 Build 0)  -->
<svg version="1.1" id="Capa_1" xmlns="http://www.w3.org/2000/svg" xmlns:xlink="http://www.w3.org/1999/xlink" x="0px" y="0px"
	 viewBox="0 0 512 512" style="enable-background:new 0 0 512 512;" xml:space="preserve">
<rect x="18.764" y="0" style="fill:#76C9D2;" width="473.91" height="114.51"/>
<polygon style="opacity:0.15;enable-background:new    ;" points="77.825,0 18.764,0 18.764,114.509 182.949,114.509 "/>
<polygon style="opacity:0.15;enable-background:new    ;" points="434.175,0 493.236,0 493.236,114.509 329.052,114.509 "/>
<path style="fill:#507CDD;" d="M223.413,378.439L21.743,158.764c-8.923-9.719-13.874-22.433-13.874-35.627V11.488
	c0-10.452,12.842-15.452,19.91-7.753l195.634,213.1V378.439z"/>
<polygon style="fill:#F2DFA6;" points="223.413,326.456 7.869,91.669 7.869,45.202 223.413,279.989 "/>
<path style="fill:#507CDD;" d="M288.587,378.439l201.67-219.675c8.923-9.719,13.874-22.433,13.874-35.627V11.488
	c0-10.452-12.842-15.452-19.91-7.753l-195.634,213.1V378.439z"/>
<polygon style="fill:#F2DFA6;" points="288.587,326.456 504.131,91.669 504.131,45.202 288.587,279.989 "/>
<path style="opacity:0.1;enable-background:new    ;" d="M308.704,194.922l-20.117,21.913V378.44l118.069-128.61
	C382.28,220.932,347.824,200.818,308.704,194.922z"/>
<circle style="fill:#F4AC3B;" cx="256" cy="352.56" r="159.44"/>
<circle style="fill:#F6D83E;" cx="256" cy="352.56" r="121.68"/>
<g>
	<path style="fill:#394049;" d="M177.635,331.432c-4.142,0-7.5-3.357-7.5-7.5v-8.641c0-4.143,3.358-7.5,7.5-7.5s7.5,3.357,7.5,7.5
		v8.641C185.135,328.074,181.777,331.432,177.635,331.432z"/>
	<path style="fill:#394049;" d="M334.365,331.432c-4.142,0-7.5-3.357-7.5-7.5v-8.641c0-4.143,3.358-7.5,7.5-7.5s7.5,3.357,7.5,7.5
		v8.641C341.865,328.074,338.507,331.432,334.365,331.432z"/>
	<path style="fill:#394049;" d="M256,350.521c-9.906,0-18.884-5.859-22.874-14.928c-1.668-3.792,0.054-8.218,3.845-9.886
		c3.792-1.665,8.217,0.054,9.885,3.845c1.595,3.626,5.184,5.969,9.144,5.969c3.959,0,7.548-2.342,9.144-5.967
		c1.668-3.792,6.094-5.514,9.886-3.844c3.791,1.668,5.512,6.094,3.844,9.885C274.883,344.662,265.905,350.521,256,350.521z"/>
</g>
<g style="opacity:0.1;">
	<path d="M320.5,402.5h-129c-4.142,0-7.5-3.357-7.5-7.5s3.358-7.5,7.5-7.5h129c4.142,0,7.5,3.357,7.5,7.5S324.642,402.5,320.5,402.5
		z"/>
	<path d="M284.745,431.003h-57.489c-4.142,0-7.5-3.357-7.5-7.5c0-4.142,3.358-7.5,7.5-7.5h57.489c4.142,0,7.5,3.358,7.5,7.5
		C292.245,427.646,288.887,431.003,284.745,431.003z"/>
</g>
<path style="opacity:0.1;enable-background:new    ;" d="M346.928,221.597c20.724,26.906,33.058,60.609,33.058,97.197
	c0,88.054-71.382,159.435-159.435,159.435c-33.8,0-65.136-10.527-90.928-28.468C158.773,487.608,204.535,512,256,512
	c88.054,0,159.435-71.382,159.435-159.435C415.435,298.311,388.329,250.395,346.928,221.597z"/>
<path style="opacity:0.15;enable-background:new    ;" d="M484.221,3.734l-17.845,19.439c7.089-7.544,19.808-2.546,19.808,7.856
	v111.649c0,13.194-4.951,25.908-13.874,35.627l-0.285,0.311c0.001,0.001,0.003,0.003,0.004,0.004l18.229-19.856
	c8.923-9.719,13.874-22.433,13.874-35.627V11.488C504.131,1.036,491.289-3.965,484.221,3.734z"/>
<g>
</g>
<g>
</g>
<g>
</g>
<g>
</g>
<g>
</g>
<g>
</g>
<g>
</g>
<g>
</g>
<g>
</g>
<g>
</g>
<g>
</g>
<g>
</g>
<g>
</g>
<g>
</g>
<g>
</g>
</svg>
