<?xml version="1.0" encoding="iso-8859-1"?>
<!-- Generator: Adobe Illustrator 19.0.0, SVG Export Plug-In . SVG Version: 6.00 Build 0)  -->
<svg version="1.1" id="Capa_1" xmlns="http://www.w3.org/2000/svg" xmlns:xlink="http://www.w3.org/1999/xlink" x="0px" y="0px"
	 viewBox="0 0 512 512" style="enable-background:new 0 0 512 512;" xml:space="preserve">
<path style="fill:#F2DFA6;" d="M458.248,211.156H53.752v278.05c0,12.589,10.205,22.794,22.794,22.794h358.908
	c12.589,0,22.794-10.205,22.794-22.794V211.156z"/>
<path style="fill:#507CDD;" d="M458.248,346.676H53.752v142.53c0,12.589,10.205,22.794,22.794,22.794h358.908
	c12.589,0,22.794-10.205,22.794-22.794V346.676z"/>
<polygon style="fill:#F2DFA6;" points="458.248,211.156 53.752,211.156 120.803,90.839 391.197,90.839 "/>
<polygon style="opacity:0.5;fill:#FFFFFF;enable-background:new    ;" points="458.248,211.156 53.752,211.156 120.803,90.839 
	391.197,90.839 "/>
<path style="fill:#F2DFA6;" d="M372.441,0H139.559c-10.359,0-18.756,8.397-18.756,18.756v72.082h270.394V18.756
	C391.197,8.397,382.799,0,372.441,0z"/>
<path style="opacity:0.1;enable-background:new    ;" d="M372.441,0h-38.615c10.359,0,18.756,8.397,18.756,18.756v72.082h38.615
	V18.756C391.197,8.397,382.799,0,372.441,0z"/>
<g style="opacity:0.2;">
	<rect x="248.5" width="15" height="90.84"/>
	<rect x="177.29" width="15" height="90.84"/>
	<rect x="319.71" width="15" height="90.84"/>
</g>
<g>
	<path style="fill:#394049;" d="M135.156,286.274c-4.142,0-7.5-3.358-7.5-7.5V265.45c0-4.142,3.358-7.5,7.5-7.5s7.5,3.358,7.5,7.5
		v13.324C142.656,282.917,139.298,286.274,135.156,286.274z"/>
	<path style="fill:#394049;" d="M376.844,286.274c-4.142,0-7.5-3.358-7.5-7.5V265.45c0-4.142,3.358-7.5,7.5-7.5s7.5,3.358,7.5,7.5
		v13.324C384.344,282.917,380.986,286.274,376.844,286.274z"/>
	<path style="fill:#394049;" d="M256,315.71c-13.664,0-26.048-8.082-31.551-20.591c-1.668-3.792,0.053-8.217,3.844-9.885
		c3.791-1.669,8.217,0.052,9.885,3.844c3.109,7.066,10.104,11.632,17.822,11.632c7.716,0,14.711-4.565,17.821-11.63
		c1.669-3.792,6.094-5.514,9.886-3.844c3.792,1.669,5.512,6.095,3.844,9.886C282.046,307.629,269.662,315.71,256,315.71z"/>
</g>
<circle style="fill:#F6D83E;" cx="256" cy="459.45" r="22.96"/>
<path style="opacity:0.1;enable-background:new    ;" d="M255.999,436.494c-12.68,0-22.96,10.28-22.96,22.96h45.92
	C278.96,446.774,268.68,436.494,255.999,436.494z"/>
<path style="fill:#F6D83E;" d="M281.523,371.861h-51.047c-3.305,0-6.146,2.343-6.776,5.588l-12.215,62.981
	c-0.826,4.26,2.437,8.216,6.776,8.216h75.478c4.339,0,7.602-3.957,6.776-8.216L288.3,377.449
	C287.67,374.204,284.828,371.861,281.523,371.861z"/>
<g>
	<path style="fill:#394049;" d="M409.979,124.541c-6.368,3.982-15.412,5.035-29.063,0.976
		c-57.594-17.122-65.376,62.593,2.335,61.261c26.879-0.529,45.535-2.318,59.729-3.02L409.979,124.541z"/>
	<path style="fill:#394049;" d="M247.05,114.621c-13.294-5.229-13.122-14.342-8.554-23.783H120.803l-38.948,69.89
		c8.542,25.267,47.892,9.513,62.46-1.744c17.122-13.231,24.127-9.34,79.386,6.226S280.686,127.852,247.05,114.621z"/>
</g>
<g>
	<path style="fill:#FFFFFF;" d="M425.752,450.218h-31.684c-4.142,0-7.5-3.358-7.5-7.5s3.358-7.5,7.5-7.5h31.684
		c4.142,0,7.5,3.358,7.5,7.5S429.895,450.218,425.752,450.218z"/>
	<path style="fill:#FFFFFF;" d="M117.93,450.218H86.247c-4.142,0-7.5-3.358-7.5-7.5s3.358-7.5,7.5-7.5h31.684
		c4.142,0,7.5,3.358,7.5,7.5S122.072,450.218,117.93,450.218z"/>
	<path style="fill:#FFFFFF;" d="M425.752,476.682h-69.579c-4.142,0-7.5-3.358-7.5-7.5s3.358-7.5,7.5-7.5h69.579
		c4.142,0,7.5,3.358,7.5,7.5S429.895,476.682,425.752,476.682z"/>
</g>
<path style="opacity:0.1;enable-background:new    ;" d="M419.633,211.156v278.05c0,12.589-10.205,22.794-22.794,22.794h38.615
	c12.589,0,22.794-10.205,22.794-22.794v-278.05H419.633z"/>
<polygon style="opacity:0.1;enable-background:new    ;" points="391.197,90.839 352.582,90.839 419.633,211.156 458.248,211.156 
	"/>
<g>
</g>
<g>
</g>
<g>
</g>
<g>
</g>
<g>
</g>
<g>
</g>
<g>
</g>
<g>
</g>
<g>
</g>
<g>
</g>
<g>
</g>
<g>
</g>
<g>
</g>
<g>
</g>
<g>
</g>
</svg>
