<?xml version="1.0" encoding="iso-8859-1"?>
<!-- Generator: Adobe Illustrator 19.0.0, SVG Export Plug-In . SVG Version: 6.00 Build 0)  -->
<svg version="1.1" id="Capa_1" xmlns="http://www.w3.org/2000/svg" xmlns:xlink="http://www.w3.org/1999/xlink" x="0px" y="0px"
	 viewBox="0 0 512 512" style="enable-background:new 0 0 512 512;" xml:space="preserve">
<path style="fill:#F2DFA6;" d="M356.431,448.457c-24.47-24.47-24.207-64.308,0.79-88.448c24.719-23.871,64.342-22.429,88.295,2.211
	c41.025,42.199,29.453,83.106,60.374,121.451c4.467,5.54,2.418,13.92-4.171,16.607C459.981,517.297,378.277,470.303,356.431,448.457
	z"/>
<g style="opacity:0.1;">
	<path d="M424.621,471.819c-0.689,0-1.388-0.096-2.083-0.296c-19.621-5.662-32.892-22.909-39.27-31.197
		c-0.6-0.78-1.124-1.462-1.57-2.02c-2.587-3.234-2.063-7.954,1.172-10.542c3.236-2.587,7.956-2.063,10.542,1.173
		c0.495,0.619,1.078,1.375,1.744,2.241c5.404,7.022,16.648,21.635,31.541,25.933c3.979,1.148,6.275,5.306,5.126,9.285
		C430.875,469.682,427.877,471.819,424.621,471.819z"/>
	<path d="M457.027,447.829c-2.554,0-5.042-1.304-6.446-3.655c-13.171-22.055-26.854-37.578-39.568-44.892
		c-3.59-2.065-4.827-6.65-2.761-10.24c2.065-3.591,6.65-4.826,10.241-2.762c15.147,8.713,30.276,25.604,44.967,50.203
		c2.124,3.557,0.963,8.161-2.594,10.285C459.661,447.486,458.335,447.829,457.027,447.829z"/>
</g>
<path style="opacity:0.1;enable-background:new    ;" d="M505.891,483.671c-30.921-38.346-19.35-79.253-60.374-121.451
	c-23.953-24.639-63.576-26.082-88.295-2.21c-0.794,0.767-1.553,1.556-2.296,2.355c-0.207,0.222-0.415,0.443-0.618,0.668
	c-0.641,0.71-1.264,1.43-1.867,2.162c-0.283,0.342-0.556,0.69-0.831,1.037c-0.14,0.178-0.287,0.352-0.425,0.531
	c0.015-0.011,0.03-0.022,0.045-0.033c-10.34,13.351-14.495,29.942-12.43,45.896c5.79,2.065,12.396,0.705,16.896-3.795l48.767-48.767
	c1.381-1.381,2.325-2.324,2.913-3.143c9.924,3.054,19.244,8.576,26.945,16.497c41.024,42.199,29.453,83.106,60.374,121.451
	c1.677,2.08,2.435,4.561,2.38,6.99c1.595-0.45,3.148-0.969,4.644-1.579C508.309,497.591,510.357,489.211,505.891,483.671z"/>
<path style="fill:#507CDD;" d="M507.788,500.614c-1.333,1.333-2.904,2.374-4.67,3.094c-13.911,5.671-32.637,5.196-55.658-1.413
	c-18.036-5.179-38.658-14.269-58.067-25.596l0,0c-1.9-1.109-2.421-3.62-1.118-5.392l0,0c3.351-4.56,7.034-8.856,10.948-12.769
	c8.965-8.964,19.328-16.14,30.805-21.325c14.04-6.344,28.907-16.115,42.994-28.253l0.001-0.001c1.98-1.706,5.057-0.88,5.916,1.589
	l0.001,0.001c2.167,6.23,4.009,12.459,5.788,18.482c5.397,18.261,10.495,35.51,24.046,52.315
	C513.426,487.116,513.003,495.399,507.788,500.614L507.788,500.614z"/>
<path style="opacity:0.1;enable-background:new    ;" d="M508.774,481.346c-13.551-16.805-18.649-34.053-24.046-52.315
	c-1.78-6.023-3.621-12.253-5.789-18.482v-0.001c-0.859-2.469-3.936-3.295-5.916-1.589l-0.001,0.001
	c-3.064,2.64-6.165,5.16-9.286,7.565c2.076,6.026,3.862,12.046,5.584,17.873c5.397,18.262,10.495,35.51,24.046,52.315
	c4.653,5.77,4.229,14.053-0.985,19.267c0,0-0.001,0-0.001,0.001c-0.31,0.31-0.637,0.602-0.972,0.88
	c4.215-0.645,8.126-1.691,11.711-3.152c1.766-0.72,3.337-1.761,4.67-3.094c0,0,0,0,0.001-0.001
	C513.003,495.399,513.426,487.116,508.774,481.346z"/>
<path style="fill:#DC5371;" d="M391.24,346.838l-48.768,48.767c-5.404,5.404-13.848,6.298-20.263,2.146l-27.697-17.924
	c-51.324-33.215-96.896-74.568-134.925-122.435L8.392,67.087C-3.833,51.699-2.571,29.589,11.326,15.692l0,0
	C25.223,1.795,47.333,0.533,62.721,12.758l190.305,151.194c47.867,38.029,89.22,83.601,122.435,134.925l17.924,27.697
	C397.538,332.99,396.644,341.435,391.24,346.838z"/>
<path style="fill:#5F666F;" d="M252.35,349.664c13.572,10.675,27.627,20.756,42.162,30.163l27.697,17.924
	c6.416,4.152,14.86,3.258,20.263-2.146l48.768-48.768c5.404-5.404,6.298-13.848,2.146-20.264l-17.924-27.697
	c-9.406-14.535-19.488-28.59-30.163-42.162L252.35,349.664z"/>
<path style="opacity:0.1;enable-background:new    ;" d="M393.386,326.575l-17.924-27.697
	c-33.215-51.324-74.568-96.896-122.435-134.925L62.721,12.758C50.38,2.953,33.717,1.832,20.432,8.939
	c2.017,1.081,3.965,2.35,5.814,3.819l190.305,151.194c47.867,38.029,89.22,83.601,122.435,134.925l12.54,19.377
	c7.293,11.269,5.722,26.101-3.769,35.592l-36.693,36.693l11.145,7.212c6.416,4.152,14.86,3.258,20.264-2.146l48.767-48.767
	C396.644,341.435,397.538,332.99,393.386,326.575z"/>
<g>
</g>
<g>
</g>
<g>
</g>
<g>
</g>
<g>
</g>
<g>
</g>
<g>
</g>
<g>
</g>
<g>
</g>
<g>
</g>
<g>
</g>
<g>
</g>
<g>
</g>
<g>
</g>
<g>
</g>
</svg>
