<?xml version="1.0" encoding="iso-8859-1"?>
<!-- Generator: Adobe Illustrator 19.0.0, SVG Export Plug-In . SVG Version: 6.00 Build 0)  -->
<svg version="1.1" id="Capa_1" xmlns="http://www.w3.org/2000/svg" xmlns:xlink="http://www.w3.org/1999/xlink" x="0px" y="0px"
	 viewBox="0 0 512 512" style="enable-background:new 0 0 512 512;" xml:space="preserve">
<rect x="239.23" y="61.761" style="fill:#F6D83E;" width="86.37" height="208.1"/>
<rect x="239.23" y="61.761" style="fill:#F4AC3B;" width="86.37" height="49.924"/>
<rect x="239.23" y="79.22" style="opacity:0.1;enable-background:new    ;" width="86.37" height="15"/>
<path style="fill:#EC8087;" d="M306.779,0H258.05c-10.393,0-18.819,8.425-18.819,18.819v42.942h86.367V18.819
	C325.598,8.425,317.172,0,306.779,0z"/>
<path style="opacity:0.1;enable-background:new    ;" d="M306.779,0H279.92c10.393,0,18.819,8.425,18.819,18.819v251.046h26.858
	V18.819C325.597,8.425,317.172,0,306.779,0z"/>
<path style="fill:#507CDD;" d="M397.112,269.865h-86.367V69.112c0-4.059,3.291-7.35,7.35-7.35h71.666c4.059,0,7.35,3.291,7.35,7.35
	v200.753H397.112z"/>
<path style="opacity:0.1;enable-background:new    ;" d="M397.112,269.865h-86.367V69.112c0-4.059,3.291-7.35,7.35-7.35h71.666
	c4.059,0,7.35,3.291,7.35,7.35v200.753H397.112z"/>
<g>
	<rect x="310.75" y="111.69" style="fill:#394049;" width="86.37" height="15"/>
	<path style="fill:#394049;" d="M367.016,0H340.84c-8.418,0-15.243,6.824-15.243,15.243v46.519h56.661V15.243
		C382.259,6.824,375.434,0,367.016,0z"/>
</g>
<path style="opacity:0.15;enable-background:new    ;" d="M367.016,0h-17.093c8.418,0,15.243,6.824,15.243,15.243v46.518h17.092
	V15.243C382.259,6.824,375.434,0,367.016,0z"/>
<path style="opacity:0.1;enable-background:new    ;" d="M389.761,61.761h-21.265c4.059,0,7.35,3.291,7.35,7.35v200.753h21.265
	V69.112C397.112,65.052,393.821,61.761,389.761,61.761z"/>
<path style="fill:#76C9D2;" d="M187.727,270.663h-67.33V36.44c0-6.689,5.422-12.111,12.111-12.111h43.108
	c6.689,0,12.111,5.422,12.111,12.111L187.727,270.663L187.727,270.663z"/>
<path style="fill:#394049;" d="M175.616,24.329h-43.108c-6.688,0-12.111,5.422-12.111,12.111v22.436h67.33V36.44
	C187.727,29.751,182.304,24.329,175.616,24.329z"/>
<path style="opacity:0.1;enable-background:new    ;" d="M175.616,24.329h-16.504c4.059,0,7.35,3.291,7.35,7.35v238.984h21.265
	V36.44C187.727,29.751,182.304,24.329,175.616,24.329z"/>
<path style="fill:#394049;" d="M432.499,251.881H79.501c-7.949,0-14.393-6.444-14.393-14.393v-39.469
	c0-7.949,6.444-14.393,14.393-14.393h352.997c7.949,0,14.393,6.444,14.393,14.393v39.469
	C446.891,245.437,440.448,251.881,432.499,251.881z"/>
<path style="opacity:0.15;enable-background:new    ;" d="M432.499,183.626h-40.291c7.949,0,14.393,6.444,14.393,14.393v39.469
	c0,7.949-6.444,14.393-14.393,14.393h40.291c7.949,0,14.393-6.444,14.393-14.393v-39.469
	C446.891,190.07,440.448,183.626,432.499,183.626z"/>
<path style="fill:#4FBB74;" d="M419.561,251.881H92.439v236.968c0,12.786,10.365,23.151,23.151,23.151h280.82
	c12.786,0,23.151-10.365,23.151-23.151V251.881z"/>
<g>
	<path style="fill:#394049;" d="M178.229,342.065c-4.143,0-7.5-3.357-7.5-7.5v-8.575c0-4.143,3.357-7.5,7.5-7.5s7.5,3.357,7.5,7.5
		v8.575C185.729,338.708,182.371,342.065,178.229,342.065z"/>
	<path style="fill:#394049;" d="M333.772,342.065c-4.143,0-7.5-3.357-7.5-7.5v-8.575c0-4.143,3.357-7.5,7.5-7.5s7.5,3.357,7.5,7.5
		v8.575C341.272,338.708,337.914,342.065,333.772,342.065z"/>
	<path style="fill:#394049;" d="M256,361.01c-9.852,0-18.783-5.828-22.753-14.849c-1.668-3.791,0.054-8.217,3.845-9.886
		c3.792-1.665,8.217,0.054,9.886,3.845c1.574,3.578,5.115,5.89,9.023,5.89c3.906,0,7.448-2.312,9.022-5.889
		c1.667-3.79,6.092-5.511,9.886-3.843c3.791,1.668,5.512,6.094,3.843,9.886C274.782,355.183,265.852,361.01,256,361.01z"/>
</g>
<rect x="92.44" y="408.84" style="opacity:0.1;enable-background:new    ;" width="327.12" height="52.25"/>
<path style="opacity:0.1;enable-background:new    ;" d="M92.439,251.881v26.62h292.428v210.348
	c0,12.786-10.365,23.151-23.151,23.151h34.694c12.786,0,23.151-10.365,23.151-23.151V251.881H92.439z"/>
<g>
</g>
<g>
</g>
<g>
</g>
<g>
</g>
<g>
</g>
<g>
</g>
<g>
</g>
<g>
</g>
<g>
</g>
<g>
</g>
<g>
</g>
<g>
</g>
<g>
</g>
<g>
</g>
<g>
</g>
</svg>
