<?xml version="1.0" encoding="iso-8859-1"?>
<!-- Generator: Adobe Illustrator 19.0.0, SVG Export Plug-In . SVG Version: 6.00 Build 0)  -->
<svg version="1.1" id="Capa_1" xmlns="http://www.w3.org/2000/svg" xmlns:xlink="http://www.w3.org/1999/xlink" x="0px" y="0px"
	 viewBox="0 0 512.001 512.001" style="enable-background:new 0 0 512.001 512.001;" xml:space="preserve">
<g>
	<path style="fill:#394049;" d="M502.245,346.926c-0.852,0-1.717-0.146-2.564-0.454c-3.892-1.417-5.898-5.721-4.482-9.613
		c7.418-20.38-8.522-49.487-43.734-79.857c-37.585-32.417-92.397-62.686-154.336-85.23c-61.94-22.543-123.39-34.585-173.013-33.915
		c-46.495,0.631-77.417,12.682-84.834,33.062c-1.417,3.893-5.723,5.898-9.613,4.483c-3.893-1.417-5.899-5.721-4.483-9.613
		c9.811-26.953,44.871-42.199,98.726-42.93c51.396-0.691,114.741,11.668,178.348,34.818
		c63.606,23.151,120.073,54.392,159.002,87.967c40.784,35.176,57.844,69.393,48.033,96.346
		C508.186,345.034,505.309,346.926,502.245,346.926z"/>
	<path style="fill:#394049;" d="M32.233,346.926c-3.064,0-5.94-1.891-7.048-4.937c-9.81-26.953,7.249-61.17,48.033-96.346
		c38.928-33.575,95.397-64.816,159.003-87.967c63.605-23.149,126.934-35.501,178.346-34.818
		c53.854,0.731,88.916,15.977,98.727,42.93c1.417,3.893-0.59,8.196-4.482,9.613c-3.894,1.417-8.197-0.591-9.613-4.482
		c-7.418-20.38-38.338-32.431-84.834-33.062c-49.617-0.664-111.073,11.371-173.013,33.915
		c-61.94,22.543-116.751,52.813-154.337,85.229c-35.211,30.37-51.152,59.477-43.734,79.857c1.417,3.892-0.59,8.196-4.483,9.613
		C33.951,346.78,33.085,346.926,32.233,346.926z"/>
</g>
<circle style="fill:#4FBB74;" cx="267.243" cy="262.621" r="130.271"/>
<path style="opacity:0.1;enable-background:new    ;" d="M326.05,146.355c28.404,23.896,46.46,59.698,46.46,99.721
	c0,71.945-58.323,130.267-130.267,130.267c-21.162,0-41.143-5.051-58.811-14.006c22.653,19.058,51.887,30.546,83.807,30.546
	c71.945,0,130.267-58.323,130.267-130.267C397.507,211.835,368.446,167.844,326.05,146.355z"/>
<g>
	<path style="fill:#394049;" d="M182.364,264.458c-4.142,0-7.5-3.358-7.5-7.5V247.6c0-4.142,3.358-7.5,7.5-7.5
		c4.142,0,7.5,3.358,7.5,7.5v9.358C189.864,261.1,186.506,264.458,182.364,264.458z"/>
	<path style="fill:#394049;" d="M352.114,264.458c-4.142,0-7.5-3.358-7.5-7.5V247.6c0-4.142,3.358-7.5,7.5-7.5
		c4.143,0,7.5,3.358,7.5,7.5v9.358C359.615,261.1,356.257,264.458,352.114,264.458z"/>
	<path style="fill:#394049;" d="M267.24,285.134c-10.482,0-19.982-6.2-24.204-15.796c-1.668-3.791,0.054-8.217,3.845-9.885
		c3.789-1.669,8.217,0.053,9.885,3.845c1.828,4.152,5.939,6.836,10.474,6.836c4.534,0,8.646-2.683,10.474-6.835
		c1.669-3.79,6.096-5.512,9.886-3.843c3.791,1.668,5.512,6.095,3.843,9.886C287.22,278.935,277.72,285.134,267.24,285.134z"/>
	<path style="fill:#394049;" d="M406.415,384.948c-50.642,0.001-112.288-12.315-174.194-34.846
		c-63.606-23.151-120.074-54.392-159.003-87.967c-40.784-35.176-57.844-69.393-48.033-96.346c1.417-3.893,5.723-5.899,9.613-4.483
		c3.892,1.417,5.899,5.721,4.483,9.613c-7.418,20.38,8.522,49.487,43.734,79.857c37.586,32.417,92.397,62.686,154.337,85.23
		c61.94,22.544,123.38,34.571,173.013,33.915c46.495-0.631,77.416-12.682,84.834-33.062c1.417-3.893,5.715-5.9,9.613-4.483
		c3.893,1.417,5.899,5.721,4.482,9.613c-9.811,26.953-44.872,42.199-98.727,42.93C409.194,384.939,407.806,384.948,406.415,384.948z
		"/>
	<path style="fill:#394049;" d="M128.064,384.948c-1.395,0-2.775-0.009-4.153-0.028c-53.855-0.731-88.916-15.977-98.726-42.931
		c-1.417-3.892,0.59-8.196,4.483-9.613c3.891-1.418,8.195,0.59,9.613,4.483c7.417,20.38,38.338,32.431,84.834,33.062
		c49.638,0.662,111.074-11.371,173.013-33.915c61.94-22.544,116.75-52.813,154.336-85.23c35.212-30.369,51.152-59.477,43.734-79.857
		c-1.416-3.892,0.591-8.196,4.482-9.613c3.896-1.419,8.196,0.591,9.613,4.483c9.809,26.953-7.249,61.17-48.033,96.346
		c-38.928,33.575-95.396,64.816-159.002,87.967C240.356,372.631,178.704,384.948,128.064,384.948z"/>
</g>
<circle style="fill:#F6D83E;" cx="451.614" cy="134.55" r="33.32"/>
<path style="opacity:0.1;enable-background:new    ;" d="M460.588,102.459c9.071,5.955,15.065,16.211,15.065,27.872
	c0,18.404-14.92,33.324-33.324,33.324c-3.111,0-6.118-0.435-8.974-1.233c5.245,3.443,11.516,5.452,18.259,5.452
	c18.404,0,33.324-14.92,33.324-33.324C484.938,119.256,474.631,106.378,460.588,102.459z"/>
<circle style="fill:#F6D83E;" cx="103.651" cy="377.443" r="33.32"/>
<path style="opacity:0.1;enable-background:new    ;" d="M112.622,345.355c9.071,5.955,15.065,16.211,15.065,27.872
	c0,18.404-14.92,33.324-33.324,33.324c-3.111,0-6.118-0.435-8.974-1.233c5.245,3.443,11.516,5.452,18.259,5.452
	c18.405,0,33.324-14.92,33.324-33.324C136.972,362.153,126.666,349.275,112.622,345.355z"/>
<circle style="fill:#F6D83E;" cx="33.32" cy="196.611" r="33.32"/>
<path style="opacity:0.1;enable-background:new    ;" d="M42.298,164.515c9.071,5.954,15.065,16.21,15.065,27.872
	c0,18.404-14.92,33.324-33.324,33.324c-3.111,0-6.118-0.435-8.974-1.233c5.245,3.443,11.516,5.452,18.259,5.452
	c18.404,0,33.324-14.92,33.324-33.324C66.649,181.313,56.343,168.434,42.298,164.515z"/>
<g>
</g>
<g>
</g>
<g>
</g>
<g>
</g>
<g>
</g>
<g>
</g>
<g>
</g>
<g>
</g>
<g>
</g>
<g>
</g>
<g>
</g>
<g>
</g>
<g>
</g>
<g>
</g>
<g>
</g>
</svg>
