<?xml version="1.0" encoding="iso-8859-1"?>
<!-- Generator: Adobe Illustrator 19.0.0, SVG Export Plug-In . SVG Version: 6.00 Build 0)  -->
<svg version="1.1" id="Capa_1" xmlns="http://www.w3.org/2000/svg" xmlns:xlink="http://www.w3.org/1999/xlink" x="0px" y="0px"
	 viewBox="0 0 512 512" style="enable-background:new 0 0 512 512;" xml:space="preserve">
<g>
	<path style="fill:#F6D83E;" d="M312.931,512L312.931,512c-11.205,0-20.289-9.084-20.289-20.289v-109.48h40.578v109.48
		C333.22,502.916,324.136,512,312.931,512z"/>
	<path style="fill:#F6D83E;" d="M126.914,378.133L126.914,378.133c-11.205,0-20.289-9.084-20.289-20.289V194.799h40.578v163.045
		C147.203,369.05,138.119,378.133,126.914,378.133z"/>
</g>
<path style="fill:#D59C6E;" d="M47.331,72.778l153.814,371.34c20.243,48.87,89.467,48.87,109.709,0l153.81-371.331
	c6.645-16.042-1.52-34.408-17.904-40.16C326.977-9.429,192.976-12.284,65.332,32.583C48.913,38.355,40.671,56.699,47.331,72.778z"/>
<path style="opacity:0.1;enable-background:new    ;" d="M292.642,382.231v104.146c14.122-7.912,25.435-20.496,32.072-36.519
	l8.506-20.535v-47.092L292.642,382.231L292.642,382.231z"/>
<polygon style="opacity:0.1;enable-background:new    ;" points="106.625,194.799 106.625,255.122 147.203,353.086 147.203,194.799 
	"/>
<path style="fill:#F6D83E;" d="M68.834,124.689l132.312,319.429c20.243,48.87,89.467,48.87,109.709,0l132.312-319.429
	C327.526,76.789,193.612,73.005,68.834,124.689z"/>
<path style="fill:#DC5371;" d="M388.86,155.62c-40.122,0-72.648,32.525-72.648,72.648c0,33.988,23.344,62.517,54.871,70.448
	l55.018-132.825C415.209,159.374,402.475,155.62,388.86,155.62z"/>
<g style="opacity:0.1;">
	<circle cx="353.78" cy="252.08" r="7.451"/>
	<circle cx="396.97" cy="178.95" r="7.451"/>
</g>
<path style="fill:#DC5371;" d="M284.611,88.192c-47.624-2.825-96.153,1.316-144.122,13.037
	c0.058,40.073,32.558,72.541,72.645,72.541c40.122,0,72.648-32.525,72.648-72.648C285.781,96.706,285.366,92.39,284.611,88.192z"/>
<g style="opacity:0.1;">
	<circle cx="195.88" cy="142.41" r="7.451"/>
	<circle cx="248.55" cy="116.92" r="7.451"/>
</g>
<g style="opacity:0.1;">
	<circle cx="100.58" cy="77.34" r="7.451"/>
	<circle cx="153.25" cy="44.4" r="7.451"/>
	<circle cx="241.1" cy="59.3" r="7.451"/>
	<circle cx="338.88" cy="34.04" r="7.451"/>
	<circle cx="396.97" cy="71.811" r="7.451"/>
</g>
<path style="fill:#DC5371;" d="M183.353,268.472c-18.211,0-34.844,6.717-47.594,17.788l52.732,127.307
	c37.722-2.639,67.51-34.054,67.51-72.447C256,300.997,223.475,268.472,183.353,268.472z"/>
<g style="opacity:0.1;">
	<circle cx="180.98" cy="301.42" r="7.451"/>
	<circle cx="229.03" cy="323.94" r="7.451"/>
	<circle cx="203.33" cy="366.3" r="7.451"/>
</g>
<path style="opacity:0.1;enable-background:new    ;" d="M446.761,32.627c-9.48-3.328-19.049-6.409-28.697-9.242
	c11.107,7.979,15.793,22.877,10.281,36.185l-21.436,51.752C300.056,76.604,180.77,78.324,68.834,124.689l9.959,24.044
	c105.438-41.039,216.829-42.968,317.832-12.582l-122.09,294.75c-10.323,24.923-33.386,37.127-56.194,36.63
	c28.728,23.505,76.31,15.705,92.513-23.413L464.666,72.787C471.311,56.744,463.145,38.379,446.761,32.627z"/>
<g>
	<path style="fill:#394049;" d="M144.11,215.972c-4.143,0-7.5-3.358-7.5-7.5v-12.337c0-4.142,3.357-7.5,7.5-7.5s7.5,3.358,7.5,7.5
		v12.337C151.61,212.614,148.253,215.972,144.11,215.972z"/>
	<path style="fill:#394049;" d="M367.89,215.972c-4.142,0-7.5-3.358-7.5-7.5v-12.337c0-4.142,3.358-7.5,7.5-7.5
		c4.143,0,7.5,3.358,7.5,7.5v12.337C375.39,212.614,372.032,215.972,367.89,215.972z"/>
	<path style="fill:#394049;" d="M256,243.227c-12.872,0-24.539-7.614-29.723-19.398c-1.668-3.792,0.054-8.217,3.845-9.885
		c3.79-1.668,8.217,0.054,9.886,3.845c2.789,6.341,9.066,10.438,15.992,10.438c6.925,0,13.202-4.097,15.992-10.437
		c1.668-3.791,6.093-5.513,9.885-3.844c3.792,1.668,5.513,6.094,3.844,9.886C280.536,235.614,268.87,243.227,256,243.227z"/>
</g>
<g>
</g>
<g>
</g>
<g>
</g>
<g>
</g>
<g>
</g>
<g>
</g>
<g>
</g>
<g>
</g>
<g>
</g>
<g>
</g>
<g>
</g>
<g>
</g>
<g>
</g>
<g>
</g>
<g>
</g>
</svg>
