<?xml version="1.0" encoding="iso-8859-1"?>
<!-- Generator: Adobe Illustrator 19.0.0, SVG Export Plug-In . SVG Version: 6.00 Build 0)  -->
<svg version="1.1" id="Capa_1" xmlns="http://www.w3.org/2000/svg" xmlns:xlink="http://www.w3.org/1999/xlink" x="0px" y="0px"
	 viewBox="0 0 512 512" style="enable-background:new 0 0 512 512;" xml:space="preserve">
<path style="fill:#D59C6E;" d="M476.788,139.61H35.212c-16.114,0-29.178,13.063-29.178,29.178v271.015
	c0,16.115,13.063,29.178,29.178,29.178h441.577c16.114,0,29.178-13.063,29.178-29.178V168.788
	C505.966,152.673,492.903,139.61,476.788,139.61z"/>
<path style="opacity:0.1;enable-background:new    ;" d="M476.788,139.61h-9.873v265.969c0,16.114-13.063,29.178-29.178,29.178
	H6.034v5.046c0,16.114,13.063,29.177,29.178,29.177h441.577c16.115,0,29.178-13.063,29.178-29.177V168.788
	C505.966,152.673,492.903,139.61,476.788,139.61z"/>
<path style="opacity:0.15;enable-background:new    ;" d="M476.788,139.61H35.212c-16.114,0-29.178,13.063-29.178,29.178v98.064
	c0,26.299,21.32,47.619,47.619,47.619h404.695c26.299,0,47.619-21.32,47.619-47.619v-98.064
	C505.966,152.673,492.903,139.61,476.788,139.61z"/>
<path style="opacity:0.1;enable-background:new    ;" d="M307.715,296.495h-103.43c-7.171,0-12.984,5.813-12.984,12.984v41.944
	c0,7.171,5.813,12.984,12.984,12.984h103.43c7.171,0,12.984-5.813,12.984-12.984v-41.944
	C320.699,302.308,314.886,296.495,307.715,296.495z"/>
<path style="fill:#F6D83E;" d="M307.715,280.515h-103.43c-7.171,0-12.984,5.813-12.984,12.984v41.944
	c0,7.171,5.813,12.984,12.984,12.984h103.43c7.171,0,12.984-5.813,12.984-12.984v-41.944
	C320.699,286.328,314.886,280.515,307.715,280.515z"/>
<g>
	<path style="fill:#394049;" d="M29.318,435.771v-12.236c0-3.952-3.204-7.156-7.156-7.156H4.075c-2.25,0-4.075,1.824-4.075,4.075
		v35.841c0,10.339,8.381,18.72,18.72,18.72h35.841c2.25,0,4.075-1.824,4.075-4.075v-18.087c0-3.952-3.204-7.156-7.156-7.156H39.243
		C33.762,445.697,29.318,441.253,29.318,435.771z"/>
	<path style="fill:#394049;" d="M482.682,435.771v-12.236c0-3.952,3.204-7.156,7.156-7.156h18.087c2.25,0,4.075,1.824,4.075,4.075
		v35.841c0,10.339-8.381,18.72-18.72,18.72h-35.841c-2.25,0-4.075-1.824-4.075-4.075v-18.087c0-3.952,3.204-7.156,7.156-7.156
		h12.236C478.238,445.697,482.682,441.253,482.682,435.771z"/>
</g>
<path style="fill:#D59C6E;" d="M396.353,139.61h-36.202V85.102c0-6.347-3.964-11.915-8.484-11.915H160.332
	c-4.519,0-8.484,5.568-8.484,11.915v54.508h-36.202V85.102c0-26.531,20.046-48.117,44.685-48.117h191.336
	c24.64,0,44.685,21.585,44.685,48.117v54.508H396.353z"/>
<rect x="173.55" y="36.985" style="fill:#394049;" width="164.9" height="36.2"/>
<rect x="115.65" y="111.19" style="opacity:0.1;enable-background:new    ;" width="36.2" height="28.425"/>
<rect x="360.15" y="111.19" style="opacity:0.1;enable-background:new    ;" width="36.2" height="28.425"/>
<path style="opacity:0.1;enable-background:new    ;" d="M279.531,321.971h-47.063c-4.142,0-7.5-3.357-7.5-7.5s3.358-7.5,7.5-7.5
	h47.063c4.142,0,7.5,3.357,7.5,7.5S283.674,321.971,279.531,321.971z"/>
<path style="opacity:0.1;enable-background:new    ;" d="M301.002,409.836h-90.004c-4.142,0-7.5-3.357-7.5-7.5s3.358-7.5,7.5-7.5
	h90.004c4.142,0,7.5,3.357,7.5,7.5C308.502,406.478,305.145,409.836,301.002,409.836z"/>
<g>
</g>
<g>
</g>
<g>
</g>
<g>
</g>
<g>
</g>
<g>
</g>
<g>
</g>
<g>
</g>
<g>
</g>
<g>
</g>
<g>
</g>
<g>
</g>
<g>
</g>
<g>
</g>
<g>
</g>
</svg>
