<?xml version="1.0" encoding="iso-8859-1"?>
<!-- Generator: Adobe Illustrator 19.0.0, SVG Export Plug-In . SVG Version: 6.00 Build 0)  -->
<svg version="1.1" id="Capa_1" xmlns="http://www.w3.org/2000/svg" xmlns:xlink="http://www.w3.org/1999/xlink" x="0px" y="0px"
	 viewBox="0 0 512.001 512.001" style="enable-background:new 0 0 512.001 512.001;" xml:space="preserve">
<rect x="34.23" y="39.965" style="fill:#FFFFFF;" width="443.53" height="234.94"/>
<rect x="34.23" y="39.965" style="opacity:0.1;enable-background:new    ;" width="443.53" height="234.94"/>
<polygon style="opacity:0.1;enable-background:new    ;" points="34.233,39.965 34.233,58.682 447.748,58.682 447.748,274.901 
	477.767,274.901 477.767,39.965 "/>
<path style="fill:#5F666F;" d="M492.697,0H19.304C13.258,0,8.356,4.902,8.356,10.948v18.069c0,6.047,4.902,10.948,10.948,10.948
	h473.392c6.046,0,10.948-4.902,10.948-10.948V10.948C503.645,4.902,498.742,0,492.697,0z"/>
<path style="opacity:0.1;enable-background:new    ;" d="M492.697,0h-44.949c6.047,0,10.948,4.902,10.948,10.948v18.069
	c0,6.047-4.902,10.948-10.948,10.948h44.949c6.047,0,10.948-4.902,10.948-10.948V10.948C503.645,4.902,498.743,0,492.697,0z"/>
<path style="fill:#5F666F;" d="M492.697,274.901H19.304c-6.047,0-10.948,4.902-10.948,10.948v18.069
	c0,6.047,4.902,10.948,10.948,10.948h473.392c6.046,0,10.948-4.902,10.948-10.948V285.85
	C503.645,279.803,498.742,274.901,492.697,274.901z"/>
<path style="opacity:0.1;enable-background:new    ;" d="M492.697,274.901h-44.949c6.047,0,10.948,4.902,10.948,10.948v18.069
	c0,6.047-4.902,10.948-10.948,10.948h44.949c6.046,0,10.948-4.902,10.948-10.948V285.85
	C503.645,279.803,498.742,274.901,492.697,274.901z"/>
<rect x="234" y="314.87" style="fill:#394049;" width="44" height="153.13"/>
<polygon style="opacity:0.15;enable-background:new    ;" points="233.999,314.866 233.999,348.68 261.125,348.68 261.125,448.162 
	233.999,448.162 233.999,467.997 278.001,467.997 278.001,314.866 "/>
<path style="fill:#5F666F;" d="M168.753,481.51v16.977c0,7.463,6.05,13.513,13.513,13.513h147.469
	c7.463,0,13.513-6.05,13.513-13.513V481.51c0-7.463-6.05-13.513-13.513-13.513h-147.47
	C174.803,467.997,168.753,474.047,168.753,481.51z"/>
<path style="opacity:0.1;enable-background:new    ;" d="M329.735,467.997h-31.466c7.463,0,13.513,6.05,13.513,13.513v16.978
	c0,7.463-6.05,13.513-13.513,13.513h31.466c7.463,0,13.513-6.05,13.513-13.513V481.51
	C343.247,474.047,337.197,467.997,329.735,467.997z"/>
<path style="fill:#507CDD;" d="M183.286,241.333H95.381c-3.115,0-5.64-2.525-5.64-5.64V183.4h99.184v52.293
	C188.926,238.807,186.4,241.333,183.286,241.333z"/>
<path style="fill:#4FBB74;" d="M95.381,125.467h87.904c3.115,0,5.64,2.525,5.64,5.64V183.4H89.741v-52.293
	C89.741,127.992,92.266,125.467,95.381,125.467z"/>
<g>
	<path style="fill:#394049;" d="M426.59,154.974H235.093c-4.142,0-7.5-3.357-7.5-7.5s3.358-7.5,7.5-7.5H426.59
		c4.142,0,7.5,3.357,7.5,7.5C434.09,151.616,430.732,154.974,426.59,154.974z"/>
	<path style="fill:#394049;" d="M426.59,191.9H235.093c-4.142,0-7.5-3.357-7.5-7.5s3.358-7.5,7.5-7.5H426.59
		c4.142,0,7.5,3.357,7.5,7.5S430.732,191.9,426.59,191.9z"/>
	<path style="fill:#394049;" d="M360.537,228.827H235.093c-4.142,0-7.5-3.357-7.5-7.5s3.358-7.5,7.5-7.5h125.443
		c4.142,0,7.5,3.357,7.5,7.5C368.037,225.47,364.679,228.827,360.537,228.827z"/>
</g>
<g>
</g>
<g>
</g>
<g>
</g>
<g>
</g>
<g>
</g>
<g>
</g>
<g>
</g>
<g>
</g>
<g>
</g>
<g>
</g>
<g>
</g>
<g>
</g>
<g>
</g>
<g>
</g>
<g>
</g>
</svg>
