<?xml version="1.0" encoding="iso-8859-1"?>
<!-- Generator: Adobe Illustrator 19.0.0, SVG Export Plug-In . SVG Version: 6.00 Build 0)  -->
<svg version="1.1" id="Capa_1" xmlns="http://www.w3.org/2000/svg" xmlns:xlink="http://www.w3.org/1999/xlink" x="0px" y="0px"
	 viewBox="0 0 512.001 512.001" style="enable-background:new 0 0 512.001 512.001;" xml:space="preserve">
<g>
	<path style="fill:#DC5371;" d="M401.529,374.429c-4.143,0-7.5-3.357-7.5-7.5V39.903c0-4.143,3.357-7.5,7.5-7.5s7.5,3.357,7.5,7.5
		v327.025C409.029,371.071,405.672,374.429,401.529,374.429z"/>
	<path style="fill:#DC5371;" d="M51.865,486.279c-4.143,0-7.5-3.357-7.5-7.5V255.078c0-4.143,3.357-7.5,7.5-7.5s7.5,3.357,7.5,7.5
		v223.701C59.365,482.922,56.008,486.279,51.865,486.279z"/>
	<path style="fill:#DC5371;" d="M401.529,374.429H93.082c-4.143,0-7.5-3.357-7.5-7.5s3.357-7.5,7.5-7.5h308.447
		c4.143,0,7.5,3.357,7.5,7.5S405.672,374.429,401.529,374.429z"/>
</g>
<path style="fill:#76C9D2;" d="M405.69,508.229L3.771,106.31c-5.028-5.027-5.028-13.179,0-18.206L88.104,3.771
	c5.028-5.028,13.179-5.028,18.206,0L508.229,405.69c5.028,5.028,5.028,13.179,0,18.206l-84.333,84.333
	C418.868,513.257,410.717,513.257,405.69,508.229z"/>
<path style="opacity:0.5;fill:#FFFFFF;enable-background:new    ;" d="M508.229,405.69L106.31,3.771
	c-5.028-5.028-13.179-5.028-18.207,0L57.962,33.912l420.125,420.125l30.142-30.142C513.258,418.868,513.258,410.717,508.229,405.69z
	"/>
<path style="opacity:0.1;enable-background:new    ;" d="M508.229,405.69L106.31,3.771c-5.028-5.028-13.179-5.028-18.206,0
	L78.4,13.475L470.615,405.69c5.027,5.028,5.027,13.179,0,18.206l-74.63,74.63l9.704,9.704c5.027,5.028,13.178,5.028,18.206,0
	l84.333-84.333C513.258,418.868,513.258,410.717,508.229,405.69z"/>
<path style="fill:#394049;" d="M288.636,216.392c-2.93,2.929-2.93,7.678-0.001,10.606c1.465,1.465,3.384,2.197,5.304,2.197
	c1.919,0,3.839-0.732,5.303-2.196l15.149-15.148l-10.607-10.606L288.636,216.392z M243.595,188.093
	c-2.929,2.93-2.929,7.678,0,10.607c1.465,1.464,3.385,2.196,5.304,2.196s3.839-0.732,5.304-2.196l23.519-23.519l-10.607-10.607
	L243.595,188.093z M215.297,143.053c-2.93,2.929-2.93,7.678-0.001,10.606c1.465,1.465,3.384,2.197,5.304,2.197
	c1.919,0,3.839-0.732,5.303-2.196l15.149-15.148l-10.606-10.606L215.297,143.053z M141.958,69.714
	c-2.93,2.929-2.93,7.678-0.001,10.606c1.465,1.465,3.384,2.197,5.304,2.197c1.919,0,3.839-0.732,5.303-2.196l15.149-15.148
	l-10.606-10.606L141.958,69.714z M170.257,114.755c-2.929,2.929-2.929,7.677,0.001,10.606c1.464,1.464,3.384,2.196,5.303,2.196
	c1.919,0,3.839-0.732,5.304-2.197l23.517-23.518l-10.606-10.606L170.257,114.755z M96.918,41.416
	c-2.929,2.929-2.929,7.678,0.001,10.607c1.464,1.464,3.384,2.196,5.303,2.196c1.919,0,3.839-0.732,5.304-2.197l23.517-23.518
	l-10.606-10.606L96.918,41.416z M435.313,363.07c-2.929,2.929-2.929,7.678,0.001,10.607c1.464,1.464,3.384,2.196,5.303,2.196
	s3.839-0.732,5.304-2.197l15.148-15.148l-10.607-10.606L435.313,363.07z M316.934,261.432c-2.929,2.93-2.929,7.678,0,10.608
	c1.465,1.464,3.385,2.196,5.304,2.196c1.919,0,3.839-0.733,5.304-2.196l23.519-23.519l-10.607-10.607L316.934,261.432z
	 M487.13,384.591l-23.519,23.519c-2.929,2.93-2.929,7.678,0,10.607c1.465,1.464,3.385,2.196,5.304,2.196
	c1.919,0,3.839-0.732,5.304-2.196l23.519-23.519L487.13,384.591z M390.272,334.771c-2.929,2.93-2.929,7.678,0,10.607
	c1.465,1.464,3.385,2.196,5.304,2.196c1.919,0,3.839-0.732,5.304-2.196l23.519-23.519l-10.607-10.607L390.272,334.771z
	 M361.974,289.731c-2.929,2.929-2.929,7.678,0.001,10.607c1.464,1.464,3.384,2.196,5.303,2.196s3.839-0.732,5.304-2.197
	l15.147-15.148l-10.606-10.607L361.974,289.731z"/>
<g>
</g>
<g>
</g>
<g>
</g>
<g>
</g>
<g>
</g>
<g>
</g>
<g>
</g>
<g>
</g>
<g>
</g>
<g>
</g>
<g>
</g>
<g>
</g>
<g>
</g>
<g>
</g>
<g>
</g>
</svg>
