<?xml version="1.0" encoding="iso-8859-1"?>
<!-- Generator: Adobe Illustrator 19.0.0, SVG Export Plug-In . SVG Version: 6.00 Build 0)  -->
<svg version="1.1" id="Capa_1" xmlns="http://www.w3.org/2000/svg" xmlns:xlink="http://www.w3.org/1999/xlink" x="0px" y="0px"
	 viewBox="0 0 512 512" style="enable-background:new 0 0 512 512;" xml:space="preserve">
<rect x="56.783" y="228.34" style="fill:#394049;" width="35.454" height="22.15"/>
<rect x="56.783" y="228.34" style="opacity:0.15;enable-background:new    ;" width="35.454" height="22.15"/>
<rect x="56.783" y="162.99" style="fill:#394049;" width="35.454" height="22.15"/>
<rect x="56.783" y="162.99" style="opacity:0.15;enable-background:new    ;" width="35.454" height="22.15"/>
<path style="fill:#394049;" d="M151.279,400.53h-49.834c-5.085,0-9.208,4.122-9.208,9.208v55.552c0,5.085,4.122,9.208,9.208,9.208
	h49.834c5.085,0,9.208-4.123,9.208-9.208v-55.552C160.487,404.653,156.364,400.53,151.279,400.53z"/>
<rect x="92.24" y="429.9" style="opacity:0.15;enable-background:new    ;" width="68.25" height="17.52"/>
<path style="fill:#394049;" d="M360.721,400.53h49.834c5.085,0,9.208,4.122,9.208,9.208v55.552c0,5.085-4.122,9.208-9.208,9.208
	h-49.834c-5.085,0-9.208-4.123-9.208-9.208v-55.552C351.513,404.653,355.635,400.53,360.721,400.53z"/>
<rect x="351.51" y="429.9" style="opacity:0.15;enable-background:new    ;" width="68.25" height="17.52"/>
<path style="fill:#F6D83E;" d="M419.763,406.154H92.237V88.142c0-17.889,12.562-33.318,30.079-36.945l0,0
	c88.187-18.26,179.18-18.26,267.367,0l0,0c17.517,3.627,30.079,19.057,30.079,36.945L419.763,406.154L419.763,406.154z"/>
<path style="opacity:0.1;enable-background:new    ;" d="M419.763,406.154H92.237V265.597c0-11.68,9.468-21.148,21.148-21.148
	h285.23c11.68,0,21.148,9.468,21.148,21.148L419.763,406.154L419.763,406.154z"/>
<path style="fill:#394049;" d="M342.061,406.154H169.939V295.233c0-7.425,6.019-13.445,13.445-13.445h145.233
	c7.425,0,13.445,6.019,13.445,13.445v110.921H342.061z"/>
<path style="fill:#5F666F;" d="M422.815,429.902H89.185c-8.624,0-15.616-6.991-15.616-15.616v-20.525
	c0-8.624,6.991-15.616,15.616-15.616h333.63c8.624,0,15.616,6.991,15.616,15.616v20.525
	C438.431,422.911,431.439,429.902,422.815,429.902z"/>
<g style="opacity:0.1;">
	<path d="M422.815,378.146h-27.529c8.624,0,15.616,6.992,15.616,15.616v20.525c0,8.625-6.991,15.616-15.616,15.616h27.529
		c8.624,0,15.616-6.991,15.616-15.616v-20.525C438.431,385.137,431.439,378.146,422.815,378.146z"/>
	<path d="M422.815,430.402h-27.528v-1c8.335,0,15.115-6.781,15.115-15.116v-20.525c0-8.335-6.78-15.116-15.115-15.116v-1h27.528
		c8.887,0,16.116,7.229,16.116,16.116v20.525C438.931,423.172,431.701,430.402,422.815,430.402z M400.877,429.402h21.938
		c8.335,0,15.116-6.781,15.116-15.116v-20.525c0-8.335-6.781-15.116-15.116-15.116h-21.938c6.139,2.278,10.524,8.194,10.524,15.116
		v20.525C411.401,421.208,407.016,427.124,400.877,429.402z"/>
</g>
<path style="fill:#76C9D2;" d="M365.247,118.439H146.753c-6.949,0-12.583,5.634-12.583,12.583v113.427h243.66V131.022
	C377.83,124.073,372.196,118.439,365.247,118.439z"/>
<g>
	<path style="fill:#394049;" d="M171.481,183.31c-4.142,0-7.5-3.358-7.5-7.5v-9.319c0-4.142,3.358-7.5,7.5-7.5s7.5,3.358,7.5,7.5
		v9.319C178.981,179.952,175.623,183.31,171.481,183.31z"/>
	<path style="fill:#394049;" d="M340.52,183.31c-4.142,0-7.5-3.358-7.5-7.5v-9.319c0-4.142,3.358-7.5,7.5-7.5
		c4.143,0,7.5,3.358,7.5,7.5v9.319C348.02,179.952,344.662,183.31,340.52,183.31z"/>
	<path style="fill:#394049;" d="M256,203.898c-10.45,0-19.922-6.181-24.131-15.748c-1.668-3.791,0.053-8.217,3.844-9.885
		c3.79-1.668,8.217,0.053,9.885,3.844c1.814,4.124,5.898,6.789,10.401,6.789c4.504,0,8.586-2.665,10.401-6.788
		c1.667-3.791,6.092-5.514,9.886-3.844c3.791,1.669,5.512,6.095,3.843,9.886C275.921,197.717,266.449,203.898,256,203.898z"/>
</g>
<g>
	<rect x="169.94" y="307" style="fill:#5F666F;" width="172.12" height="15"/>
	<rect x="169.94" y="339.93" style="fill:#5F666F;" width="172.12" height="15"/>
</g>
<g>
	<path style="fill:#394049;" d="M47.962,262.235H8.821c-4.872,0-8.821-3.949-8.821-8.822v-93.338c0-4.872,3.949-8.822,8.821-8.822
		h39.14c4.872,0,8.821,3.95,8.821,8.822v93.338C56.783,258.285,52.833,262.235,47.962,262.235z"/>
	<rect x="419.76" y="228.34" style="fill:#394049;" width="35.454" height="22.15"/>
</g>
<rect x="419.76" y="228.34" style="opacity:0.15;enable-background:new    ;" width="35.454" height="22.15"/>
<rect x="419.76" y="162.99" style="fill:#394049;" width="35.454" height="22.15"/>
<rect x="419.76" y="162.99" style="opacity:0.15;enable-background:new    ;" width="35.454" height="22.15"/>
<path style="fill:#394049;" d="M464.038,262.235h39.14c4.872,0,8.822-3.949,8.822-8.822v-93.338c0-4.872-3.949-8.822-8.822-8.822
	h-39.14c-4.872,0-8.822,3.95-8.822,8.822v93.338C455.217,258.285,459.167,262.235,464.038,262.235z"/>
<path style="opacity:0.15;enable-background:new    ;" d="M503.178,151.254h-13.245c4.872,0,8.822,3.949,8.822,8.822v93.338
	c0,4.872-3.949,8.822-8.822,8.822h13.245c4.872,0,8.821-3.949,8.821-8.822v-93.338C512,155.204,508.05,151.254,503.178,151.254z"/>
<path style="opacity:0.15;enable-background:new    ;" d="M47.962,151.254H34.717c4.872,0,8.822,3.949,8.822,8.822v93.338
	c0,4.872-3.95,8.822-8.822,8.822h13.245c4.872,0,8.821-3.949,8.821-8.822v-93.338C56.783,155.204,52.834,151.254,47.962,151.254z"/>
<rect x="191.03" y="65.25" style="fill:#FFFFFF;" width="129.93" height="27.689"/>
<g>
	<path style="fill:#EC8087;" d="M169.054,92.936h21.979V65.247h-21.979c-3.153,0-5.71,2.556-5.71,5.71v16.27
		C163.345,90.38,165.901,92.936,169.054,92.936z"/>
	<path style="fill:#EC8087;" d="M342.946,92.936h-21.979V65.247h21.979c3.153,0,5.71,2.556,5.71,5.71v16.27
		C348.655,90.38,346.099,92.936,342.946,92.936z"/>
	<rect x="92.24" y="339.1" style="fill:#EC8087;" width="77.7" height="39.05"/>
</g>
<rect x="141.25" y="339.1" style="fill:#FFFFFF;" width="28.688" height="39.05"/>
<rect x="342.06" y="339.1" style="fill:#EC8087;" width="77.7" height="39.05"/>
<rect x="342.06" y="339.1" style="fill:#FFFFFF;" width="28.688" height="39.05"/>
<path style="opacity:0.1;enable-background:new    ;" d="M389.684,51.197L389.684,51.197c-48.3-10.001-97.441-14.511-146.501-13.557
	c40.516,0.788,80.978,5.298,120.866,13.557l0,0c17.517,3.627,30.079,19.057,30.079,36.945v290.004h25.635V88.142
	C419.763,70.254,407.201,54.824,389.684,51.197z"/>
<g>
</g>
<g>
</g>
<g>
</g>
<g>
</g>
<g>
</g>
<g>
</g>
<g>
</g>
<g>
</g>
<g>
</g>
<g>
</g>
<g>
</g>
<g>
</g>
<g>
</g>
<g>
</g>
<g>
</g>
</svg>
