<?xml version="1.0" encoding="iso-8859-1"?>
<!-- Generator: Adobe Illustrator 19.0.0, SVG Export Plug-In . SVG Version: 6.00 Build 0)  -->
<svg version="1.1" id="Capa_1" xmlns="http://www.w3.org/2000/svg" xmlns:xlink="http://www.w3.org/1999/xlink" x="0px" y="0px"
	 viewBox="0 0 512 512" style="enable-background:new 0 0 512 512;" xml:space="preserve">
<path style="fill:#D59C6E;" d="M402.742,0H72.42C54.718,0,40.368,14.35,40.368,32.053v447.895C40.368,497.65,54.718,512,72.42,512
	h330.322c17.702,0,32.052-14.35,32.052-32.052V32.053C434.795,14.35,420.444,0,402.742,0z"/>
<path style="opacity:0.05;enable-background:new    ;" d="M213.451,271.786c-83.356-28.851-139.79-0.659-173.083,29.278v20.861
	c12.684-13.549,29.777-27.361,51.868-36.54c34.569-14.365,73.701-14.17,116.308,0.577c51.174,17.712,99.131,26.56,142.772,26.558
	c29.99-0.001,57.936-4.188,83.478-12.541v-15.85C374.466,305.418,298.821,301.334,213.451,271.786z M199.707,41.394
	c4.033,0.479,8.161,0.72,12.402,0.72c32.196,0,70.474-13.879,116.263-42.113h-29.857c-38.709,20.94-70.663,29.637-97.036,26.499
	c-23.205-2.76-38.867-14.428-52.11-26.5H127.49c1.227,1.155,2.471,2.338,3.736,3.544C147.093,18.666,166.842,37.486,199.707,41.394z
	 M434.723,30.009c-43.694-5.842-72.89,2.703-108.765,13.223c-26.264,7.701-56.031,16.431-99.125,22.447
	c-48.059,6.709-87.974,2.378-122.018-13.244C79.545,40.84,61.581,24.76,47.97,11.338c-3.399,4.008-5.834,8.857-6.937,14.197
	c26.74,25.808,68.139,58.156,144.582,58.156c13.329,0,27.725-0.983,43.293-3.157c44.184-6.169,74.513-15.063,101.271-22.909
	c35.979-10.55,62.97-18.455,104.616-12.472v-13.1C434.795,31.366,434.766,30.685,434.723,30.009z M213.715,202.978
	c-45.39-17.647-87.004-17.309-113.92-13.917c-22.474,2.832-43.024,8.806-59.427,17.055v17.109
	c15.604-9.311,37.463-16.278,61.302-19.281c25.195-3.175,64.146-3.495,106.609,13.015c25.208,9.801,58.568,15.072,93.954,15.071
	c45.157-0.001,93.599-8.591,132.561-27.304v-16.874C370.034,221.99,270.208,224.942,213.715,202.978z M173.773,125.219
	c-45.39-17.647-87.004-17.309-113.92-13.917c-6.686,0.842-13.198,1.967-19.485,3.342v15.404c6.849-1.632,14.009-2.938,21.36-3.864
	c25.197-3.176,64.146-3.494,106.61,13.016c25.208,9.801,58.568,15.072,93.953,15.071c62.487-0.002,131.265-16.446,172.504-53.411
	V79.52C381.29,141.326,244.022,152.533,173.773,125.219z"/>
<circle style="opacity:0.1;enable-background:new    ;" cx="243.34" cy="205.89" r="156.77"/>
<path style="fill:#76C9D2;" d="M40.368,345.974v133.973C40.368,497.65,54.718,512,72.42,512h330.322
	c17.702,0,32.052-14.35,32.052-32.052V345.974H40.368z"/>
<path style="opacity:0.1;enable-background:new    ;" d="M402.742,0h-34.033c17.702,0,32.052,14.35,32.052,32.053v447.895
	c0,17.702-14.35,32.052-32.052,32.052h34.033c17.702,0,32.052-14.35,32.052-32.052V32.053C434.795,14.35,420.444,0,402.742,0z"/>
<path style="fill:#F6D83E;" d="M359.112,345.483l-5.157-14.086c36.643-13.415,54.781-25.95,64.694-44.707
	c10.499-19.865,12.561-49.407,6.894-98.78l14.902-1.71c6.118,53.308,3.646,84.452-8.534,107.499
	C418.243,319.56,392.923,333.104,359.112,345.483z"/>
<path style="opacity:0.1;enable-background:new    ;" d="M356.387,326.365H118.776c-8.727,0-15.802,7.075-15.802,15.801v34.747
	c0,8.727,7.075,15.802,15.802,15.802h237.611c8.727,0,15.802-7.075,15.802-15.802v-34.747
	C372.189,333.44,365.114,326.365,356.387,326.365z"/>
<path style="fill:#5F666F;" d="M356.387,312.799H118.776c-8.727,0-15.802,7.075-15.802,15.802v34.747
	c0,8.727,7.075,15.802,15.802,15.802h237.611c8.727,0,15.802-7.075,15.802-15.802v-34.747
	C372.189,319.874,365.114,312.799,356.387,312.799z"/>
<path style="opacity:0.1;enable-background:new    ;" d="M122.93,312.799c28.617,30.676,69.39,49.864,114.652,49.864
	s86.035-19.188,114.652-49.864H122.93z"/>
<circle style="fill:#F6D83E;" cx="237.58" cy="187.06" r="156.77"/>
<path style="opacity:0.1;enable-background:new    ;" d="M323.781,56.099c25.22,27.823,40.586,64.743,40.586,105.252
	c0,86.584-70.19,156.774-156.774,156.774c-31.845,0-61.466-9.504-86.2-25.817c28.684,31.644,70.114,51.521,116.188,51.521
	c86.584,0,156.774-70.19,156.774-156.774C394.355,132.316,366.295,84.139,323.781,56.099z"/>
<circle style="fill:#F4AC3B;" cx="237.58" cy="187.06" r="35.1"/>
<path style="opacity:0.1;enable-background:new    ;" d="M253.807,155.927c5.306,6.15,8.521,14.154,8.521,22.913
	c0,19.388-15.717,35.105-35.105,35.105c-5.855,0-11.371-1.441-16.225-3.977c6.438,7.462,15.955,12.192,26.584,12.192
	c19.388,0,35.105-15.717,35.105-35.105C272.686,173.522,265.025,161.786,253.807,155.927z"/>
<circle style="fill:#5F666F;" cx="432.99" cy="187.06" r="38.639"/>
<path style="opacity:0.1;enable-background:new    ;" d="M450.537,152.632c7.079,7.004,11.469,16.721,11.469,27.466
	c0,21.339-17.299,38.639-38.639,38.639c-6.319,0-12.277-1.526-17.543-4.216c6.98,6.905,16.576,11.172,27.17,11.172
	c21.34,0,38.638-17.299,38.638-38.639C471.632,172.034,463.055,159.025,450.537,152.632z"/>
<g>
</g>
<g>
</g>
<g>
</g>
<g>
</g>
<g>
</g>
<g>
</g>
<g>
</g>
<g>
</g>
<g>
</g>
<g>
</g>
<g>
</g>
<g>
</g>
<g>
</g>
<g>
</g>
<g>
</g>
</svg>
