<?xml version="1.0" encoding="iso-8859-1"?>
<!-- Generator: Adobe Illustrator 19.0.0, SVG Export Plug-In . SVG Version: 6.00 Build 0)  -->
<svg version="1.1" id="Capa_1" xmlns="http://www.w3.org/2000/svg" xmlns:xlink="http://www.w3.org/1999/xlink" x="0px" y="0px"
	 viewBox="0 0 512.001 512.001" style="enable-background:new 0 0 512.001 512.001;" xml:space="preserve">
<path style="fill:#FFFFFF;" d="M482.628,34.141l8.727,8.727c23.764,23.764,23.764,62.293,0,86.057L322.646,297.634l-62.845-62.845
	L460.449,34.141C466.574,28.016,476.503,28.016,482.628,34.141z"/>
<path style="opacity:0.1;enable-background:new    ;" d="M482.628,34.141l8.727,8.727c23.764,23.764,23.764,62.293,0,86.057
	L322.646,297.634l-62.845-62.845L460.449,34.141C466.574,28.016,476.503,28.016,482.628,34.141z"/>
<path style="opacity:0.05;enable-background:new    ;" d="M482.628,34.141c-6.124-6.125-16.054-6.125-22.179,0L259.801,234.789
	l15.001,15.001L486.54,38.052L482.628,34.141z"/>
<path style="opacity:0.1;enable-background:new    ;" d="M294.161,200.428c2.547,0.751,4.948,2.13,6.957,4.14l51.748,51.748
	c2.01,2.01,3.389,4.411,4.14,6.957l-34.359,34.359l-62.845-62.845L294.161,200.428z"/>
<path style="fill:#4FBB74;" d="M340.574,268.609l-51.748-51.748c-6.415-6.416-16.817-6.416-23.233,0l-84.573,84.573
	c-41.411-41.411-108.551-41.411-149.962,0s-41.411,108.551,0,149.962s108.551,41.411,149.962,0l159.554-159.554
	C346.989,285.426,346.989,275.024,340.574,268.609z M75.447,407.007c-16.895-16.895-16.895-44.288,0-61.184
	c16.896-16.896,44.288-16.896,61.184,0c16.895,16.895,16.896,44.288,0,61.184C119.735,423.902,92.342,423.902,75.447,407.007z"/>
<path style="opacity:0.1;enable-background:new    ;" d="M340.574,268.609l-51.748-51.748c-6.415-6.416-16.817-6.416-23.233,0
	l-84.573,84.573c-41.411-41.411-108.551-41.411-149.962,0s-41.411,108.551,0,149.962s108.551,41.411,149.962,0l159.554-159.554
	C346.989,285.426,346.989,275.024,340.574,268.609z M75.447,407.007c-16.895-16.895-16.895-44.288,0-61.184
	c16.896-16.896,44.288-16.896,61.184,0c16.895,16.895,16.896,44.288,0,61.184C119.735,423.902,92.342,423.902,75.447,407.007z"/>
<path style="opacity:0.1;enable-background:new    ;" d="M242.011,240.442l-60.992,60.992
	c-16.078-16.078-36.035-25.909-56.858-29.503l117.94,118.382l74.936-74.936L242.011,240.442z"/>
<path style="fill:#FFFFFF;" d="M29.372,34.139L29.372,34.139c-28.584,28.584-28.584,74.927,0,103.511l159.982,159.982l62.845-62.845
	L51.551,34.139C45.426,28.015,35.497,28.015,29.372,34.139z"/>
<path style="opacity:0.1;enable-background:new    ;" d="M29.372,34.139L29.372,34.139c-28.584,28.584-28.584,74.927,0,103.511
	l159.982,159.982l62.845-62.845L51.551,34.139C45.426,28.015,35.497,28.015,29.372,34.139z"/>
<path style="opacity:0.05;enable-background:new    ;" d="M29.372,34.139c6.124-6.124,16.054-6.124,22.179,0l200.648,200.648
	l-15.001,15.001L25.46,38.051L29.372,34.139z"/>
<path style="opacity:0.1;enable-background:new    ;" d="M217.84,200.428c-2.547,0.751-4.948,2.13-6.957,4.14l-51.748,51.748
	c-2.01,2.01-3.389,4.411-4.14,6.957l34.36,34.359l62.845-62.845L217.84,200.428z"/>
<path style="fill:#4FBB74;" d="M171.426,291.84L330.98,451.395c41.411,41.411,108.551,41.411,149.962,0s41.411-108.551,0-149.962
	s-108.551-41.411-149.962,0l-84.573-84.573c-6.415-6.415-16.817-6.415-23.233,0l-51.748,51.748
	C165.01,275.023,165.01,285.425,171.426,291.84z M375.369,407.006c-16.895-16.895-16.895-44.289,0-61.184
	c16.896-16.896,44.288-16.895,61.184,0c16.895,16.895,16.896,44.288,0,61.184C419.658,423.901,392.264,423.901,375.369,407.006z"/>
<circle style="fill:#5F666F;" cx="257.3" cy="301.44" r="18.07"/>
<g>
</g>
<g>
</g>
<g>
</g>
<g>
</g>
<g>
</g>
<g>
</g>
<g>
</g>
<g>
</g>
<g>
</g>
<g>
</g>
<g>
</g>
<g>
</g>
<g>
</g>
<g>
</g>
<g>
</g>
</svg>
