<?xml version="1.0" encoding="iso-8859-1"?>
<!-- Generator: Adobe Illustrator 19.0.0, SVG Export Plug-In . SVG Version: 6.00 Build 0)  -->
<svg version="1.1" id="Capa_1" xmlns="http://www.w3.org/2000/svg" xmlns:xlink="http://www.w3.org/1999/xlink" x="0px" y="0px"
	 viewBox="0 0 512.002 512.002" style="enable-background:new 0 0 512.002 512.002;" xml:space="preserve">
<path style="fill:#4FBB74;" d="M111.222,72.505h-86.7C10.979,72.505,0,83.484,0,97.027v317.948
	c0,13.543,10.979,24.522,24.522,24.522h86.7c15.161,0,29.987-4.971,41.789-14.489c27.808-22.428,63.744-35.949,102.99-35.949
	s75.182,13.521,102.99,35.949c11.801,9.518,26.627,14.489,41.789,14.489h86.7c13.543,0,24.522-10.979,24.522-24.522V97.027
	c0-13.543-10.979-24.522-24.522-24.522h-86.7c-15.161,0-29.987,4.971-41.789,14.489c-27.807,22.428-63.744,35.949-102.99,35.949
	s-75.182-13.521-102.99-35.949C141.209,77.476,126.383,72.505,111.222,72.505z"/>
<path style="opacity:0.1;enable-background:new    ;" d="M487.478,72.505h-36.281c13.543,0,24.522,10.979,24.522,24.522v317.948
	c0,13.543-10.979,24.522-24.522,24.522h36.281c13.543,0,24.522-10.979,24.522-24.522V97.027
	C512,83.484,501.021,72.505,487.478,72.505z"/>
<path style="opacity:0.2;enable-background:new    ;" d="M455.308,416.997h-54.529c-10.242,0-20.066-3.375-27.663-9.504
	c-32.729-26.396-74.322-40.934-117.115-40.934c-42.794,0-84.386,14.537-117.115,40.935c-7.597,6.128-17.422,9.503-27.664,9.503
	h-54.53c-18.854,0-34.192-15.339-34.192-34.192v-45.17h15v45.17c0,10.583,8.61,19.192,19.192,19.192h54.529
	c6.827,0,13.307-2.194,18.247-6.179c35.387-28.541,80.324-44.259,126.532-44.259c46.207,0,91.145,15.718,126.533,44.259
	c4.939,3.984,11.418,6.179,18.246,6.179h54.529c10.582,0,19.192-8.609,19.192-19.192V129.197c0-10.583-8.61-19.192-19.192-19.192
	h-54.529c-6.827,0-13.307,2.194-18.247,6.179c-35.387,28.541-80.324,44.259-126.532,44.259s-91.145-15.718-126.533-44.259
	c-4.939-3.984-11.418-6.179-18.246-6.179H56.692c-10.583,0-19.192,8.609-19.192,19.192v43.949h-15v-43.949
	c0-18.854,15.338-34.192,34.192-34.192h54.529c10.242,0,20.066,3.375,27.663,9.504c32.729,26.396,74.322,40.934,117.115,40.934
	s84.386-14.537,117.115-40.935c7.597-6.128,17.422-9.503,27.664-9.503h54.529c18.854,0,34.192,15.339,34.192,34.192v253.607
	C489.5,401.658,474.162,416.997,455.308,416.997z"/>
<path style="opacity:0.2;enable-background:new    ;" d="M448.254,234.052H0v103.584h344.67
	C401.878,337.635,448.254,291.259,448.254,234.052L448.254,234.052z"/>
<path style="fill:#FFFFFF;" d="M0,173.146v131.029h382.74c36.183,0,65.514-29.332,65.514-65.514l0,0
	c0-36.183-29.332-65.514-65.514-65.514L0,173.146L0,173.146z"/>
<path style="opacity:0.1;enable-background:new    ;" d="M0,173.146v131.029h382.74c36.183,0,65.514-29.332,65.514-65.514l0,0
	c0-36.183-29.332-65.514-65.514-65.514L0,173.146L0,173.146z"/>
<polygon style="opacity:0.05;enable-background:new    ;" points="281.452,173.146 150.423,304.175 74.126,304.175 205.155,173.146 
	"/>
<path style="opacity:0.05;enable-background:new    ;" d="M433.728,197.54L327.093,304.175h55.647
	c36.183,0,65.514-29.332,65.514-65.514l0,0C448.254,223.083,442.807,208.784,433.728,197.54z"/>
<path style="opacity:0.1;enable-background:new    ;" d="M0,280.155v24.02h382.74c20.434,0,38.68-9.359,50.694-24.02H0z"/>
<circle style="fill:#5F666F;" cx="256" cy="212.311" r="16.718"/>
<g>
</g>
<g>
</g>
<g>
</g>
<g>
</g>
<g>
</g>
<g>
</g>
<g>
</g>
<g>
</g>
<g>
</g>
<g>
</g>
<g>
</g>
<g>
</g>
<g>
</g>
<g>
</g>
<g>
</g>
</svg>
