<?xml version="1.0" encoding="iso-8859-1"?>
<!-- Generator: Adobe Illustrator 19.0.0, SVG Export Plug-In . SVG Version: 6.00 Build 0)  -->
<svg version="1.1" id="Capa_1" xmlns="http://www.w3.org/2000/svg" xmlns:xlink="http://www.w3.org/1999/xlink" x="0px" y="0px"
	 viewBox="0 0 512 512" style="enable-background:new 0 0 512 512;" xml:space="preserve">
<circle style="fill:#FFFFFF;" cx="256" cy="256" r="256"/>
<circle style="opacity:0.1;enable-background:new    ;" cx="256" cy="256" r="256"/>
<g>
	<path style="fill:#5F666F;" d="M256,133.795c-4.143,0-7.5-3.357-7.5-7.5v-78.2c0-4.143,3.357-7.5,7.5-7.5s7.5,3.357,7.5,7.5v78.2
		C263.5,130.438,260.143,133.795,256,133.795z"/>
	<path style="fill:#5F666F;" d="M143.705,220.342c-0.902,0-1.819-0.164-2.711-0.51L58.582,187.86
		c-3.861-1.498-5.777-5.843-4.279-9.705s5.843-5.778,9.705-4.279l82.412,31.972c3.861,1.498,5.777,5.843,4.279,9.705
		C149.547,218.523,146.71,220.342,143.705,220.342z"/>
	<path style="fill:#5F666F;" d="M125.418,431.717c-1.595,0-3.202-0.506-4.564-1.553c-3.284-2.525-3.9-7.232-1.377-10.518
		l60.968-79.339c2.524-3.283,7.232-3.901,10.518-1.377c3.284,2.524,3.9,7.232,1.377,10.518l-60.968,79.339
		C129.894,430.709,127.669,431.717,125.418,431.717z"/>
</g>
<g>
	<path style="fill:#394049;" d="M256,0c-23.799,0-46.834,3.26-68.697,9.337l60.973,44.3c4.606,3.346,10.843,3.346,15.448,0
		l60.973-44.3C302.834,3.26,279.799,0,256,0z"/>
	<path style="fill:#394049;" d="M50.603,103.182c-27.159,36.443-44.837,80.36-49.411,128.105l63.225-40.911
		c4.78-3.093,7.024-8.912,5.56-14.413L50.603,103.182z"/>
	<path style="fill:#394049;" d="M125.751,411.067l-75.274-2.422c27.612,37.116,65.043,66.484,108.446,84.286l-20.972-72.387
		C136.366,415.076,131.441,411.25,125.751,411.067z"/>
</g>
<g>
	<path style="fill:#5F666F;" d="M368.295,220.342c-3.006,0-5.842-1.819-6.994-4.789c-1.498-3.862,0.418-8.207,4.279-9.705
		l82.412-31.972c3.864-1.498,8.207,0.419,9.705,4.279c1.498,3.862-0.418,8.207-4.279,9.705l-82.412,31.972
		C370.114,220.178,369.196,220.342,368.295,220.342z"/>
	<path style="fill:#5F666F;" d="M386.582,431.717c-2.251,0-4.476-1.008-5.953-2.93l-60.968-79.339
		c-2.523-3.285-1.907-7.993,1.377-10.518c3.287-2.525,7.994-1.906,10.518,1.377l60.968,79.339c2.523,3.285,1.907,7.993-1.377,10.518
		C389.784,431.211,388.176,431.717,386.582,431.717z"/>
</g>
<g>
	<path style="fill:#394049;" d="M461.397,103.182c27.158,36.443,44.837,80.361,49.411,128.106l-63.225-40.911
		c-4.78-3.093-7.024-8.912-5.56-14.413L461.397,103.182z"/>
	<path style="fill:#394049;" d="M386.249,411.067l75.274-2.422c-27.612,37.116-65.043,66.484-108.445,84.286l20.972-72.387
		C375.634,415.076,380.559,411.25,386.249,411.067z"/>
	<path style="fill:#394049;" d="M246.975,121.699l-108.702,78.976c-5.381,3.91-7.633,10.84-5.577,17.166l41.52,127.786
		c2.055,6.326,7.95,10.609,14.602,10.609h134.363c6.651,0,12.547-4.283,14.602-10.609l41.52-127.786
		c2.056-6.326-0.196-13.256-5.577-17.166l-108.702-78.976C259.643,117.789,252.357,117.789,246.975,121.699z"/>
</g>
<path style="opacity:0.1;enable-background:new    ;" d="M403.712,46.896c33.536,43.293,53.508,97.623,53.508,156.625
	c0,141.385-114.615,256-256,256c-55.018,0-105.978-17.361-147.712-46.895C100.334,473.076,173.617,512,256,512
	c141.385,0,256-114.615,256-256C512,169.633,469.227,93.26,403.712,46.896z"/>
<g>
</g>
<g>
</g>
<g>
</g>
<g>
</g>
<g>
</g>
<g>
</g>
<g>
</g>
<g>
</g>
<g>
</g>
<g>
</g>
<g>
</g>
<g>
</g>
<g>
</g>
<g>
</g>
<g>
</g>
</svg>
