<?xml version="1.0" encoding="iso-8859-1"?>
<!-- Generator: Adobe Illustrator 19.0.0, SVG Export Plug-In . SVG Version: 6.00 Build 0)  -->
<svg version="1.1" id="Capa_1" xmlns="http://www.w3.org/2000/svg" xmlns:xlink="http://www.w3.org/1999/xlink" x="0px" y="0px"
	 viewBox="0 0 512 512" style="enable-background:new 0 0 512 512;" xml:space="preserve">
<path style="fill:#76C9D2;" d="M114.704,53.219L114.704,53.219V382.06H22.198C9.938,382.059,0,372.121,0,359.861V167.923
	C0,104.573,51.355,53.219,114.704,53.219z"/>
<path style="fill:#507CDD;" d="M114.704,432.607H38.533c-9.021,0-16.335-7.313-16.335-16.335v-34.213h92.506
	C114.704,382.059,114.704,432.607,114.704,432.607z"/>
<path style="opacity:0.1;enable-background:new    ;" d="M114.704,53.219c-11.426,0-22.458,1.679-32.873,4.789V382.06H22.198v21.655
	h59.633v28.893h32.873V53.219L114.704,53.219z"/>
<rect x="57.09" y="382.058" style="opacity:0.1;enable-background:new    ;" width="15" height="50.55"/>
<path style="fill:#76C9D2;" d="M397.296,53.219L397.296,53.219V382.06h92.506c12.26,0,22.198-9.939,22.198-22.198V167.923
	C512,104.573,460.645,53.219,397.296,53.219z"/>
<path style="fill:#507CDD;" d="M397.296,432.607h76.171c9.022,0,16.335-7.313,16.335-16.335v-34.213h-92.506L397.296,432.607
	L397.296,432.607z"/>
<path style="opacity:0.1;enable-background:new    ;" d="M397.296,53.219c11.426,0,22.458,1.679,32.873,4.789V382.06h59.633v21.655
	h-59.633v28.893h-32.873L397.296,53.219L397.296,53.219z"/>
<rect x="439.91" y="382.058" style="opacity:0.1;enable-background:new    ;" width="15" height="50.55"/>
<path style="fill:#76C9D2;" d="M360.057,14.918H151.943c-26.965,0-48.825,21.86-48.825,48.825v382.615
	c0,5.455,4.422,9.877,9.877,9.877h286.009c5.455,0,9.877-4.422,9.877-9.877V63.743C408.881,36.778,387.022,14.918,360.057,14.918z"
	/>
<path style="fill:#507CDD;" d="M388.603,497.078H123.397c-5.745,0-10.402-4.657-10.402-10.402v-30.441h286.009v30.441
	C399.005,492.421,394.348,497.078,388.603,497.078z"/>
<g style="opacity:0.1;">
	<rect x="248.5" y="456.238" width="15" height="40.844"/>
	<rect x="197.2" y="456.238" width="15" height="40.844"/>
	<rect x="145.89" y="456.238" width="15" height="40.844"/>
	<rect x="299.8" y="456.238" width="15" height="40.844"/>
	<rect x="351.11" y="456.238" width="15" height="40.844"/>
</g>
<path style="fill:#507CDD;" d="M360.056,14.918H151.943c-26.965,0-48.825,21.86-48.825,48.825v103.215l132.403,132.403
	c11.202,11.202,29.363,11.202,40.564,0l132.403-132.403l0.392-0.889V63.743C408.881,36.777,387.022,14.918,360.056,14.918z"/>
<path style="fill:#FFFFFF;" d="M255.831,258.716c-7.655,0-15.31-2.914-21.138-8.741L131.319,146.6c-2.929-2.93-2.929-7.678,0-10.607
	c2.929-2.928,7.678-2.928,10.607,0L245.3,239.367c5.808,5.809,15.257,5.809,21.063,0l103.374-103.374
	c2.93-2.928,7.678-2.928,10.608,0c2.929,2.93,2.929,7.678,0,10.607L276.97,249.975C271.142,255.802,263.486,258.716,255.831,258.716
	z"/>
<path style="opacity:0.1;enable-background:new    ;" d="M296.35,14.918h-80.7l31.983,37.751c4.38,5.17,12.354,5.17,16.734,0
	L296.35,14.918z"/>
<g>
</g>
<g>
</g>
<g>
</g>
<g>
</g>
<g>
</g>
<g>
</g>
<g>
</g>
<g>
</g>
<g>
</g>
<g>
</g>
<g>
</g>
<g>
</g>
<g>
</g>
<g>
</g>
<g>
</g>
</svg>
