<?xml version="1.0" encoding="UTF-8"?>
<svg xmlns="http://www.w3.org/2000/svg" id="Layer_1" data-name="Layer 1" viewBox="0 0 512 512" width="512" height="512"><path d="M402.27,197.51c25.921-18.515,59.751-23.13,100.552-13.715a8,8,0,0,0,9.69-9.11c-.1-.578-2.486-14.3-13.746-27.807C480.253,124.663,452.577,120,432.62,120c-.762,0-18.873.155-36.8,13.6-12.282,9.211-20.455,21.556-25.814,34.939a76.162,76.162,0,0,0-15.27-25.307C333.6,120.264,305.2,120,304,120c-36.157,0-55.928,14.617-66.146,26.878-11.26,13.511-13.649,27.229-13.746,27.806a8,8,0,0,0,9.69,9.11c40.429-9.328,74.029-4.875,99.874,13.236A90.773,90.773,0,0,1,353.515,216h-14.69a40,40,0,0,0-39.911,42.679l12.9,186.952A40.5,40.5,0,0,1,284.6,456H216.715L237.27,216.2a37.037,37.037,0,0,0-36.9-40.2H184V153.871c2.2-4.169,9.879-17.1,25.649-28.362C235.571,107,269.4,102.379,310.2,111.795a8,8,0,0,0,9.69-9.11c-.1-.578-2.486-14.3-13.746-27.807C287.633,52.663,259.957,48,240,48c-.762,0-18.873.155-36.8,13.6A74.675,74.675,0,0,0,184,83.128V48c0-14.18-4.8-25.609-14.273-33.97C148.825-4.422,112.542-.13,111.008.062a8,8,0,0,0-1.069,15.668c23.1,6.161,25.883,38.06,26.062,40.521v21.43a71.854,71.854,0,0,0-5.264-6.448C109.6,48.264,81.2,48,80,48,43.843,48,24.072,62.617,13.854,74.878,2.595,88.39.205,102.107.108,102.685a8,8,0,0,0,9.69,9.11c40.429-9.328,74.03-4.875,99.874,13.236A87.083,87.083,0,0,1,136,153.895V176H120.544a37.037,37.037,0,0,0-36.8,41.242L105.76,409.855a56.176,56.176,0,0,0-34.47,26.5C64.4,448.473,51.107,456,36.6,456H0v16H36.6c20.248,0,38.87-10.628,48.6-27.737a40.017,40.017,0,0,1,69.6,0C164.529,461.372,183.151,472,203.4,472h81.2c20.248,0,38.87-10.628,48.6-27.737a40.017,40.017,0,0,1,69.6,0C412.529,461.372,431.151,472,451.4,472H512V456H451.4a40.058,40.058,0,0,1-31.967-15.533l.115.007,10.78-181.813A40,40,0,0,0,390.416,216h-7.354A90.683,90.683,0,0,1,402.27,197.51ZM240,64c36.926,0,52.894,17.217,59.577,29.437-29.782-4.706-67.41-3.672-99.227,19.054a107.424,107.424,0,0,0-14.25,12.187C196.05,65.32,238.026,64.025,240,64ZM119.65,112.49c-22.537-16.1-47.985-21.311-71.5-21.311a178.173,178.173,0,0,0-27.724,2.257C27.114,81.2,43.076,64,79.966,64c.227,0,22.886.4,39.155,18.24,9.462,10.374,15.1,24.592,16.879,42.431v2.215A107.278,107.278,0,0,0,119.65,112.49ZM152,56c0-.133,0-.267-.01-.4a83.625,83.625,0,0,0-5.278-23.484,62.254,62.254,0,0,0-8.256-15.133c7.6,1.47,15.207,4.208,20.682,9.041C165.1,31.289,168,38.477,168,48V176H152Zm16.71,380.355a56.154,56.154,0,0,0-47.055-28.327L118.452,380h42V364H116.624L105.195,264h55.26V248H103.366l-3.723-32.574A21.037,21.037,0,0,1,120.544,192h79.824a21.038,21.038,0,0,1,20.96,22.833L214.371,296H167v16h46L200.664,455.909A39.57,39.57,0,0,1,168.71,436.355ZM432.62,136c36.926,0,52.894,17.217,59.577,29.437-29.782-4.705-67.41-3.672-99.227,19.054a107.424,107.424,0,0,0-14.25,12.187C388.67,137.32,430.646,136.025,432.62,136Zm-88.97,48.49c-22.537-16.1-47.985-21.311-71.5-21.311a178.173,178.173,0,0,0-27.724,2.257C251.114,153.2,267.076,136,303.966,136c.227,0,22.886.4,39.155,18.24,9.895,10.848,15.616,25.89,17.109,44.891A107.315,107.315,0,0,0,343.65,184.49ZM407.941,239.6a23.8,23.8,0,0,1,6.418,18.051L410.188,328H361.906v16H409.24l-4.605,77.67a55.945,55.945,0,0,0-78.106,4.717L324.154,392H363.59V376H323.05l-5.521-80h51.319V280H316.424l-1.546-22.4A24,24,0,0,1,338.825,232h51.591A23.763,23.763,0,0,1,407.941,239.6Z"/></svg>
