<svg id="Capa_1" enable-background="new 0 0 512.01 512.01" height="512" viewBox="0 0 512.01 512.01" width="512" xmlns="http://www.w3.org/2000/svg"><g><path d="m395.29 159.15c3.905 3.902 10.238 3.905 14.143 0l90.847-90.856c15.631-15.618 15.648-40.933.006-56.562-15.622-15.635-40.936-15.646-56.564-.003l-90.86 90.85c-3.904 3.902-3.905 10.237-.001 14.143l14.149 14.148-28.286 28.279-35.36-35.359c-1.876-1.875-4.42-2.929-7.072-2.929s-5.195 1.054-7.071 2.93l-37.409 37.419c-7.422 7.423-13.772 15.754-18.962 24.801h-42.847c-19.572 0-37.284 8.084-50 21.077v-127.079h56c38.598 0 70-31.402 70-70 0-5.523-4.478-10-10-10h-66c-38.598 0-70 31.402-70 70v47.077c-12.716-12.993-30.428-21.077-50-21.077h-60c-5.522 0-10 4.477-10 10 0 38.598 31.402 70 70 70h50v91.077c-12.716-12.993-30.428-21.077-50-21.077h-60c-5.522 0-10 4.477-10 10 0 38.598 31.402 70 70 70h50v76.231c-1.656-.15-3.323-.231-5-.231-14.082 0-27.459 5.355-37.665 15.078-10.106 9.623-23.366 14.922-37.335 14.922-22.056 0-40 17.944-40 40s17.944 40 40 40h171c5.522 0 10-4.477 10-10s-4.478-10-10-10h-171c-11.028 0-20-8.972-20-20s8.972-20 20-20c19.127 0 37.283-7.258 51.128-20.439 6.472-6.165 14.95-9.561 23.872-9.561 8.838 0 17.294 3.288 23.874 9.562 13.843 13.18 31.985 20.438 51.086 20.438h96.04c19.127 0 37.283-7.258 51.128-20.439 6.472-6.165 14.95-9.561 23.872-9.561 8.838 0 17.294 3.288 23.874 9.562 13.843 13.18 31.985 20.438 51.086 20.438h36.04c11.028 0 20 8.972 20 20s-8.972 20-20 20h-171c-5.522 0-10 4.477-10 10s4.478 10 10 10h171c22.056 0 40-17.944 40-40s-17.944-40-40-40h-36.04c-13.943 0-27.188-5.299-37.291-14.918-3.819-3.641-8.067-6.649-12.669-9.021v-82.06h56c38.598 0 70-31.402 70-70 0-5.523-4.478-10-10-10h-66c-38.598 0-70 31.402-70 70v47.077c-12.716-12.993-30.428-21.077-50-21.077h-60c-5.522 0-10 4.477-10 10 0 38.598 31.402 70 70 70h1.371c-9.11 6.491-20.006 10-31.371 10h-96.04c-13.943 0-27.188-5.299-37.291-14.918-3.819-3.641-8.067-6.649-12.669-9.021v-142.06h56c7.652 0 15.202-1.255 22.366-3.668 1.011 6.842 2.601 13.592 4.797 20.18.996 2.986 3.339 5.33 6.326 6.325 42.323 14.104 89.353 3.324 121.312-28.646l37.42-37.41c3.904-3.902 3.905-10.238.001-14.143l-35.359-35.358 28.286-28.279zm-205.289-139.151h54.995c-4.646 22.804-24.85 40.01-48.995 40.01h-54.995c4.645-22.794 24.849-40 48.995-40.01zm-120 136.01c-24.146 0-44.35-17.206-48.995-40h48.995c24.146 0 44.35 17.206 48.995 40zm0 150c-24.146 0-44.35-17.206-48.995-40h48.995c24.146 0 44.35 17.206 48.995 40zm366-40.01h54.995c-4.646 22.804-24.85 40.01-48.995 40.01h-54.995c4.645-22.794 24.849-40 48.995-40.01zm-168.996 96.01h48.995c24.146 0 44.35 17.206 48.995 40h-48.995c-24.145 0-44.349-17.206-48.995-40zm-126-116c4.646-22.794 24.85-40.01 48.995-40.01l33.712.01c-3.95 11.345-6.177 23.281-6.563 35.315-6.583 3.074-13.797 4.685-21.149 4.685zm195.654.05c-25.358 25.367-61.73 34.832-95.999 25.294-2.189-7.895-3.386-16.025-3.562-24.232-.542-26.088 9.344-52.262 28.854-71.772l30.339-30.347c30.426 30.426 7.999 8 70.716 70.716zm121.206-220.192c7.709-7.715 20.366-7.912 28.277.006 7.816 7.81 7.82 20.458-.003 28.275l-83.778 83.788c-65.253-65.26 36.65 36.644-28.288-28.287z"/><circle cx="256" cy="502.01" r="10"/></g></svg>