<?xml version="1.0" encoding="iso-8859-1"?>
<!-- Generator: Adobe Illustrator 19.0.0, SVG Export Plug-In . SVG Version: 6.00 Build 0)  -->
<svg version="1.1" id="Capa_1" xmlns="http://www.w3.org/2000/svg" xmlns:xlink="http://www.w3.org/1999/xlink" x="0px" y="0px"
	 viewBox="0 0 512 512" style="enable-background:new 0 0 512 512;" xml:space="preserve">
<g>
	<g>
		<path d="M482,303.58V256c0-124.115-101.728-225-226-225C131.875,31,30,131.728,30,256v47.58C12.541,309.772,0,326.445,0,346v60
			c0,24.813,20.187,45,45,45h17.58c6.192,17.458,22.865,30,42.42,30h30c24.813,0,45-20.187,45-45V316c0-24.813-20.187-45-45-45h-30
			c-19.555,0-36.228,12.542-42.42,30H60v-45c0-7.463,0.439-14.826,1.263-22.073c7.08,4.577,15.395,7.073,24.231,7.073
			c18.909,0,35.847-11.944,42.145-29.72C146.772,157.281,198.356,121,256,121c57.643,0,109.227,36.281,128.36,90.279
			C390.658,229.056,407.596,241,426.505,241c8.836,0,17.152-2.496,24.232-7.074C451.562,241.174,452,248.536,452,256v45h-2.58
			c-6.192-17.458-22.865-30-42.42-30h-30c-24.813,0-45,20.187-45,45v120c0,24.813,20.187,45,45,45h30
			c19.555,0,36.228-12.542,42.42-30H467c24.813,0,45-20.187,45-45v-60C512,326.445,499.459,309.772,482,303.58z M90,316
			c0-8.271,6.729-15,15-15h30c8.271,0,15,6.729,15,15v120c0,8.271-6.729,15-15,15h-30c-8.271,0-15-6.729-15-15V316z M60,421H45
			c-8.271,0-15-6.729-15-15v-60c0-8.271,6.729-15,15-15h15V421z M426.505,211c-6.23,0-11.803-3.914-13.867-9.74
			C389.588,136.208,326.927,91,256,91c-70.85,0-133.566,45.145-156.639,110.261C97.297,207.086,91.725,211,85.494,211
			c-10.594,0-17.524-10.619-13.919-20.72C98.431,115.036,171.177,61,256,61c84.952,0,157.597,54.152,184.424,129.28
			C444.032,200.39,437.088,211,426.505,211z M422,436c0,8.271-6.729,15-15,15h-30c-8.271,0-15-6.729-15-15V316
			c0-8.271,6.729-15,15-15h30c8.271,0,15,6.729,15,15V436z M482,406c0,8.271-6.729,15-15,15h-15v-90h15c8.271,0,15,6.729,15,15V406z
			"/>
	</g>
</g>
<g>
</g>
<g>
</g>
<g>
</g>
<g>
</g>
<g>
</g>
<g>
</g>
<g>
</g>
<g>
</g>
<g>
</g>
<g>
</g>
<g>
</g>
<g>
</g>
<g>
</g>
<g>
</g>
<g>
</g>
</svg>
