<svg id="Layer_1" enable-background="new 0 0 512 512" height="512" viewBox="0 0 512 512" width="512" xmlns="http://www.w3.org/2000/svg"><g><path d="m222.785 45.037c-28.911-32.264-68.879-48.819-106.931-44.305-31.581 3.754-58.157 21.618-72.913 49.013-16.023 29.75-9.227 59.246-2.655 87.771 4.485 19.466 8.722 37.852 5.153 54.799-3.938 18.704-17.146 33.7-41.565 47.191-3.626 2.003-4.94 6.565-2.937 10.191 1.367 2.476 3.93 3.874 6.571 3.874 1.227 0 2.471-.301 3.62-.937 28.128-15.54 44.153-34.26 48.989-57.229 4.25-20.184-.562-41.065-5.214-61.258-6.223-27.006-12.1-52.514 1.245-77.29 12.406-23.034 34.813-38.062 61.476-41.231 33.197-3.948 68.334 10.791 93.989 39.419 2.765 3.085 7.506 3.346 10.591.581 3.085-2.763 3.345-7.504.581-10.589z" fill="#d9e2f4"/><g fill="#4a4a5e"><path d="m294.065 47.396c-2.928-2.932-7.677-2.933-10.606-.007l-176.517 176.317c-2.931 2.928-2.934 7.677-.007 10.607 1.465 1.467 3.386 2.2 5.307 2.2 1.918 0 3.836-.731 5.3-2.193l176.516-176.317c2.931-2.928 2.934-7.677.007-10.607z"/><path d="m97.596 256.83c-4.143 0-7.5 3.357-7.5 7.5v180.283c0 4.143 3.357 7.5 7.5 7.5s7.5-3.357 7.5-7.5v-180.283c0-4.143-3.357-7.5-7.5-7.5z"/></g><path d="m309.793 96.808c-39.897-39.852-68.268-65.425-68.55-65.679-2.104-1.894-5.099-2.442-7.734-1.415-.439.171-10.882 4.307-21.61 15.022-10.727 10.717-14.869 21.15-15.04 21.588-1.029 2.643-.48 5.641 1.419 7.746.254.282 25.856 28.621 65.753 68.473 1.464 1.462 3.382 2.193 5.3 2.193s3.836-.731 5.3-2.193l35.162-35.121c1.409-1.407 2.2-3.316 2.2-5.307s-.792-3.9-2.2-5.307z" fill="#97a3b7"/><path d="m510.578 235.48c-.74 1.02-18.43 25.39-50.38 57.3s-56.34 49.58-57.36 50.32c-1.31.94-2.85 1.42-4.39 1.42-1.58 0-3.17-.51-4.5-1.51-.15-.11-5.88-4.44-15.69-12.54-15.4-12.72-40.84-34.73-70.4-64.25-48.38-48.32-76.6-85.62-76.88-86-1.98-2.62-2.02-6.23-.09-8.9.74-1.02 18.43-25.38 50.38-57.3 31.95-31.91 56.34-49.58 57.36-50.32 2.67-1.91 6.26-1.88 8.89.09.37.28 37.72 28.47 86.09 76.79 29.57 29.53 51.61 54.95 64.34 70.34 8.1 9.79 12.43 15.52 12.54 15.66 1.98 2.63 2.02 6.23.09 8.9z" fill="#d9e2f4"/><path d="m510.578 235.48c-.74 1.02-18.43 25.39-50.38 57.3s-56.34 49.58-57.36 50.32c-1.31.94-2.85 1.42-4.39 1.42-1.58 0-3.17-.51-4.5-1.51-.15-.11-5.88-4.44-15.69-12.54 9.69-7.4 33.81-26.65 63.41-56.21s48.87-53.65 56.28-63.34c8.1 9.79 12.43 15.52 12.54 15.66 1.98 2.63 2.02 6.23.09 8.9z" fill="#bac7db"/><g fill="#97a3b7"><path d="m378.224 143.544c-2.928-2.932-7.677-2.933-10.606-.007l-56.804 56.74c-2.931 2.928-2.934 7.677-.007 10.607 1.465 1.467 3.386 2.2 5.307 2.2 1.918 0 3.836-.731 5.3-2.193l56.804-56.74c2.93-2.928 2.933-7.678.006-10.607z"/><path d="m404.384 169.675c-2.927-2.931-7.676-2.934-10.606-.007l-56.804 56.74c-2.931 2.928-2.934 7.677-.007 10.607 1.465 1.467 3.386 2.2 5.307 2.2 1.918 0 3.836-.731 5.3-2.193l56.804-56.74c2.93-2.928 2.933-7.677.006-10.607z"/><path d="m430.66 195.92c-2.928-2.932-7.677-2.933-10.606-.007l-56.803 56.74c-2.931 2.928-2.934 7.677-.007 10.607 1.465 1.467 3.386 2.2 5.307 2.2 1.918 0 3.836-.731 5.301-2.193l56.802-56.74c2.929-2.928 2.932-7.677.006-10.607z"/><path d="m451.999 245.606-13.442-13.427c-2.93-2.927-7.679-2.924-10.606.007s-2.924 7.679.007 10.607l13.442 13.427c1.464 1.462 3.382 2.193 5.3 2.193 1.921 0 3.842-.733 5.307-2.2 2.926-2.931 2.923-7.679-.008-10.607z"/><path d="m410.157 260.549c-2.932-2.927-7.68-2.923-10.607.006-2.927 2.931-2.924 7.68.006 10.608l13.442 13.428c1.465 1.462 3.383 2.193 5.301 2.193 1.921 0 3.842-.733 5.307-2.199 2.927-2.931 2.924-7.68-.006-10.608z"/><path d="m331.312 146.255c1.464 1.462 3.382 2.193 5.3 2.193 1.921 0 3.842-.733 5.307-2.2 2.927-2.931 2.924-7.679-.007-10.607l-13.442-13.427c-2.93-2.927-7.679-2.924-10.606.007s-2.924 7.679.007 10.607z"/><path d="m313.509 164.012-13.442-13.427c-2.93-2.927-7.679-2.924-10.606.007s-2.924 7.679.007 10.607l13.442 13.427c1.464 1.462 3.382 2.193 5.3 2.193 1.921 0 3.842-.733 5.307-2.2 2.926-2.931 2.923-7.68-.008-10.607z"/></g><path d="m125.81 243.64c0 15.54-12.66 28.19-28.21 28.19-3.52 0-6.89-.65-10-1.83-10.64-4.04-18.22-14.34-18.22-26.36s7.58-22.32 18.22-26.36c3.11-1.18 6.48-1.83 10-1.83 15.55 0 28.21 12.65 28.21 28.19z" fill="#83f2d3"/><path d="m125.81 243.64c0 15.54-12.66 28.19-28.21 28.19-3.52 0-6.89-.65-10-1.83 10.63-4.04 18.21-14.34 18.21-26.36s-7.58-22.32-18.21-26.36c3.11-1.18 6.48-1.83 10-1.83 15.55 0 28.21 12.65 28.21 28.19z" fill="#25bfb7"/><path d="m175.379 504.19c.09 2.04-.66 4.03-2.08 5.5-1.41 1.48-3.37 2.31-5.41 2.31h-140.589c-2.04 0-3.99-.83-5.41-2.31-1.41-1.47-2.16-3.46-2.08-5.5 1.22-29.35 2.31-46.16 2.32-46.32.2-3 2.17-5.6 5-6.59 1.16-.41 28.79-9.94 70.47-9.94 18.17 0 33.66 1.81 45.46 3.89 15.27 2.69 24.35 5.82 25 6.05 2.84.99 4.8 3.59 5 6.59.01.16 1.099 16.97 2.319 46.32z" fill="#83f2d3"/><path d="m175.379 504.19c.09 2.04-.66 4.03-2.08 5.5-1.41 1.48-3.37 2.31-5.41 2.31h-22.1l-2.73-66.77c15.27 2.69 24.35 5.82 25 6.05 2.84.99 4.8 3.59 5 6.59.011.16 1.1 16.97 2.32 46.32z" fill="#25bfb7"/></g></svg>