<svg id="Layer_1" enable-background="new 0 0 512.001 512.001" height="512" viewBox="0 0 512.001 512.001" width="512" xmlns="http://www.w3.org/2000/svg"><g><path d="m510.493 226.58c-.28-.371-28.505-37.679-76.878-85.997-7.614-7.605-15.429-15.185-23.228-22.528-3.016-2.839-7.761-2.699-10.602.318-2.84 3.016-2.697 7.763.318 10.602 32.177 28.895 87.883 91.748 94.944 102.18-6.505 8.396-22.218 27.813-45.444 51.012-23.241 23.215-42.689 38.915-51.086 45.406-5.927-4.672-17.452-13.99-32.579-27.336-3.106-2.74-7.846-2.443-10.586.662-2.74 3.106-2.444 7.846.662 10.586 22.871 20.178 37.332 31.074 37.936 31.529 2.625 1.972 6.225 2.006 8.888.089 1.022-.737 25.416-18.409 57.364-50.322 31.949-31.912 49.641-56.279 50.379-57.3 1.925-2.666 1.889-6.274-.088-8.901z"/><path d="m341.183 277.657c-32.174-28.916-87.719-91.61-94.759-102.007 6.505-8.396 22.219-27.813 45.445-51.013 23.241-23.215 42.689-38.914 51.086-45.405 5.839 4.603 17.11 13.714 31.903 26.739 3.106 2.736 7.847 2.437 10.585-.673 2.737-3.108 2.437-7.848-.673-10.585-22.479-19.794-36.656-30.477-37.248-30.922-2.626-1.971-6.227-2.007-8.888-.089-.753.542-14.156 10.251-33.912 28.054-8.053-7.997-15.581-15.361-22.436-21.993l11.774-11.761c2.931-2.928 2.934-7.677.007-10.607-2.927-2.932-7.676-2.933-10.606-.007l-11.991 11.977c-18.561-17.724-30.046-28.077-30.225-28.238-2.105-1.894-5.099-2.441-7.734-1.415-.36.14-7.438 2.943-15.886 9.847-28.4-28.642-65.933-43.081-101.77-38.826-31.582 3.754-58.157 21.618-72.913 49.012-11.952 22.192-10.506 44.47-8.378 59.297.569 4.12 4.476 6.963 8.489 6.358 4.101-.588 6.947-4.389 6.358-8.489-8.71-47.16 23.052-85.64 68.214-91.283 31.233-3.713 64.199 9.118 89.358 34.504-7.105 8.58-9.982 15.827-10.124 16.19-1.029 2.643-.48 5.641 1.419 7.746.161.179 10.521 11.646 28.257 30.179l-115.013 114.886c-18.372-10.722-42.345 3.12-42.136 24.509 0 12.949 8.785 23.887 20.712 27.177v170.628c-37.467 1.031-61.877 9.451-62.962 9.833-2.836.995-4.804 3.588-5 6.587-.011.166-1.102 16.976-2.322 46.323-.259 4.138 3.348 7.897 7.493 7.812h28.477c9.931-.344 9.923-14.66 0-15h-20.649c.689-15.649 1.304-26.905 1.656-32.977 32.521-9.998 89.295-9.945 121.614 0 .353 6.071.967 17.328 1.656 32.977h-69.843c-9.931.344-9.923 14.66 0 15h77.671c2.043 0 3.998-.834 5.412-2.309 1.415-1.475 2.166-3.462 2.081-5.504-1.222-29.346-2.312-46.155-2.322-46.322-.196-2.999-2.164-5.592-5-6.587-1.085-.381-25.496-8.802-62.963-9.833v-170.629c17.245-4.434 26.275-25.454 17.034-41.082l114.813-114.683c6.64 6.848 14.012 14.368 22.018 22.413-17.815 19.725-27.532 33.107-28.074 33.859-1.925 2.665-1.889 6.274.089 8.9.28.371 28.506 37.678 76.879 85.997 7.557 7.548 15.309 15.068 23.041 22.353 3.009 2.836 7.757 2.703 10.602-.316 2.841-3.015 2.699-7.762-.316-10.602zm-243.586-20.827c-7.285 0-13.212-5.916-13.212-13.189.725-17.495 25.701-17.49 26.424 0 0 7.273-5.927 13.189-13.212 13.189zm115.271-189.027c1.809-3.129 4.902-7.724 9.608-12.43.011-.01.021-.021.032-.032 4.728-4.72 9.345-7.818 12.477-9.624 4.749 4.353 13.77 12.702 25.87 24.253l-23.704 23.677c-11.559-12.081-19.919-21.095-24.283-25.844zm34.69 36.649 24.114-24.087c6.728 6.508 14.115 13.732 22.021 21.579-3.98 3.766-8.134 7.794-12.425 12.08-4.295 4.291-8.333 8.445-12.106 12.424-7.855-7.895-15.088-15.275-21.604-21.996z"/><path d="m316.115 213.085c1.918 0 3.836-.731 5.3-2.193l56.805-56.74c2.931-2.928 2.934-7.677.007-10.607-2.928-2.932-7.677-2.933-10.606-.007l-56.805 56.74c-2.931 2.928-2.934 7.677-.007 10.607 1.464 1.466 3.385 2.2 5.306 2.2z"/><path d="m404.386 169.675c-2.928-2.931-7.677-2.934-10.606-.007l-56.805 56.74c-2.931 2.928-2.934 7.677-.007 10.607 2.927 2.931 7.676 2.934 10.606.007l56.805-56.74c2.931-2.928 2.934-7.677.007-10.607z"/><path d="m420.055 195.914-56.804 56.74c-2.931 2.928-2.934 7.677-.007 10.607 2.928 2.932 7.676 2.933 10.607.007l56.803-56.74c2.931-2.928 2.934-7.677.007-10.607-2.927-2.931-7.676-2.932-10.606-.007z"/><path d="m441.401 256.22c2.932 2.926 7.679 2.924 10.607-.006 2.927-2.931 2.924-7.68-.006-10.607l-13.441-13.427c-2.933-2.926-7.681-2.924-10.607.006-2.927 2.931-2.924 7.68.006 10.607z"/><path d="m410.158 260.55c-2.93-2.927-7.679-2.924-10.606.007s-2.924 7.679.007 10.607l13.442 13.427c7.269 6.774 17.38-3.359 10.6-10.613z"/><path d="m331.312 146.256c2.932 2.926 7.679 2.924 10.607-.006 2.927-2.931 2.924-7.68-.006-10.608l-13.442-13.428c-2.933-2.926-7.681-2.924-10.607.006-2.927 2.931-2.924 7.68.006 10.608z"/><path d="m300.068 150.585c-2.93-2.927-7.679-2.924-10.606.007s-2.924 7.679.007 10.607l13.442 13.427c7.269 6.774 17.38-3.359 10.6-10.613z"/><path d="m59.515 198.023c4.806-19.18 1.108-38.773-3.454-58.832-.919-4.038-4.937-6.564-8.977-5.65-4.039.919-6.568 4.939-5.65 8.977 9.02 39.657 11.606 69.826-37.559 96.989-3.626 2.003-4.94 6.565-2.937 10.191 2.013 3.659 6.635 4.922 10.191 2.938 27.102-14.974 42.929-32.838 48.386-54.613z"/></g></svg>