<svg height="512" viewBox="0 0 128 128" width="512" xmlns="http://www.w3.org/2000/svg"><g><path d="m100.3 94.273a1.751 1.751 0 0 0 1.743-1.6l1.033-12.083a1.75 1.75 0 0 0 -1.595-1.893l-5.978-.51a1.7 1.7 0 0 0 -1.276.405 1.741 1.741 0 0 0 -.566.914l-24.661-5.036 7.768-8.576.335.335a1.75 1.75 0 0 0 2.474 0l4.243-4.243a1.748 1.748 0 0 0 0-2.474l-24.576-24.575a20.134 20.134 0 0 0 -31.682-24.294l-12.589 12.589a20.1 20.1 0 0 0 -5.016 20.152l3.893 12.684-5.307 4.807a11.572 11.572 0 0 0 -.41 16.742l21.85 21.851a11.455 11.455 0 0 0 8.168 3.389h.3a11.451 11.451 0 0 0 8.275-3.8l5.12-5.658 40.736-1.248a1.747 1.747 0 0 0 1.591 1.608l5.978.511c.049.001.101.003.149.003zm-6.964-11.261-.48 5.626-37.737 1.162 11.15-12.31zm-15-20.495-33.25-33.25 1.771-1.767 4.565 4.565 4.339 4.339.032.032 24.313 24.313zm-56.71-13.493-2.583-8.424a10.623 10.623 0 0 1 2.644-10.65l12.59-12.59a10.628 10.628 0 0 1 17.758 10.368l-3.941-3.941a1.75 1.75 0 0 0 -2.474 0l-4.243 4.242a1.749 1.749 0 0 0 0 2.475l.33.33zm-8.326-6.667a16.611 16.611 0 0 1 4.144-16.65l12.59-12.59a16.632 16.632 0 0 1 26.625 19.235l-1.885-1.886a14.13 14.13 0 0 0 -22.974-15.583l-12.59 12.59a14.113 14.113 0 0 0 -3.51 14.15l3.064 10-2.046 1.853zm30.832 54.349a8.056 8.056 0 0 1 -11.674.287l-21.851-21.85a8.074 8.074 0 0 1 .293-11.676l33.29-30.155 30.1 30.1zm54.575-6.075-2.491-.213.735-8.6 2.49.213z"/><path d="m31.045 48.6-5.068 4.592a1.749 1.749 0 1 0 2.349 2.593l5.074-4.597a1.75 1.75 0 1 0 -2.35-2.593z"/><path d="m115.931 103.116c0-1.979-2.309-5.6-3.3-7.064a1.749 1.749 0 0 0 -2.9 0c-.993 1.465-3.3 5.085-3.3 7.064a4.75 4.75 0 0 0 9.5 0zm-4.75 1.25a1.249 1.249 0 0 1 -1.251-1.236 10.389 10.389 0 0 1 1.251-2.778 10.482 10.482 0 0 1 1.25 2.773 1.251 1.251 0 0 1 -1.25 1.241z"/><path d="m119.949 111.436a1.75 1.75 0 0 0 -2.9 0c-.992 1.463-3.3 5.084-3.3 7.064a4.75 4.75 0 0 0 9.5 0c.001-1.98-2.308-5.6-3.3-7.064zm-1.449 8.314a1.249 1.249 0 0 1 -1.25-1.236 10.356 10.356 0 0 1 1.25-2.779 10.463 10.463 0 0 1 1.25 2.774 1.251 1.251 0 0 1 -1.25 1.241z"/><path d="m103.861 110.667a1.748 1.748 0 0 0 -1.448.769c-.993 1.463-3.3 5.084-3.3 7.064a4.75 4.75 0 0 0 9.5 0c0-1.98-2.308-5.6-3.3-7.064a1.75 1.75 0 0 0 -1.452-.769zm0 9.083a1.252 1.252 0 0 1 -1.25-1.241 10.513 10.513 0 0 1 1.25-2.775 10.4 10.4 0 0 1 1.25 2.766 1.251 1.251 0 0 1 -1.25 1.25z"/></g></svg>