<svg data-name="Layer 1" xmlns="http://www.w3.org/2000/svg" xmlns:xlink="http://www.w3.org/1999/xlink" width="1020" height="450" viewBox="0 0 1020 450"><defs><clipPath id="b"><path fill="none" d="M-2.5-.91h1025v512.5H-2.5z"/></clipPath><linearGradient id="a" x1="-329.491" y1="-50.746" x2="1071.193" y2="-50.746" gradientUnits="userSpaceOnUse"><stop offset="0" stop-color="#29b24b"/><stop offset=".516" stop-color="#4db046"/><stop offset=".791" stop-color="#7bc345"/><stop offset=".996" stop-color="#99cf45"/></linearGradient><linearGradient id="c" x1="500.914" y1="446.818" x2="500.914" y2="201.659" xlink:href="#a"/></defs><g clip-path="url(#b)"><path d="M1034.559-81.804c196.96 705.943-444.199 509.433-876.275 405.478C-329.78 206.248-537.85 527.28-56.765-81.804c153.94-194.897 244.301-449.694 545.662-449.694S967.815-321.027 1034.56-81.804z" fill="url(#a)"/></g><path d="M882.778 396.18a5.881 5.881 0 0 1 8.307-.05l20.044 20.044a5.88 5.88 0 0 1-.05 8.306l-20.595 20.596a5.881 5.881 0 0 1-8.307.05l-20.044-20.044a5.88 5.88 0 0 1 .05-8.306zm74.862 6.882a3.438 3.438 0 0 0-.03 4.857l11.72 11.72a3.438 3.438 0 0 0 4.857-.03l12.041-12.042a3.438 3.438 0 0 0 .03-4.857l-11.72-11.719a3.439 3.439 0 0 0-4.856.03zM942.633 286.88a7.048 7.048 0 0 0-.06 9.955l24.023 24.024a7.049 7.049 0 0 0 9.956-.06l24.683-24.684a7.048 7.048 0 0 0 .06-9.956l-24.023-24.023a7.048 7.048 0 0 0-9.955.06zM217.35 395.686a5.333 5.333 0 0 0 .045 7.533l18.677 18.677a5.333 5.333 0 0 0 7.533.046l18.178-18.178a5.333 5.333 0 0 0-.045-7.533l-18.678-18.677a5.333 5.333 0 0 0-7.533-.046zm-102.472-13.719a5.333 5.333 0 0 0 .045 7.533l18.678 18.678a5.333 5.333 0 0 0 7.533.045l18.178-18.177a5.333 5.333 0 0 0-.046-7.534l-18.677-18.677a5.333 5.333 0 0 0-7.533-.045zM-1.495 247.581l12.69 12.69a6.808 6.808 0 0 0 9.615.058l23.2-23.2a6.806 6.806 0 0 0-.058-9.614l-23.838-23.839a6.807 6.807 0 0 0-9.615-.058l-11.994 11.995zm185.581 57.26a3.675 3.675 0 0 0 .032 5.19l12.873 12.874a3.676 3.676 0 0 0 5.192.031l12.528-12.528a3.676 3.676 0 0 0-.031-5.192l-12.873-12.873a3.676 3.676 0 0 0-5.192-.031zM58.994 326.723a1.38 1.38 0 0 0 .012 1.949l4.831 4.832a1.38 1.38 0 0 0 1.95.012l4.702-4.703a1.38 1.38 0 0 0-.012-1.949l-4.832-4.832a1.38 1.38 0 0 0-1.949-.012zm19.881-62.08a6.806 6.806 0 0 0 .059 9.614l23.838 23.838a6.807 6.807 0 0 0 9.614.058l23.2-23.2a6.806 6.806 0 0 0-.058-9.615L111.69 241.5a6.807 6.807 0 0 0-9.614-.058z" fill="url(#c)"/></svg>