<?xml version="1.0" encoding="UTF-8"?>
<svg xmlns="http://www.w3.org/2000/svg" xmlns:xlink="http://www.w3.org/1999/xlink" version="1.1" id="Capa_1" x="0px" y="0px" viewBox="0 0 511 511" style="enable-background:new 0 0 511 511;" xml:space="preserve" width="512" height="512">
<g>
	<path style="fill:none;stroke:#000000;stroke-width:20;stroke-linecap:round;stroke-linejoin:round;stroke-miterlimit:10;" d="&#10;&#9;&#9;M470.964,137.842c20.321,37.135,31.296,80.02,29.863,125.392c-4.28,135.49-117.586,241.857-253.076,237.577&#10;&#9;&#9;S5.894,383.225,10.174,247.735S127.76,5.878,263.25,10.158c57.627,1.82,110.36,23.762,151.177,58.346"/>
	
		<line style="fill:none;stroke:#000000;stroke-width:20;stroke-linecap:round;stroke-linejoin:round;stroke-miterlimit:10;" x1="445.905" y1="100.404" x2="445.905" y2="100.404"/>
	
		<ellipse style="fill:none;stroke:#000000;stroke-width:20;stroke-linecap:round;stroke-linejoin:round;stroke-miterlimit:10;" cx="255.5" cy="255.5" rx="140.289" ry="245.5"/>
	
		<ellipse style="fill:none;stroke:#000000;stroke-width:20;stroke-linecap:round;stroke-linejoin:round;stroke-miterlimit:10;" cx="255.5" cy="255.5" rx="245.5" ry="140.289"/>
	<g>
		<path style="fill:none;stroke:#000000;stroke-width:20;stroke-linecap:round;stroke-linejoin:round;stroke-miterlimit:10;" d="&#10;&#9;&#9;&#9;M156.244,230.753c1.87-9.52,10.26-16.701,20.327-16.701c11.441,0,20.716,9.275,20.716,20.716c0,11.441-9.275,20.716-20.716,20.716&#10;&#9;&#9;&#9;"/>
		<path style="fill:none;stroke:#000000;stroke-width:20;stroke-linecap:round;stroke-linejoin:round;stroke-miterlimit:10;" d="&#10;&#9;&#9;&#9;M176.571,255.485c11.441,0,20.716,9.275,20.716,20.716c0,11.441-9.275,20.716-20.716,20.716c-10.461,0-19.111-7.753-20.516-17.827&#10;&#9;&#9;&#9;c-0.132-0.944-0.2-1.909-0.2-2.889"/>
	</g>
	<g>
		<path style="fill:none;stroke:#000000;stroke-width:20;stroke-linecap:round;stroke-linejoin:round;stroke-miterlimit:10;" d="&#10;&#9;&#9;&#9;M259.967,215.438c0,0-24.801,18.447-28.801,53.281"/>
		
			<circle style="fill:none;stroke:#000000;stroke-width:20;stroke-linecap:round;stroke-linejoin:round;stroke-miterlimit:10;" cx="254.322" cy="272.119" r="23.412"/>
	</g>
	<g>
		<path style="fill:none;stroke:#000000;stroke-width:20;stroke-linecap:round;stroke-linejoin:round;stroke-miterlimit:10;" d="&#10;&#9;&#9;&#9;M355.145,274.205c0,12.93-10.482,23.412-23.412,23.412c-12.93,0-23.412-10.482-23.412-23.412v-37.441&#10;&#9;&#9;&#9;c0-12.93,10.482-23.412,23.412-23.412c12.93,0,23.412,10.482,23.412,23.412V274.205z"/>
	</g>
</g>















</svg>
