<svg clip-rule="evenodd" fill-rule="evenodd" height="512" image-rendering="optimizeQuality" shape-rendering="geometricPrecision" text-rendering="geometricPrecision" viewBox="0 0 6.82666 6.82666" width="512" xmlns="http://www.w3.org/2000/svg"><g id="Layer_x0020_1"><g id="_475409936"><path id="_475410872" d="m3.40785 1.34207c-.0835551 0-.15152.0679685-.15152.151504.00002756.0835236.0679646.151516.151516.151516.0835669 0 .151524-.0679803.151524-.151516.00000787-.0835394-.0679606-.151504-.15152-.151504zm0 .443307c-.160894 0-.291835-.13089-.291835-.291803 0-.160906.130937-.291811.291831-.291811.160906-.00000787.291839.130906.291839.291811.00000787.160913-.130933.291815-.291835.291803z"/><path id="_475410776" d="m2.66986 1.78552c-.160898 0-.291839-.130886-.291839-.291795.00002756-.0387677.0314291-.0701535.0701575-.0701535.038752-.00001968.0701575.0314055.0701575.0701535.00002756.0835157.0679685.151504.151524.151504.0834449-.00002362.151398-.0679646.151398-.151504.00001575-.0835472-.0679646-.151508-.151398-.151508-.0388346-.00000394-.0701575-.0314094-.0701575-.0701535 0-.0387559.0313031-.0701575.0701575-.0701575.0834449-.00000787.151398-.0679685.151398-.151508.00001575-.0835512-.0679646-.151504-.151398-.151504-.0835315-.00001181-.151524.0679646-.151524.151504.00002756.0387283-.0314252.0701535-.0701575.0701535-.0387283-.00001968-.0701575-.0314016-.0701575-.0701535.00002756-.160917.130937-.291815.291839-.291815.160925-.00001575.291713.130906.291713.291815.00001575.0885787-.0395827.168102-.102189.221665.0626299.0535433.102189.133063.102189.221661.00001575.160909-.130815.291819-.291713.291795z"/><path id="_475410752" d="m3.18617 1.56372c-.0383661 0-.0696693-.0309055-.0701575-.0693898-.00011024-.0179213-.00061024-.441437.349937-.699539.031185-.0229724.0751496-.0163031.0981693.0149055.0229055.031185.0161969.075122-.0149843.0980945-.293276.215941-.292807.581362-.292807.585028.00049213.0387323-.0305709.0704921-.0693071.0709094-.00035827-.00000787-.0006063 0-.00085039-.00000787z"/><path id="_475410992" d="m4.13623.898736c-.078185 0-.141783.0636181-.141783.141776l.00001968.462811c0 .0781614.063563.141772.141756.141772h.0194961c.0782126 0 .141772-.0636102.141772-.141772l.00002362-.462815c0-.0781614-.0636063-.141752-.141803-.141752l-.0194803-.00001968zm.0194882.886646h-.0194882c-.155524 0-.282098-.126531-.282098-.282059l.00001968-.462815c0-.155555.126531-.282059.282071-.282059l.0194961-.00002756c.155551 0 .282087.126555.282087.282091l.00002362.462811c0 .155528-.126579.282071-.28211.282059z"/><path id="_475411232" d="m5.27265 2.23428h-3.71848c-.0420118 0-.076248.034189-.076248.076185l.00000787 2.22676c0 .0419291.0340984.0760512.0761142.0760512l3.71847-.00002756c.0420394 0 .076122-.0341496.076122-.0761575l.00000787-2.22679c0-.0419016-.0341142-.0760197-.0759921-.0760197zm-3.71859 2.51928c-.119378 0-.216453-.0970354-.216453-.216331l.00000787-2.22677c0-.119374.097189-.216488.216555-.216488l3.71848-.00001181c.119346 0 .216299.0970669.216299.216358l.00000787 2.22676c0 .119378-.0970827.216492-.216445.216492l-3.71846-.00001575z"/><path id="_475411112" d="m1.45515 4.71514c-.0155945 0-.0311929-.00511811-.0442244-.015689-.0300709-.0244291-.0347126-.068622-.0102323-.0986969l.945429-1.16357c.0274055-.0338189.0682008-.0532283.111807-.0532756h.00024016c.0436142 0 .0844134.0193504.111937.053126l.540921.665823c.0245039.030063.0198504.0742677-.0102323.0987008-.0300787.0244055-.0741811.0198622-.0986575-.0102205l-.540776-.665689c-.00024409-.00033071-.00111811-.0014252-.00319291-.0014252-.00204331 0-.00279921.00098425-.00316535.00146063l-.945398 1.16356c-.0138976.0170433-.034126.0259213-.0544567.0258976z"/><path id="_475411256" d="m2.6102 4.75372c-.0158425 0-.0316929-.00532283-.0448425-.0162244-.0298386-.0247992-.0338622-.0690236-.00901575-.0988031l.446303-.536476.892669-1.07239c.0275157-.0330512.0679528-.052.110945-.052.0430197-.00001968.0834331.0189646.110965.0520236l1.30744 1.57095c.0247205.0297913.0206811.0740276-.00916142.0988189-.0297008.0247795-.073937.0207244-.0987835-.00905512l-1.3074-1.57096c-.00035433-.00049606-.00122835-.00146457-.00305906-.00146457-.00192913-.00001968-.00267717.00098819-.00316535.00144882l-.892531 1.07238-.446402.536457c-.0138976.0166654-.0338858.0252953-.0539606.0252953z"/><path id="_475410680" d="m2.96318 2.76893c-.0974528 0-.176878.0793504-.176878.176862.00000394.0974882.0794173.176846.176858.176846.0975787-.00001968.176854-.0793425.176854-.176846.00000787-.0975236-.0792953-.176839-.176835-.176862zm0 .494004c-.174929 0-.317193-.14226-.317193-.317142.00000394-.174894.142264-.317154.317173-.317154.174917-.00002362.317169.142272.317169.317154.00000787.174882-.142264.317146-.31715.317142z"/><path id="_475410728" d="m4.86291.895807c-.0520118 0-.0944173.0423819-.0944173.0944449.00000787.0520591.0423898.0944173.0943976.0944173.0520118-.00001575.0943976-.0423583.0943976-.0944173.00000787-.0520787-.0423858-.0944213-.094378-.0944449zm0 .329161c-.129488 0-.234732-.105287-.234732-.234717.00000787-.129445.10524-.234732.234713-.234732.129484-.00000394.234713.105299.234713.234732.00000787.129425-.105236.234724-.234693.234717z"/><path id="_475410824" d="m3.83757 5.69424c-.037378 0-.0684528-.0293898-.0700394-.0670236-.0018189-.0387323.0281417-.0715.0668701-.0732283 1.56636-.0699724 2.50228-.494327 2.50228-.864165 0-.229339-.350303-.466024-.937016-.633146-.0372717-.0106142-.0589567-.0494252-.0483543-.086685.0107283-.0373031.0494449-.0588937.0867165-.0482598.670035.190815 1.03897.463598 1.03897.768091 0 .264283-.271984.501969-.78635.687264-.479146.172594-1.13616.285197-1.84991.317083-.00108268.00004331-.00219291.0000748-.00316535.00007087z"/><path id="_475410152" d="m3.41333 5.7037c-.806673 0-1.56588-.0992913-2.13785-.27961-.597055-.188224-.925815-.448969-.925815-.734264.00000787-.304512.368941-.577268 1.03896-.768091.0371654-.0106417.0760039.0109764.0866063.0482598.0106063.0372402-.0109685.0760748-.0482402.086685-.586713.16711-.937016.403807-.937016.633146.00000787.215752.301583.434622.827638.600433.55872.17611 1.30303.273138 2.09571.273138.0387559-.00001181.0701575.0314134.0701575.0701575.00000394.0387362-.0314213.0701575-.0701535.0701457z"/><path id="_475409960" d="m3.046 6.07115c-.0178976 0-.0358268-.00684646-.0495866-.0205354-.0273976-.0273937-.0274094-.0718189 0-.0992205l.317661-.31785-.317654-.317681c-.0274055-.0274055-.0274173-.071815-.00000787-.0992087.0274134-.0274055.0718583-.0274055.0992638 0l.367236.367287c.0274055.027374.0274016.0718189-.00000394.0992126l-.367228.367445c-.0137559.0137008-.0316693.0205512-.0496811.0205512z"/></g></g></svg>