<svg height="512" viewBox="0 0 48 48" width="512" xmlns="http://www.w3.org/2000/svg"><g id="Слой_2" data-name="Слой 2"><g id="_1" data-name="1"><path d="m47.24 11.62a.76.76 0 0 1 -.76-.76v-5a4.29 4.29 0 0 0 -4.29-4.29h-5a.76.76 0 1 1 0-1.52h5a5.82 5.82 0 0 1 5.81 5.76v5.05a.76.76 0 0 1 -.76.76z" fill="#2c3d60"/><path d="m.76 11.62a.76.76 0 0 1 -.76-.76v-5a5.82 5.82 0 0 1 5.81-5.86h5.05a.76.76 0 0 1 0 1.52h-5a4.29 4.29 0 0 0 -4.34 4.29v5.05a.76.76 0 0 1 -.76.76z" fill="#2c3d60"/><path d="m10.86 48h-5a5.82 5.82 0 0 1 -5.86-5.81v-5a.76.76 0 0 1 1.52 0v5a4.29 4.29 0 0 0 4.29 4.29h5.05a.76.76 0 1 1 0 1.52z" fill="#2c3d60"/><path d="m42.19 48h-5a.76.76 0 0 1 0-1.52h5a4.29 4.29 0 0 0 4.29-4.29v-5a.76.76 0 0 1 1.52 0v5a5.82 5.82 0 0 1 -5.81 5.81z" fill="#2c3d60"/><path d="m47.24 24s-10.4-17.18-23.24-17.18-23.24 17.18-23.24 17.18 10.4 17.18 23.24 17.18 23.24-17.18 23.24-17.18z" fill="#dfebf7"/><path d="m44.84 20.54c-2.07 3.09-12.4 17.61-23.84 17.61-5.52 0-10.58-3.18-14.57-6.8 4.23 4.65 10.57 9.83 17.57 9.83 12.84 0 23.24-17.18 23.24-17.18s-.86-1.43-2.4-3.46z" fill="#bac4d3"/><path d="m3.16 27.46c2.07-3.09 12.4-17.61 23.84-17.61 5.52 0 10.58 3.18 14.57 6.8-4.23-4.65-10.57-9.83-17.57-9.83-12.84 0-23.24 17.18-23.24 17.18s.87 1.43 2.4 3.46z" fill="#fff"/><g fill="#2c3d60"><path d="m24 41.94c-13.11 0-23.46-16.83-23.89-17.55a.73.73 0 0 1 0-.78c.43-.72 10.78-17.55 23.89-17.55s23.46 16.83 23.89 17.55a.73.73 0 0 1 0 .78c-.43.72-10.78 17.55-23.89 17.55zm-22.34-17.94c1.64 2.53 11.15 16.42 22.34 16.42s20.7-13.89 22.34-16.42c-1.64-2.53-11.15-16.42-22.34-16.42s-20.7 13.89-22.34 16.42z"/><path d="m37.41 31.83a.72.72 0 0 1 -.35-.08.76.76 0 0 1 -.32-1 14.39 14.39 0 0 0 0-13.44.76.76 0 1 1 1.34-.71 15.88 15.88 0 0 1 0 14.86.74.74 0 0 1 -.67.37z"/><path d="m10.59 31.83a.75.75 0 0 1 -.67-.4 15.88 15.88 0 0 1 0-14.86.76.76 0 1 1 1.34.71 14.39 14.39 0 0 0 0 13.44.76.76 0 0 1 -.32 1 .72.72 0 0 1 -.35.11z"/><path d="m32.59 29.81h-1a2.79 2.79 0 0 1 -2.79-2.81v-6a2.79 2.79 0 0 1 2.78-2.78h1a2.79 2.79 0 0 1 2.79 2.78v6a2.79 2.79 0 0 1 -2.78 2.81zm-1-10.1a1.25 1.25 0 0 0 -1.27 1.29v6a1.25 1.25 0 0 0 1.26 1.26h1a1.25 1.25 0 0 0 1.27-1.26v-6a1.25 1.25 0 0 0 -1.26-1.26z"/><path d="m21.47 27.79a.76.76 0 0 1 -.75-.76v-6.03a2.78 2.78 0 0 1 2.78-2.78h1a2.78 2.78 0 0 1 2.78 2.78.76.76 0 1 1 -1.51 0 1.26 1.26 0 0 0 -1.27-1.26h-1a1.26 1.26 0 0 0 -1.27 1.26v6a.76.76 0 0 1 -.76.79z"/><path d="m16.42 24.76h-1a.76.76 0 1 1 0-1.52h1a1.25 1.25 0 0 0 1.26-1.24v-1a1.25 1.25 0 0 0 -1.26-1.26h-1a1.25 1.25 0 0 0 -1.27 1.26.76.76 0 0 1 -1.52 0 2.79 2.79 0 0 1 2.78-2.78h1a2.79 2.79 0 0 1 2.79 2.78v1a2.79 2.79 0 0 1 -2.78 2.76z"/><path d="m16.42 29.81h-1a2.79 2.79 0 0 1 -2.79-2.81.76.76 0 1 1 1.52 0 1.25 1.25 0 0 0 1.26 1.26h1a1.25 1.25 0 0 0 1.27-1.26v-1a1.25 1.25 0 0 0 -1.26-1.26h-1a.76.76 0 1 1 0-1.52h1a2.79 2.79 0 0 1 2.78 2.78v1a2.79 2.79 0 0 1 -2.78 2.81z"/><path d="m24.5 29.81h-1a2.78 2.78 0 0 1 -2.78-2.81v-1a2.78 2.78 0 0 1 2.78-2.78h1a2.78 2.78 0 0 1 2.78 2.78v1a2.78 2.78 0 0 1 -2.78 2.81zm-1-5a1.26 1.26 0 0 0 -1.27 1.19v1a1.26 1.26 0 0 0 1.27 1.26h1a1.26 1.26 0 0 0 1.27-1.26v-1a1.26 1.26 0 0 0 -1.27-1.26z"/></g></g></g></svg>