<?xml version="1.0" encoding="UTF-8" standalone="no"?>
<!-- Created with Inkscape (http://www.inkscape.org/) -->

<svg
   version="1.1"
   id="svg1107"
   xml:space="preserve"
   width="682.66669"
   height="682.66669"
   viewBox="0 0 682.66669 682.66669"
   xmlns="http://www.w3.org/2000/svg"
   xmlns:svg="http://www.w3.org/2000/svg"><defs
     id="defs1111"><clipPath
       clipPathUnits="userSpaceOnUse"
       id="clipPath1121"><path
         d="M 0,512 H 512 V 0 H 0 Z"
         id="path1119" /></clipPath></defs><g
     id="g1113"
     transform="matrix(1.3333333,0,0,-1.3333333,0,682.66667)"><g
       id="g1115"><g
         id="g1117"
         clip-path="url(#clipPath1121)"><g
           id="g1123"
           transform="translate(314.3003,72.103)"><path
             d="m 0,0 14.64,-29.03 c 8.2,-16.28 -3.63,-35.49 -21.85,-35.49 H -109.4 c -18.22,0 -30.05,19.21 -21.84,35.49 L -116.6,0"
             style="fill:none;stroke:#000000;stroke-width:15;stroke-linecap:round;stroke-linejoin:round;stroke-miterlimit:10;stroke-dasharray:none;stroke-opacity:1"
             id="path1125" /></g><g
           id="g1127"
           transform="translate(386.7603,251.2231)"><path
             d="M 0,0 H -88.27"
             style="fill:none;stroke:#000000;stroke-width:15;stroke-linecap:round;stroke-linejoin:round;stroke-miterlimit:10;stroke-dasharray:none;stroke-opacity:1"
             id="path1129" /></g><g
           id="g1131"
           transform="translate(213.5103,251.2231)"><path
             d="M 0,0 H -88.27"
             style="fill:none;stroke:#000000;stroke-width:15;stroke-linecap:round;stroke-linejoin:round;stroke-miterlimit:10;stroke-dasharray:none;stroke-opacity:1"
             id="path1133" /></g><g
           id="g1135"
           transform="translate(179,88.5601)"><path
             d="m 0,0 c 18.89,-21.18 46.39,-34.51 77,-34.51 56.96,0 103.15,46.19 103.15,103.15 0,56.97 -46.19,103.16 -103.15,103.16 -56.97,0 -103.16,-46.19 -103.16,-103.16 0,-15.65 3.49,-30.48 9.73,-43.77"
             style="fill:none;stroke:#000000;stroke-width:15;stroke-linecap:round;stroke-linejoin:round;stroke-miterlimit:10;stroke-dasharray:none;stroke-opacity:1"
             id="path1137" /></g><g
           id="g1139"
           transform="translate(286.6665,137.2041)"><path
             d="m 0,0 c 0,-16.939 -13.731,-30.67 -30.67,-30.67 -16.939,0 -30.671,13.731 -30.671,30.67 0,16.939 13.732,30.67 30.671,30.67 C -13.731,30.67 0,16.939 0,0 Z"
             style="fill:none;stroke:#000000;stroke-width:15;stroke-linecap:round;stroke-linejoin:round;stroke-miterlimit:10;stroke-dasharray:none;stroke-opacity:1"
             id="path1141" /></g><g
           id="g1143"
           transform="translate(504.5,387.011)"><path
             d="m 0,0 v -185.066 c 0,-59.777 -44.777,-109.292 -102.553,-116.766 -8.06,-1.042 -15.188,5.29 -15.188,13.418 v 188.677"
             style="fill:none;stroke:#000000;stroke-width:15;stroke-linecap:round;stroke-linejoin:round;stroke-miterlimit:10;stroke-dasharray:none;stroke-opacity:1"
             id="path1145" /></g><g
           id="g1147"
           transform="translate(7.5,387.0107)"><path
             d="m 0,0 v -185.065 c 0,-59.778 44.778,-109.293 102.552,-116.767 8.06,-1.042 15.189,5.29 15.189,13.418 v 188.677"
             style="fill:none;stroke:#000000;stroke-width:15;stroke-linecap:round;stroke-linejoin:round;stroke-miterlimit:10;stroke-dasharray:none;stroke-opacity:1"
             id="path1149" /></g><g
           id="g1151"
           transform="translate(454.5098,435.6299)"><path
             d="m 0,0 c 10.26,-13.96 16.3,-31.11 16.16,-49.6 -0.17,-22.92 -9.53,-43.65 -24.58,-58.69 -12.02,-12.02 -27.68,-20.41 -45.18,-23.39 -4.08,-0.69 -7.62,-2.79 -10.13,-5.75 -2.52,-2.96 -4.02,-6.79 -4.02,-10.93 0,-10.49 9.46,-18.43 19.81,-16.67 55.63,9.47 98.08,58.08 97.92,116.4 C 49.81,16.46 -3.81,68.79 -68.9,68.79 h -259.23 c -65.08,0 -118.7,-52.33 -118.88,-117.41 -0.16,-58.32 42.3,-106.95 97.93,-116.41 0.97,-0.17 1.94,-0.25 2.89,-0.25 9.15,0 16.92,7.42 16.92,16.92 0,8.28 -5.99,15.3 -14.15,16.68 -39.6,6.73 -69.76,41.21 -69.76,82.73 0,23.17 9.39,44.15 24.58,59.33 15.18,15.18 36.17,24.58 59.33,24.58 h 260.53 c 17.29,0 33.51,-5.26 47.04,-14.26"
             style="fill:none;stroke:#000000;stroke-width:15;stroke-linecap:round;stroke-linejoin:round;stroke-miterlimit:10;stroke-dasharray:none;stroke-opacity:1"
             id="path1153" /></g><g
           id="g1155"
           transform="translate(397.208,402.0637)"><path
             d="m 0,0 c 0,-9.936 -8.054,-17.99 -17.99,-17.99 -9.935,0 -17.989,8.054 -17.989,17.99 0,9.936 8.054,17.99 17.989,17.99 C -8.054,17.99 0,9.936 0,0 Z"
             style="fill:none;stroke:#000000;stroke-width:15;stroke-linecap:round;stroke-linejoin:round;stroke-miterlimit:10;stroke-dasharray:none;stroke-opacity:1"
             id="path1157" /></g><g
           id="g1159"
           transform="translate(146.6294,392.7166)"><path
             d="m 0,0 c 1.985,10.106 10.892,17.729 21.579,17.729 12.146,0 21.991,-9.846 21.991,-21.991 0,-12.146 -9.845,-21.992 -21.991,-21.992 12.146,0 21.991,-9.846 21.991,-21.992 0,-12.145 -9.845,-21.992 -21.991,-21.992 -11.105,0 -20.287,8.231 -21.78,18.925 -0.139,1.002 -0.212,2.026 -0.212,3.067"
             style="fill:none;stroke:#000000;stroke-width:15;stroke-linecap:round;stroke-linejoin:round;stroke-miterlimit:10;stroke-dasharray:none;stroke-opacity:1"
             id="path1161" /></g><g
           id="g1163"
           transform="translate(246.7114,407.5022)"><path
             d="M 0,0 C 0,0 -26.328,-19.583 -30.575,-56.562"
             style="fill:none;stroke:#000000;stroke-width:15;stroke-linecap:round;stroke-linejoin:round;stroke-miterlimit:10;stroke-dasharray:none;stroke-opacity:1"
             id="path1165" /></g><g
           id="g1167"
           transform="translate(215.8662,347.332)"><path
             d="M 0,0 C 0,13.726 11.127,24.853 24.853,24.853 38.579,24.853 49.706,13.726 49.706,0 49.706,-13.726 38.579,-24.853 24.853,-24.853 11.127,-24.853 0,-13.726 0,0 Z"
             style="fill:none;stroke:#000000;stroke-width:15;stroke-linecap:round;stroke-linejoin:round;stroke-miterlimit:10;stroke-dasharray:none;stroke-opacity:1"
             id="path1169" /></g><g
           id="g1171"
           transform="translate(340.9448,347.332)"><path
             d="m 0,0 c 0,-13.726 -11.127,-24.853 -24.853,-24.853 -13.726,0 -24.853,11.127 -24.853,24.853 v 39.746 c 0,13.726 11.127,24.854 24.853,24.854 C -11.127,64.6 0,53.472 0,39.746 Z"
             style="fill:none;stroke:#000000;stroke-width:15;stroke-linecap:round;stroke-linejoin:round;stroke-miterlimit:10;stroke-dasharray:none;stroke-opacity:1"
             id="path1173" /></g></g></g></g></svg>
