<?xml version="1.0" encoding="iso-8859-1"?>
<!-- Generator: Adobe Illustrator 19.0.0, SVG Export Plug-In . SVG Version: 6.00 Build 0)  -->
<svg version="1.1" id="Capa_1" xmlns="http://www.w3.org/2000/svg" xmlns:xlink="http://www.w3.org/1999/xlink" x="0px" y="0px"
	 viewBox="0 0 384 384" style="enable-background:new 0 0 384 384;" xml:space="preserve">
<path style="fill:#F3F3F3;" d="M320,0H64C46.326,0,32,14.326,32,32v256l96,96h192c17.674,0,32-14.326,32-32V32
	C352,14.326,337.674,0,320,0z"/>
<polygon style="opacity:0.5;fill:#ABABAB;enable-background:new    ;" points="205.148,384 119.914,298.765 119.914,375.914 
	128,384 "/>
<path style="fill:#E6E6E5;" d="M96,288H32l96,96v-64C128,302.326,113.674,288,96,288z"/>
<path style="fill:#676767;" d="M176,288l-48-64H96v-64h32l48-64V288z"/>
<g>
	<path style="fill:#ABABAB;" d="M192.062,234.992c10.992-11.024,17.808-26.208,17.808-43.008c0-16.8-6.8-31.984-17.808-42.976
		l18.403-18.4c15.726,15.728,25.456,37.424,25.472,61.376c0,23.952-9.746,45.664-25.472,61.392L192.062,234.992z"/>
	<path style="fill:#ABABAB;" d="M247.266,290.192l-18.387-18.384c20.434-20.432,33.075-48.656,33.075-79.824
		s-12.642-59.392-33.054-79.808l18.382-18.368C272.414,118.96,288,153.68,288,191.984S272.414,265.024,247.266,290.192z"/>
</g>
<g>
</g>
<g>
</g>
<g>
</g>
<g>
</g>
<g>
</g>
<g>
</g>
<g>
</g>
<g>
</g>
<g>
</g>
<g>
</g>
<g>
</g>
<g>
</g>
<g>
</g>
<g>
</g>
<g>
</g>
</svg>
