<?xml version="1.0" encoding="iso-8859-1"?>
<!-- Generator: Adobe Illustrator 21.0.0, SVG Export Plug-In . SVG Version: 6.00 Build 0)  -->
<svg xmlns="http://www.w3.org/2000/svg" xmlns:xlink="http://www.w3.org/1999/xlink" version="1.1" id="Capa_1" x="0px" y="0px" viewBox="0 0 512 512" style="enable-background:new 0 0 512 512;" xml:space="preserve" width="512" height="512">
<g>
	<g id="XMLID_3963_">
		<g id="XMLID_3971_">
			<g id="XMLID_3978_">
				<path id="XMLID_3979_" style="fill:#DCE1EA;" d="M428.262,0H202.27c-3.981,0-7.799,1.583-10.612,4.399L73.126,123.062      c-2.81,2.813-4.388,6.625-4.388,10.601V497c0,8.284,6.716,15,15,15h344.524c8.284,0,15-6.716,15-15V15      C443.262,6.716,436.546,0,428.262,0z"/>
			</g>
			<g id="XMLID_3976_">
				<path id="XMLID_3977_" style="fill:#E8ECF4;" d="M202.27,0c-3.981,0-7.799,1.583-10.612,4.399L73.126,123.062      c-2.81,2.813-4.388,6.625-4.388,10.601V497c0,8.284,6.716,15,15,15H256V0H202.27z"/>
			</g>
			<g id="XMLID_3974_">
				<path id="XMLID_3975_" style="fill:#E8ECF4;" d="M203.402,0h-1.132c-3.981,0-7.799,1.583-10.612,4.399L73.126,123.062      c-2.81,2.813-4.388,6.625-4.388,10.601l0,0H174.43c16.001,0,28.972-12.971,28.972-28.972V0z"/>
			</g>
			<g id="XMLID_3972_">
				<path id="XMLID_3973_" style="fill:#F3F5FB;" d="M203.402,0h-1.132c-3.981,0-7.799,1.583-10.612,4.399L73.126,123.062      c-2.81,2.813-4.388,6.625-4.388,10.601l0,0H174.43c16.001,0,28.972-12.971,28.972-28.972V0z"/>
			</g>
		</g>
	</g>
	<path style="fill:#005FE1;" d="M348.044,127.194c-4.013-2.806-9.142-3.478-13.742-1.799l-124.697,45.531   c-5.918,2.161-9.855,7.79-9.855,14.09v136.11c-12.523-3.152-27.529-2.175-42.161,3.703c-29.688,11.927-46.57,39.476-37.708,61.533   c8.862,22.057,40.113,30.269,69.8,18.343c24.032-9.654,39.667-29.546,40.053-48.474l0.015,0.003V244.263l94.697-34.577v65.82   c-12.524-3.153-27.532-2.176-42.165,3.702c-29.688,11.927-46.57,39.476-37.708,61.533c8.862,22.057,40.113,30.269,69.8,18.343   c24.388-9.798,40.121-30.137,40.052-49.315c0.015-0.022,0.023-0.034,0.021-0.031V139.485   C354.446,134.589,352.056,130,348.044,127.194z M324.446,177.748l-94.697,34.577v-16.817l94.697-34.577V177.748z"/>
	<g>
		<polygon style="fill:none;" points="324.446,177.748 324.446,160.931 256,185.923 256,202.74   "/>
		<path style="fill:none;" d="M282.281,279.208c14.633-5.879,29.641-6.856,42.165-3.702v-65.82L256,234.678v62.304    C262.744,289.71,271.692,283.463,282.281,279.208z"/>
		<polygon style="fill:none;" points="229.749,212.325 256,202.74 256,185.923 229.749,195.508   "/>
		<path style="fill:#2682FF;" d="M244.573,340.741c2.364,5.883,6.332,10.77,11.427,14.564v-58.324    C243.838,310.095,238.872,326.552,244.573,340.741z"/>
		<path style="fill:#2682FF;" d="M229.749,212.325v-16.817L256,185.923v-31.938l-46.396,16.941c-5.918,2.161-9.855,7.79-9.855,14.09    v136.11c-12.523-3.152-27.529-2.175-42.161,3.703c-29.688,11.927-46.57,39.476-37.708,61.533    c8.862,22.057,40.113,30.269,69.8,18.343c24.032-9.654,39.667-29.546,40.053-48.474l0.015,0.003V244.263L256,234.678V202.74    L229.749,212.325z"/>
	</g>
</g>















</svg>
